<?xml version="1.0" encoding="utf-8"?>
<!-- Generator: Adobe Illustrator 21.0.0, SVG Export Plug-In . SVG Version: 6.00 Build 0)  -->
<svg version="1.1" id="Layer_1" xmlns="http://www.w3.org/2000/svg" xmlns:xlink="http://www.w3.org/1999/xlink" x="0px" y="0px"
	 viewBox="0 0 33.5 33.2" style="enable-background:new 0 0 33.5 33.2;" xml:space="preserve">
<style type="text/css">
	.st0{fill:#544782;}
</style>
<title>Asset 1</title>
<g id="Layer_2">
	<g id="Шар_1">
		<path class="st0" d="M22.8,14.6c0.4,0,0.8-0.3,0.8-0.8l0,0c0-0.2-0.1-0.4-0.2-0.5l-6.1-6.1c-0.3-0.3-0.8-0.3-1.1,0c0,0,0,0,0,0
			l-6.1,6.1c-0.3,0.3-0.3,0.8,0,1.1s0.8,0.3,1.1,0l0,0L16,9.6v19.5c0,0.4,0.3,0.8,0.8,0.8s0.8-0.3,0.8-0.8l0,0V9.6l4.8,4.8
			C22.5,14.5,22.6,14.6,22.8,14.6 M13.4,33.1c0.4,0.2,0.8,0,1-0.3c0.2-0.4,0-0.8-0.3-1c-0.1-0.1-0.2-0.1-0.4-0.1l0,0
			C5.5,30,0.1,22,1.8,13.7s9.7-13.6,18-11.9s13.6,9.7,11.9,18c-1.2,6-5.9,10.7-11.9,11.9l0,0c-0.4,0-0.8,0.3-0.8,0.8
			c0,0.4,0.3,0.8,0.8,0.8c0.1,0,0.2,0,0.3-0.1c9.1-1.9,14.9-10.7,13-19.8c-1.9-9.1-10.7-14.9-19.8-13S-1.5,11,0.3,20.1
			C1.7,26.7,6.8,31.8,13.4,33.1"/>
	</g>
</g>
</svg>
