<?xml version="1.0" encoding="utf-8"?>
<!-- Generator: Adobe Illustrator 16.0.0, SVG Export Plug-In . SVG Version: 6.00 Build 0)  -->
<!DOCTYPE svg PUBLIC "-//W3C//DTD SVG 1.1//EN" "http://www.w3.org/Graphics/SVG/1.1/DTD/svg11.dtd">
<svg version="1.1" id="Layer_1" xmlns="http://www.w3.org/2000/svg" xmlns:xlink="http://www.w3.org/1999/xlink" x="0px" y="0px"
	 viewBox="-0.399 -0.195 425.098 424.297"
	 enable-background="new -0.399 -0.195 425.098 424.297" xml:space="preserve">
<circle fill="#CAD55B" cx="212.149" cy="211.954" r="212.149"/>
<title>Asset 1</title>
<g id="Layer_2">
	<g id="Шар_1">
		<path fill="#544782" d="M289.39,184.808c5.077,0,10.153-3.808,10.153-10.154l0,0c0-2.539-1.27-5.076-2.539-6.346l-77.423-77.425
			c-3.807-3.808-10.154-3.808-13.961,0l0,0l-77.424,77.425c-3.808,3.809-3.808,10.154,0,13.963c3.808,3.807,10.154,3.807,13.961,0
			l0,0l60.924-60.925v247.504c0,5.078,3.808,10.153,10.154,10.153c6.346,0,10.154-3.808,10.154-10.153l0,0V121.345l60.924,60.924
			C285.583,183.539,286.853,184.808,289.39,184.808 M170.08,419.621c5.077,2.537,10.154,0,12.692-3.81
			c2.539-5.076,0-10.153-3.808-12.692c-1.269-1.269-2.539-1.269-5.077-1.269l0,0C69.809,380.272,1.269,278.731,22.847,173.384
			C44.424,68.036,145.964,0.766,251.313,22.343C356.661,43.92,423.93,145.461,402.354,250.81
			c-15.23,76.154-74.887,135.811-151.04,151.041l0,0c-5.078,0-10.153,3.809-10.153,10.152c0,5.078,3.392,9.646,9.738,9.646
			c1.269,0,2.569,0.273,4.223-0.764c115.502-24.115,189.119-135.81,165.004-251.312c-24.117-115.499-135.813-189.116-251.314-165
			C53.309,28.69-19.039,139.114,3.808,254.616C21.577,338.388,86.309,403.119,170.08,419.621"/>
	</g>
</g>
</svg>
