<svg xmlns="http://www.w3.org/2000/svg" viewBox="0 0 20.88 22.5"><defs><style>.cls-1{fill:#b19463;stroke:#b19463;stroke-miterlimit:10;stroke-width:2px;}.cls-2{fill:#fff;}</style></defs><title>Asset 10</title><g id="Layer_2" data-name="Layer 2"><g id="Шар_1" data-name="Шар 1"><path class="cls-1" d="M19.75,21h0L17.89,7h0a.46.46,0,0,0-.45-.41H14.17V4.73a3.73,3.73,0,0,0-7.46,0V6.59H3.45A.46.46,0,0,0,3,7H3L1.13,21h0a.32.32,0,0,0,0,.06.47.47,0,0,0,.47.47H19.29a.47.47,0,0,0,.47-.47.41.41,0,0,0,0-.06"/><path class="cls-2" d="M19.75,21h0L17.89,7h0a.46.46,0,0,0-.45-.41H14.17V4.73a3.73,3.73,0,0,0-7.46,0V6.59H3.45A.46.46,0,0,0,3,7H3L1.13,21h0a.32.32,0,0,0,0,.06.47.47,0,0,0,.47.47H19.29a.47.47,0,0,0,.47-.47.41.41,0,0,0,0-.06M7.64,4.73a2.8,2.8,0,0,1,5.59,0V6.59H7.64ZM3.86,7.52H6.71v2a.93.93,0,1,0,.93,0v-2h5.59v2a.93.93,0,1,0,.93,0v-2H17l1.49,11.18H2.37Zm-1.74,13,.12-.93H18.64l.12.93Z"/></g></g></svg>