<svg xmlns="http://www.w3.org/2000/svg" viewBox="0 0 18.64 20.5"><defs><style>.cls-1{fill:#544782;}</style></defs><title>Asset 1</title><g id="Layer_2" data-name="Layer 2"><g id="Шар_1" data-name="Шар 1"><path class="cls-1" d="M18.62,20h0L16.77,6h0a.46.46,0,0,0-.45-.41H13V3.73a3.73,3.73,0,0,0-7.46,0V5.59H2.33A.46.46,0,0,0,1.88,6h0L0,20H0A.32.32,0,0,0,0,20a.47.47,0,0,0,.47.47H18.17a.47.47,0,0,0,.47-.47.42.42,0,0,0,0-.06M6.52,3.73a2.8,2.8,0,0,1,5.59,0V5.59H6.52ZM2.74,6.52H5.59v2a.93.93,0,1,0,.93,0v-2h5.59v2a.93.93,0,1,0,.93,0v-2H15.9L17.39,17.7H1.25ZM1,19.57l.12-.93H17.51l.12.93Z"/></g></g></svg>