<svg width="30.000000000000004" height="30.000000000000004" xmlns="http://www.w3.org/2000/svg">

 <g>
  <title>background</title>
  <rect fill="none" id="canvas_background" height="402" width="582" y="-1" x="-1"/>
 </g>
 <g>
  <title>Layer 1</title>
  <g stroke-linejoin="round" stroke-linecap="round" stroke-width="0.9265" stroke="#F79226" fill="none" id="svg_1">
   <g id="svg_2">
    <path id="svg_3" d="m11.7,20.3c0,0 -6,-12.7 -6.4,-13.6c-0.7,-1.1 -1.9,-0.9 -1.9,-0.9l-2.7,0" stroke-miterlimit="10" stroke-linejoin="round" stroke-linecap="round" stroke-width="0.9265" stroke="#544782" fill="none"/>
    <path id="svg_4" d="m6.5,9.2l19.1,1.2l0,3.9c0,0 0.4,1.9 -1.5,2.3l-12.7,3.6c0,0 -2.8,1 -2.7,4.9" stroke-miterlimit="10" stroke-linejoin="round" stroke-linecap="round" stroke-width="0.9265" stroke="#544782" fill="none"/>
    <circle id="svg_5" r="1.6" cy="26.9" cx="8.9" stroke-miterlimit="10" stroke-linejoin="round" stroke-linecap="round" stroke-width="0.9265" stroke="#544782" fill="none"/>
    <circle id="svg_6" r="1.3" cy="27.2" cx="25.7" stroke-miterlimit="10" stroke-linejoin="round" stroke-linecap="round" stroke-width="0.9265" stroke="#544782" fill="none"/>
    <path id="svg_7" d="m9.8,25.6l14.8,-2c0,0 0.9,0 1.1,0.8c0,0.1 0,1.7 0,1.7" stroke-miterlimit="10" stroke-linejoin="round" stroke-linecap="round" stroke-width="0.9265" stroke="#544782" fill="none"/>
   </g>
  </g>
  <g id="svg_8">
   <path id="svg_9" d="m9.2,1.7l2.5,0c1,0 1.6,0.6 1.6,1.4c0,0.7 -0.5,1.2 -1,1.3c0.6,0.1 1.1,0.7 1.1,1.4c0,0.9 -0.6,1.5 -1.6,1.5l-2.6,0l0,-5.6zm2.4,2.5c0.6,0 1,-0.4 1,-0.9c0,-0.5 -0.3,-0.9 -1,-0.9l-1.7,0l0,1.8l1.7,0zm0,2.5c0.7,0 1,-0.4 1,-1c0,-0.5 -0.4,-1 -1,-1l-1.7,0l0,1.9l1.7,0l0,0.1z" fill="#544782"/>
   <path id="svg_10" d="m14.5,1.7l0.7,0l0,3.4c0,1 0.6,1.7 1.6,1.7s1.6,-0.7 1.6,-1.7l0,-3.4l0.7,0l0,3.4c0,1.4 -0.8,2.3 -2.3,2.3s-2.3,-0.9 -2.3,-2.3l0,-3.4z" fill="#544782"/>
   <path id="svg_11" d="m22,5l-2.2,-3.3l0.8,0l1.7,2.6l1.8,-2.6l0.9,0l-2.3,3.3l0,2.4l-0.7,0l0,-2.4z" fill="#544782"/>
  </g>
 </g>
</svg>