<?xml version="1.0" encoding="utf-8"?>
<!-- Generator: Adobe Illustrator 16.0.4, SVG Export Plug-In . SVG Version: 6.00 Build 0)  -->
<!DOCTYPE svg PUBLIC "-//W3C//DTD SVG 1.1//EN" "http://www.w3.org/Graphics/SVG/1.1/DTD/svg11.dtd">
<svg version="1.1" id="Шар_1" xmlns="http://www.w3.org/2000/svg" xmlns:xlink="http://www.w3.org/1999/xlink" x="0px" y="0px"
	 width="56.693px" height="28.346px" viewBox="0 0 56.693 28.346" enable-background="new 0 0 56.693 28.346" xml:space="preserve">
<circle fill="#CAD55C" cx="42.347" cy="14.173" r="10.417"/>
<path fill="#544883" d="M48.687,13.751c-0.233,0-0.422,0.189-0.422,0.422c0,0.234,0.189,0.422,0.422,0.422s0.422-0.188,0.422-0.422
	C49.109,13.94,48.92,13.751,48.687,13.751 M39.389,19.298c-0.202-0.117-0.46-0.048-0.577,0.154c-0.116,0.202-0.047,0.46,0.155,0.577
	c0.203,0.117,0.46,0.048,0.577-0.155C39.66,19.673,39.591,19.415,39.389,19.298 M36.646,16.978
	c-0.203,0.117-0.271,0.375-0.155,0.577c0.117,0.202,0.375,0.272,0.577,0.155c0.202-0.117,0.271-0.375,0.154-0.578
	C37.106,16.93,36.848,16.86,36.646,16.978 M38.966,8.317c-0.202,0.118-0.271,0.375-0.155,0.578c0.117,0.202,0.375,0.271,0.577,0.154
	c0.203-0.117,0.271-0.375,0.155-0.577C39.427,8.27,39.169,8.201,38.966,8.317 M36.008,13.751c-0.233,0-0.423,0.189-0.423,0.422
	c0,0.234,0.19,0.422,0.423,0.422c0.233,0,0.422-0.188,0.422-0.422C36.43,13.94,36.241,13.751,36.008,13.751 M45.306,9.049
	c0.203,0.117,0.46,0.047,0.578-0.154c0.116-0.203,0.047-0.46-0.155-0.578c-0.201-0.116-0.46-0.047-0.577,0.155
	C45.035,8.674,45.103,8.933,45.306,9.049 M37.068,10.637c-0.203-0.116-0.46-0.046-0.577,0.155c-0.116,0.203-0.048,0.461,0.155,0.578
	c0.202,0.118,0.46,0.048,0.577-0.154C37.339,11.013,37.27,10.755,37.068,10.637 M48.049,16.978
	c-0.202-0.117-0.461-0.047-0.578,0.154c-0.116,0.203-0.047,0.461,0.155,0.578c0.203,0.117,0.461,0.047,0.578-0.155
	C48.32,17.353,48.251,17.094,48.049,16.978 M42.347,20.091c-0.232,0-0.421,0.189-0.421,0.422c0,0.234,0.189,0.422,0.421,0.422
	c0.234,0,0.424-0.188,0.424-0.422C42.771,20.28,42.581,20.091,42.347,20.091 M47.626,10.637c-0.202,0.118-0.271,0.376-0.155,0.578
	c0.117,0.202,0.376,0.272,0.578,0.154c0.202-0.116,0.271-0.375,0.155-0.578C48.087,10.591,47.829,10.521,47.626,10.637
	 M46.151,13.751h-2.173c-0.153-0.59-0.616-1.054-1.208-1.208V7.834c0-0.234-0.19-0.423-0.424-0.423
	c-0.232,0-0.421,0.189-0.421,0.423v4.708c-0.728,0.189-1.269,0.845-1.269,1.631c0,0.934,0.757,1.691,1.69,1.691
	c0.788,0,1.443-0.54,1.631-1.269h2.173c0.233,0,0.422-0.188,0.422-0.422C46.574,13.94,46.384,13.751,46.151,13.751 M42.347,15.019
	c-0.466,0-0.845-0.379-0.845-0.846c0-0.466,0.379-0.845,0.845-0.845c0.467,0,0.846,0.379,0.846,0.845
	C43.192,14.64,42.814,15.019,42.347,15.019 M45.306,19.298c-0.203,0.116-0.271,0.375-0.155,0.577
	c0.117,0.203,0.376,0.272,0.577,0.155c0.203-0.117,0.271-0.375,0.155-0.577C45.766,19.25,45.509,19.182,45.306,19.298 M42.347,4.875
	c-5.134,0-9.298,4.164-9.298,9.298c0,5.135,4.164,9.299,9.298,9.299c5.135,0,9.299-4.164,9.299-9.299
	C51.646,9.039,47.482,4.875,42.347,4.875 M42.347,22.626c-4.668,0-8.452-3.784-8.452-8.453c0-4.668,3.784-8.453,8.452-8.453
	c4.669,0,8.454,3.784,8.454,8.453C50.8,18.842,47.016,22.626,42.347,22.626"/>
<path fill="#B19563" d="M21.937,13.751c-0.233,0-0.422,0.189-0.422,0.422c0,0.234,0.189,0.422,0.422,0.422s0.422-0.188,0.422-0.422
	C22.359,13.94,22.17,13.751,21.937,13.751 M12.639,19.298c-0.202-0.117-0.46-0.048-0.577,0.154c-0.116,0.202-0.047,0.46,0.155,0.577
	c0.203,0.117,0.46,0.048,0.577-0.155C12.91,19.673,12.841,19.415,12.639,19.298 M9.896,16.978c-0.203,0.117-0.271,0.375-0.155,0.577
	c0.117,0.202,0.375,0.272,0.577,0.155c0.202-0.117,0.271-0.375,0.154-0.578C10.356,16.93,10.098,16.86,9.896,16.978 M12.216,8.317
	c-0.202,0.118-0.271,0.375-0.155,0.578c0.117,0.202,0.375,0.271,0.577,0.154c0.203-0.117,0.271-0.375,0.155-0.577
	C12.677,8.27,12.419,8.201,12.216,8.317 M9.258,13.751c-0.233,0-0.423,0.189-0.423,0.422c0,0.234,0.19,0.422,0.423,0.422
	c0.233,0,0.422-0.188,0.422-0.422C9.68,13.94,9.491,13.751,9.258,13.751 M18.556,9.049c0.203,0.117,0.46,0.047,0.578-0.154
	c0.116-0.203,0.047-0.46-0.155-0.578c-0.201-0.116-0.46-0.047-0.577,0.155C18.285,8.674,18.353,8.933,18.556,9.049 M10.318,10.637
	c-0.203-0.116-0.46-0.046-0.577,0.155c-0.116,0.203-0.048,0.461,0.155,0.578c0.202,0.118,0.46,0.048,0.577-0.154
	C10.589,11.013,10.52,10.755,10.318,10.637 M21.299,16.978c-0.202-0.117-0.461-0.047-0.578,0.154
	c-0.116,0.203-0.047,0.461,0.155,0.578c0.203,0.117,0.461,0.047,0.578-0.155C21.57,17.353,21.501,17.094,21.299,16.978
	 M15.597,20.091c-0.232,0-0.421,0.189-0.421,0.422c0,0.234,0.189,0.422,0.421,0.422c0.234,0,0.424-0.188,0.424-0.422
	C16.021,20.28,15.831,20.091,15.597,20.091 M20.876,10.637c-0.202,0.118-0.271,0.376-0.155,0.578
	c0.117,0.202,0.376,0.272,0.578,0.154c0.202-0.116,0.271-0.375,0.155-0.578C21.337,10.591,21.079,10.521,20.876,10.637
	 M19.401,13.751h-2.173c-0.153-0.59-0.616-1.054-1.208-1.208V7.834c0-0.234-0.19-0.423-0.424-0.423
	c-0.232,0-0.421,0.189-0.421,0.423v4.708c-0.728,0.189-1.269,0.845-1.269,1.631c0,0.934,0.757,1.691,1.69,1.691
	c0.788,0,1.443-0.54,1.631-1.269h2.173c0.233,0,0.422-0.188,0.422-0.422C19.824,13.94,19.634,13.751,19.401,13.751 M15.597,15.019
	c-0.466,0-0.845-0.379-0.845-0.846c0-0.466,0.379-0.845,0.845-0.845c0.467,0,0.846,0.379,0.846,0.845
	C16.442,14.64,16.064,15.019,15.597,15.019 M18.556,19.298c-0.203,0.116-0.271,0.375-0.155,0.577
	c0.117,0.203,0.376,0.272,0.577,0.155c0.203-0.117,0.271-0.375,0.155-0.577C19.016,19.25,18.759,19.182,18.556,19.298 M15.597,4.875
	c-5.134,0-9.298,4.164-9.298,9.298c0,5.135,4.164,9.299,9.298,9.299c5.135,0,9.299-4.164,9.299-9.299
	C24.896,9.039,20.732,4.875,15.597,4.875 M15.597,22.626c-4.668,0-8.452-3.784-8.452-8.453c0-4.668,3.784-8.453,8.452-8.453
	c4.669,0,8.454,3.784,8.454,8.453C24.05,18.842,20.266,22.626,15.597,22.626"/>
</svg>
