<?xml version="1.0" encoding="utf-8"?>
<!-- Generator: Adobe Illustrator 16.0.0, SVG Export Plug-In . SVG Version: 6.00 Build 0)  -->
<!DOCTYPE svg PUBLIC "-//W3C//DTD SVG 1.1//EN" "http://www.w3.org/Graphics/SVG/1.1/DTD/svg11.dtd">
<svg version="1.1" id="Layer_1" xmlns="http://www.w3.org/2000/svg" xmlns:xlink="http://www.w3.org/1999/xlink" x="0px" y="0px"
	 viewBox="42.725 0 337.656 621.384" enable-background="new 42.725 0 337.656 621.384"
	 xml:space="preserve">
<title>Asset 1</title>
<g>
	<path fill="#CAD55B" d="M359.017,600.5c0,3.131-2.674,5.67-5.974,5.67H60.672c-3.299,0-5.974-2.539-5.974-5.67V30.584
		c0-3.131,2.674-5.669,5.974-5.669h292.371c3.3,0,5.974,2.538,5.974,5.669V600.5z"/>
	<g id="Layer_2">
		<g id="Шар_1">
			<rect x="351.182" y="113.995" fill="#CAD55B" width="2.236" height="397.866"/>
			<path fill="#544782" d="M326.594,0H98.605c-31.292,0-55.88,24.587-55.88,55.88l0,0v509.625c0,31.293,24.587,55.879,55.88,55.879
				H324.36c31.293,0,55.881-24.586,55.881-55.879l0,0V55.88C382.475,24.587,357.887,0,326.594,0L326.594,0z M355.653,538.683v29.057
				c0,15.646-13.412,29.059-29.059,29.059l0,0H98.605c-15.646,0-29.058-13.412-29.058-29.059l0,0l-2.235-6.705V73.762l2.235-17.882
				c0-15.646,13.411-29.058,29.058-29.058H324.36c15.646,0,29.059,11.176,29.059,26.822l0,0v485.039H355.653z"/>
			<path fill="#544782" d="M172.367,62.585h-40.234c-11.176,0-20.117,8.941-20.117,20.117c0,11.176,8.941,22.352,20.117,22.352l0,0
				h40.234c11.176-2.235,20.117-11.176,17.881-22.352C190.248,71.526,181.307,64.821,172.367,62.585L172.367,62.585z"/>
			<polygon fill="#544782" points="241.658,268.224 212.6,189.992 183.542,268.224 105.311,268.224 167.896,317.398 
				138.838,406.806 212.6,353.162 286.362,406.806 257.304,317.398 319.889,268.224 			"/>
		</g>
	</g>
</g>
</svg>
