<?xml version="1.0" encoding="utf-8"?>
<!-- Generator: Adobe Illustrator 21.0.0, SVG Export Plug-In . SVG Version: 6.00 Build 0)  -->
<svg version="1.1" id="Layer_1" xmlns="http://www.w3.org/2000/svg" xmlns:xlink="http://www.w3.org/1999/xlink" x="0px" y="0px"
	 viewBox="0 0 15.2 27.9" style="enable-background:new 0 0 15.2 27.9;" xml:space="preserve">
<style type="text/css">
	.st0{fill:#544782;}
</style>
<title>Asset 1</title>
<g id="Layer_2">
	<g id="Шар_1">
		<rect x="13.8" y="5.1" class="st0" width="0.1" height="17.8"/>
		<path class="st0" d="M12.7,0H2.5C1.1,0,0,1.1,0,2.5c0,0,0,0,0,0v22.8c0,1.4,1.1,2.5,2.5,2.5h10.1c1.4,0,2.5-1.1,2.5-2.5
			c0,0,0,0,0,0V2.5C15.2,1.1,14.1,0,12.7,0C12.7,0,12.7,0,12.7,0z M14,24.1v1.3c0,0.7-0.6,1.3-1.3,1.3h0H2.5c-0.7,0-1.3-0.6-1.3-1.3
			l0,0l-0.1-0.3V3.3l0.1-0.8c0-0.7,0.6-1.3,1.3-1.3h10.1c0.7,0,1.3,0.5,1.3,1.2c0,0,0,0,0,0V24.1z"/>
		<path class="st0" d="M5.8,2.8H4c-0.5,0-0.9,0.4-0.9,0.9S3.5,4.7,4,4.7l0,0h1.8c0.5-0.1,0.9-0.5,0.8-1C6.6,3.2,6.2,2.9,5.8,2.8
			L5.8,2.8z"/>
		<polygon class="st0" points="8.9,12 7.6,8.5 6.3,12 2.8,12 5.6,14.2 4.3,18.2 7.6,15.8 10.9,18.2 9.6,14.2 12.4,12 		"/>
	</g>
</g>
</svg>
