<?xml version="1.0" encoding="utf-8"?>
<!-- Generator: Adobe Illustrator 16.0.4, SVG Export Plug-In . SVG Version: 6.00 Build 0)  -->
<!DOCTYPE svg PUBLIC "-//W3C//DTD SVG 1.1//EN" "http://www.w3.org/Graphics/SVG/1.1/DTD/svg11.dtd">
<svg version="1.1" id="Шар_1" xmlns="http://www.w3.org/2000/svg" xmlns:xlink="http://www.w3.org/1999/xlink" x="0px" y="0px"
	 width="113.39px" height="113.39px" viewBox="0 0 113.39 113.39" enable-background="new 0 0 113.39 113.39" xml:space="preserve">
<circle fill="#CAD55B" cx="57.85" cy="57.514" r="34.833"/>
<path fill="#544782" d="M49.849,55.514c-0.553,0-1,0.447-1,1c0,0.277,0.111,0.527,0.293,0.707l8,8
	c0.18,0.182,0.432,0.293,0.707,0.293c0.277,0,0.527-0.111,0.707-0.293l8-8c0.182-0.18,0.293-0.43,0.293-0.707c0-0.553-0.447-1-1-1
	c-0.275,0-0.527,0.113-0.707,0.293L58.849,62.1V36.514c0-0.553-0.447-1-1-1s-1,0.447-1,1V62.1l-6.293-6.292
	C50.376,55.627,50.126,55.514,49.849,55.514 M62.274,35.993c-0.129-0.061-0.271-0.104-0.426-0.104c-0.553,0-1,0.449-1,1
	c0,0.553,0.447,1,1,1v0.027c9.129,1.854,16,9.922,16,19.598c0,11.046-8.953,20-20,20s-20-8.953-20-20
	c0-9.676,6.871-17.744,16-19.598v-0.027c0.553,0,1-0.447,1-1c0-0.551-0.447-1-1-1c-0.154,0-0.297,0.043-0.428,0.104
	c-10.021,2.053-17.572,10.893-17.572,21.521c0,12.15,9.85,22,22,22s22-9.85,22-22C79.849,46.885,72.298,38.045,62.274,35.993"/>
<g>
	<path fill="#FFFFFF" d="M57.847,19.326c21.094,0,38.191,17.101,38.191,38.194c0,21.085-17.098,38.185-38.191,38.185
		c-21.086,0-38.186-17.1-38.186-38.185C19.661,36.426,36.761,19.326,57.847,19.326 M57.847,16.927
		c-22.377,0-40.584,18.208-40.584,40.593c0,22.375,18.207,40.582,40.584,40.582c22.381,0,40.59-18.207,40.59-40.582
		C98.437,35.135,80.228,16.927,57.847,16.927L57.847,16.927z"/>
</g>
</svg>
