<?xml version="1.0" encoding="utf-8"?>
<!-- Generator: Adobe Illustrator 21.0.0, SVG Export Plug-In . SVG Version: 6.00 Build 0)  -->
<svg version="1.1" id="Layer_1" xmlns="http://www.w3.org/2000/svg" xmlns:xlink="http://www.w3.org/1999/xlink" x="0px" y="0px"
	 viewBox="0 0 26.7 20.6" style="enable-background:new 0 0 26.7 20.6;" xml:space="preserve">
<style type="text/css">
	.st0{fill:#544782;}
</style>
<title>Asset 2</title>
<g id="Layer_2">
	<g id="Шар_1">
		<path class="st0" d="M24.3,0h-17C6,0,4.9,1.1,4.9,2.4c0,0,0,0,0,0V3c0,0.3,0.3,0.6,0.6,0.6c0.3,0,0.6-0.3,0.6-0.6c0,0,0,0,0,0V2.4
			c0-0.7,0.5-1.2,1.2-1.2h17c0.7,0,1.2,0.5,1.2,1.2v10.9c0,0.7-0.6,1.2-1.2,1.2h-0.6c-0.3,0-0.6,0.2-0.7,0.5c0,0.3,0.2,0.6,0.5,0.7
			c0.1,0,0.1,0,0.2,0h0.6c1.3,0,2.4-1.1,2.4-2.4l0,0V2.4C26.7,1.1,25.6,0,24.3,0 M19.4,4.9h-17C1.1,4.9,0,5.9,0,7.3c0,0,0,0,0,0
			v10.9c0,1.3,1.1,2.4,2.4,2.4l0,0h17c1.3,0,2.4-1.1,2.4-2.4l0,0V7.3C21.9,5.9,20.8,4.9,19.4,4.9L19.4,4.9 M2.4,6.1h17
			c0.3,0,0.6,0.1,0.8,0.3l-8.5,8.5c-0.5,0.5-1.2,0.5-1.6,0L1.6,6.4C1.9,6.2,2.1,6.1,2.4,6.1 M1.2,7.7l5.1,5.1l-5.1,5.1V7.7z
			 M19.4,19.4h-17c-0.3,0-0.6-0.1-0.8-0.3l5.5-5.5l2.1,2.1c0.9,0.9,2.4,0.9,3.4,0l2.1-2.1l5.5,5.5C20,19.3,19.7,19.4,19.4,19.4
			 M20.6,17.8l-5.1-5.1l5.1-5.1V17.8z"/>
	</g>
</g>
</svg>
