<svg xmlns="http://www.w3.org/2000/svg" viewBox="0 0 36 27.82"><defs><style>.cls-1{fill:#cad55b;}</style></defs><title>Asset 2</title><g id="Layer_2" data-name="Layer 2"><g id="Шар_1" data-name="Шар 1"><path class="cls-1" d="M32.73,0H9.82A3.27,3.27,0,0,0,6.55,3.27v.82a.82.82,0,0,0,1.64,0V3.27A1.64,1.64,0,0,1,9.82,1.64H32.73a1.64,1.64,0,0,1,1.64,1.64V18a1.64,1.64,0,0,1-1.64,1.64h-.82a.82.82,0,1,0,0,1.64h.82A3.27,3.27,0,0,0,36,18V3.27A3.27,3.27,0,0,0,32.73,0M26.18,6.55H3.27A3.27,3.27,0,0,0,0,9.82V24.55a3.27,3.27,0,0,0,3.27,3.27H26.18a3.27,3.27,0,0,0,3.27-3.27V9.82a3.27,3.27,0,0,0-3.27-3.27M3.27,8.18H26.18a1.63,1.63,0,0,1,1.06.4L15.84,20a1.57,1.57,0,0,1-2.22,0L2.21,8.58a1.63,1.63,0,0,1,1.06-.4M1.64,10.32,8.5,17.18,1.64,24ZM26.18,26.18H3.27a1.62,1.62,0,0,1-1.06-.4l7.44-7.44,2.81,2.81a3.2,3.2,0,0,0,4.53,0l2.81-2.81,7.44,7.44a1.62,1.62,0,0,1-1.06.4M27.82,24,21,17.18l6.86-6.86Z"/></g></g></svg>