<?xml version="1.0" encoding="utf-8"?>
<!-- Generator: Adobe Illustrator 16.0.0, SVG Export Plug-In . SVG Version: 6.00 Build 0)  -->
<!DOCTYPE svg PUBLIC "-//W3C//DTD SVG 1.1//EN" "http://www.w3.org/Graphics/SVG/1.1/DTD/svg11.dtd">
<svg version="1.1" id="Слой_1" xmlns="http://www.w3.org/2000/svg" xmlns:xlink="http://www.w3.org/1999/xlink" x="0px" y="0px"
	 viewBox="11.918 159.386 390.573 302.668"
	 enable-background="new 11.918 159.386 390.573 302.668" xml:space="preserve">
<path fill="#CAD55B" d="M385.824,381.436c0.475-0.363,1.005-0.593,1.559-0.715V168.877h-286.99c-2.142,2.901-4.318,5.784-6.46,8.687
	c-3.464,6.637-8.294,12.93-12.166,19.35V390.31h287.546C374.527,386.811,380.772,385.304,385.824,381.436z"/>
<title>Asset 5</title>
<g id="Layer_2">
	<g id="Шар_1">
		<path fill="#CAD55B" d="M365.803,159.386h-247.63c-19.3,0.676-34.594,16.524-34.582,35.836v8.78c0,4.948,4.011,8.959,8.959,8.959
			c4.948,0,8.959-4.011,8.959-8.959l0,0v-8.78c0-9.896,8.022-17.918,17.918-17.918h246.375c9.896,0,17.918,8.022,17.918,17.918
			v159.293c0,9.896-8.021,17.919-17.918,17.919h-8.779c-4.947,0-8.959,4.01-8.959,8.959c0,4.947,4.012,8.959,8.959,8.959h8.779
			c19.793,0,35.838-16.045,35.838-35.837V195.223C401.641,175.431,385.596,159.386,365.803,159.386 M294.131,231.059H47.755
			c-19.792,0-35.836,16.045-35.836,35.837v159.293c0,19.793,16.044,35.836,35.836,35.836h247.271
			c19.793,0,35.838-16.043,35.838-35.836V265.642c0-19.792-16.045-35.836-35.838-35.836"/>
		<path fill="#544782" d="M366.653,159.953H118.844c-19.792,0-35.836,16.045-35.836,35.836l0,0v8.78
			c0,4.948,4.011,8.959,8.959,8.959c4.948,0,8.959-4.011,8.959-8.959v-9.317c0-9.896,8.022-17.918,17.918-17.918h247.809
			c9.896,0,17.92,8.022,17.92,17.918v159.292c0,9.896-8.023,17.919-17.92,17.919h-8.779c-4.947,0-8.959,4.011-8.959,8.959
			s4.012,8.96,8.959,8.96h8.779c19.793,0,35.838-16.045,35.838-35.838V195.252c0-19.792-16.045-35.837-35.838-35.837
			 M294.981,231.088H48.067c-19.792,0-35.836,16.044-35.836,35.836v159.293c0,19.791,16.044,35.836,35.836,35.836h247.811
			c19.791,0,35.836-16.045,35.836-35.836V266.029c0-19.792-16.045-35.836-35.836-35.836 M48.067,248.111h247.811
			c4.209,0.042,8.268,1.564,11.467,4.3L183.887,376.406c-6.619,6.487-17.212,6.487-23.831,0L36.599,252.77
			c3.199-2.736,7.259-4.259,11.468-4.301 M30.149,271.583l74.361,74.182l-74.182,74.182L30.149,271.583z M295.698,443.062H48.067
			c-4.209-0.043-8.269-1.564-11.468-4.301l80.453-80.273l30.461,30.461c13.453,13.557,35.349,13.642,48.906,0.189
			c0.063-0.063,0.127-0.127,0.19-0.189l30.461-30.461l80.453,80.453c-3.199,2.734-7.26,4.258-11.469,4.299 M313.973,420.126
			l-74.181-74.182l74.181-74.182V420.126z"/>
	</g>
</g>
</svg>
