<?xml version="1.0" encoding="utf-8"?>
<!-- Generator: Adobe Illustrator 16.0.4, SVG Export Plug-In . SVG Version: 6.00 Build 0)  -->
<!DOCTYPE svg PUBLIC "-//W3C//DTD SVG 1.0//EN" "http://www.w3.org/TR/2001/REC-SVG-20010904/DTD/svg10.dtd">
<svg version="1.0" id="Шар_1" xmlns="http://www.w3.org/2000/svg" xmlns:xlink="http://www.w3.org/1999/xlink" x="0px" y="0px"
	 width="64px" height="64px" viewBox="0 0 64 64" style="enable-background:new 0 0 64 64;" xml:space="preserve">
<style type="text/css">
<![CDATA[
	.st0{fill:#FFFFFF;}
]]>
</style>
<path class="st0" d="M46.881,9.154c-2.209,0-4.209,0.895-5.658,2.344l-26.999,27L10.88,53.153l14.656-3.343l27-27
	c1.447-1.447,2.344-3.448,2.344-5.657C54.881,12.736,51.299,9.154,46.881,9.154 M23.88,47.943l-7,1.637v-2.426h-2.426l1.637-7h7.789
	V47.943z M25.88,46.639v-7.484c0-0.553-0.448-1-1-1h-7.486l21.538-21.536l8.484,8.485L25.88,46.639z M51.123,21.396L48.83,23.69
	l-8.484-8.485l2.293-2.293c0,0,1.631-1.758,4.242-1.758c3.314,0,6,2.686,6,6C52.881,18.811,52.209,20.311,51.123,21.396"/>
</svg>
