<?xml version="1.0" encoding="utf-8"?>
<!-- Generator: Adobe Illustrator 21.1.0, SVG Export Plug-In . SVG Version: 6.00 Build 0)  -->
<svg version="1.1" id="Шар_1" xmlns="http://www.w3.org/2000/svg" xmlns:xlink="http://www.w3.org/1999/xlink" x="0px" y="0px"
	 viewBox="0 0 64 64" style="enable-background:new 0 0 64 64;" xml:space="preserve">
<style type="text/css">
	.st0{fill:#CAD55B;}
</style>
<path class="st0" d="M46.9,9.2c-2.2,0-4.2,0.9-5.7,2.3l-27,27l-3.3,14.7l14.7-3.3l27-27c1.4-1.4,2.3-3.4,2.3-5.7
	C54.9,12.7,51.3,9.2,46.9,9.2 M23.9,47.9l-7,1.6v-2.4h-2.4l1.6-7h7.8C23.9,40.2,23.9,47.9,23.9,47.9z M25.9,46.6v-7.5
	c0-0.6-0.4-1-1-1h-7.5l21.5-21.5l8.5,8.5L25.9,46.6z M51.1,21.4l-2.3,2.3l-8.5-8.5l2.3-2.3c0,0,1.6-1.8,4.2-1.8c3.3,0,6,2.7,6,6
	C52.9,18.8,52.2,20.3,51.1,21.4"/>
</svg>
