<svg width="64" height="64" xmlns="http://www.w3.org/2000/svg">

 <g>
  <title>background</title>
  <rect fill="none" id="canvas_background" height="402" width="582" y="-1" x="-1"/>
 </g>
 <g>
  <title>Layer 1</title>
  <path fill="#b19463" id="svg_1" d="m38.299,27.533l-0.209,4.51l-4.219,-0.043l0,15.351l-6.191,0l0,-15.351l-3.175,0.086l-0.09,-4.553l3.009,0c0,-2.25 -0.536,-7.289 1.902,-9.115c3.443,-2.586 9.592,-0.883 9.592,-0.883l-0.773,4.711c0,0 -2.127,-0.396 -2.523,-0.396c-0.59,0 -1.75,0.238 -1.75,1.68l0,4.004l4.427,0l0,-0.001z" clip-rule="evenodd" fill-rule="evenodd"/>
  <g id="svg_2">
   <path fill="#b19463" id="svg_3" d="m32,64c-17.645,0 -32,-14.355 -32,-31.999c0,-17.646 14.355,-32.001 32,-32.001s32,14.355 32,32.001c0,17.644 -14.355,31.999 -32,31.999zm0,-63.234c-17.223,0 -31.234,14.011 -31.234,31.236c0,17.221 14.012,31.233 31.234,31.233c17.224,0 31.234,-14.012 31.234,-31.233c0,-17.225 -14.01,-31.236 -31.234,-31.236z"/>
  </g>
 </g>
</svg>