<?xml version="1.0" encoding="utf-8"?>
<!-- Generator: Adobe Illustrator 16.0.0, SVG Export Plug-In . SVG Version: 6.00 Build 0)  -->
<!DOCTYPE svg PUBLIC "-//W3C//DTD SVG 1.1//EN" "http://www.w3.org/Graphics/SVG/1.1/DTD/svg11.dtd">
<svg version="1.1" id="Слой_1" xmlns="http://www.w3.org/2000/svg" xmlns:xlink="http://www.w3.org/1999/xlink" x="0px" y="0px"
	 viewBox="17.67 101.196 390.286 420.618"
	 enable-background="new 17.67 101.196 390.286 420.618" xml:space="preserve">
<title>Asset 7</title>
<g id="Layer_2">
	<g id="Шар_1">
		<path fill="#CAD55B" d="M405.645,112.362c-4.744-7.531-13.281-11.8-22.152-11.076H41.36c-8.834-0.779-17.348,3.511-21.978,11.076
			c-3.188,7.894-1.864,16.894,3.461,23.536l155.751,224.974c2.009,3.368,3.195,7.163,3.461,11.075v65.59
			c0.709,19.25,8.186,37.635,21.113,51.916l27.862,27.861c2.527,2.797,6.097,4.424,9.864,4.5c3.895,0.01,7.51-2.027,9.518-5.365
			c1.35-2.43,2.008-5.182,1.904-7.959V373.332c0.23-3.95,1.354-7.797,3.287-11.248l147.445-224.974
			C408.483,129.998,409.485,120.446,405.645,112.362z"/>
		<path fill="#544782" d="M405.645,112.362c-4.744-7.531-13.281-11.8-22.152-11.076H41.36c-8.834-0.779-17.348,3.511-21.978,11.076
			c-3.188,7.894-1.864,16.894,3.461,23.536l155.751,224.974c2.009,3.368,3.195,7.163,3.461,11.075v65.59
			c0.709,19.25,8.186,37.635,21.113,51.916l27.862,27.861c2.527,2.797,6.097,4.424,9.864,4.5c3.895,0.01,7.51-2.027,9.518-5.365
			c1.35-2.43,2.008-5.182,1.904-7.959V373.332c0.23-3.95,1.354-7.797,3.287-11.248l147.445-224.974
			C408.483,129.998,409.485,120.446,405.645,112.362z M240.549,352.392c-3.849,6.326-5.995,13.539-6.23,20.939V496.72
			l-19.037-19.035c-9.579-10.738-15.25-24.398-16.094-38.766v-65.588c-0.257-7.446-2.53-14.684-6.576-20.939L68.011,171.548h291.081
			L240.549,352.392z M387.993,127.418l-17.305,25.786H55.897l-18.69-26.478c-2.596-3.807-2.596-5.884-2.596-6.23
			c0-0.346,1.904-1.731,6.403-1.731h342.478c4.154,0,6.23,1.039,6.576,1.904c0.348,0.865,0.348,3.115-1.902,6.576L387.993,127.418z"
			/>
	</g>
</g>
</svg>
