<?xml version="1.0" encoding="utf-8"?>
<!-- Generator: Adobe Illustrator 21.0.0, SVG Export Plug-In . SVG Version: 6.00 Build 0)  -->
<svg version="1.1" id="Layer_1" xmlns="http://www.w3.org/2000/svg" xmlns:xlink="http://www.w3.org/1999/xlink" x="0px" y="0px"
	 viewBox="0 0 22.6 24.3" style="enable-background:new 0 0 22.6 24.3;" xml:space="preserve">
<style type="text/css">
	.st0{fill:#544782;}
</style>
<title>Asset 3</title>
<g id="Layer_2">
	<g id="Шар_1">
		<path class="st0" d="M22.4,0.6C22.2,0.2,21.7,0,21.2,0H1.4c-0.5,0-1,0.2-1.3,0.6C-0.1,1.1,0,1.6,0.3,2l9,13
			c0.1,0.2,0.2,0.4,0.2,0.6v3.8c0,1.1,0.5,2.2,1.2,3l1.6,1.6c0.1,0.2,0.4,0.3,0.6,0.3c0.2,0,0.4-0.1,0.6-0.3
			c0.1-0.1,0.1-0.3,0.1-0.5v-7.8c0-0.2,0.1-0.5,0.2-0.6l8.5-13C22.6,1.7,22.7,1.1,22.4,0.6z M12.9,14.5c-0.2,0.4-0.3,0.8-0.4,1.2
			v7.1l-1.1-1.1c-0.6-0.6-0.9-1.4-0.9-2.2v-3.8c0-0.4-0.1-0.8-0.4-1.2L2.9,4.1h16.8L12.9,14.5z M21.4,1.5l-1,1.5H2.2L1.1,1.5
			C1,1.3,1,1.1,1,1.1S1.1,1,1.4,1h19.8c0.2,0,0.4,0.1,0.4,0.1S21.6,1.3,21.4,1.5L21.4,1.5z"/>
	</g>
</g>
</svg>
