<svg width="64" height="64" xmlns="http://www.w3.org/2000/svg">

 <g>
  <title>background</title>
  <rect fill="none" id="canvas_background" height="402" width="582" y="-1" x="-1"/>
 </g>
 <g>
  <title>Layer 1</title>
  <path fill="#ffffff" id="svg_1" d="m34.006,12c9.941,0 18,8.061 18,18.002c0,0.551 0.447,0.998 1,0.998c0.552,0 1,-0.447 1,-0.998c0,-11.048 -8.954,-20.002 -20,-20.002c-0.553,0 -1,0.448 -1,1c0,0.553 0.447,1 1,1m0,10c4.418,0 8,3.582 8,8.002c0,0.551 0.447,0.998 1,0.998c0.552,0 1,-0.447 1,-0.998c0,-5.523 -4.477,-10.002 -10,-10.002c-0.553,0 -1,0.447 -1,1s0.447,1 1,1m0,10c1.104,0 2,-0.896 2,-1.998c0,-1.105 -0.896,-2.002 -2,-2.002c-1.105,0 -2,0.896 -2,2.002c0,1.102 0.894,1.998 2,1.998m19.972,12.984c0,-0.828 -0.336,-1.578 -0.879,-2.121c-0.159,-0.16 -0.34,-0.295 -0.532,-0.415l-8.467,-6.585c-0.544,-0.543 -1.293,-0.879 -2.122,-0.879c-0.678,0 -1.297,0.234 -1.797,0.615l-2.362,2.381l-0.007,-0.006c-0.366,0.41 -0.892,0.672 -1.483,0.672c-0.678,0 -1.272,-0.338 -1.635,-0.852c-0.013,0.02 -0.029,0.038 -0.043,0.059c-3.268,-2.371 -6.164,-5.225 -8.531,-8.497c0.022,-0.015 0.043,-0.033 0.066,-0.048c-0.521,-0.365 -0.863,-0.967 -0.863,-1.652c0,-0.611 0.278,-1.154 0.709,-1.523l-0.002,-0.003l2.351,-2.333c0.382,-0.499 0.614,-1.117 0.614,-1.797c0,-0.828 -0.336,-1.578 -0.879,-2.121l-6.586,-8.467c-0.119,-0.191 -0.254,-0.373 -0.414,-0.533c-0.544,-0.543 -1.294,-0.879 -2.122,-0.879c-4,0 -9,4.701 -9,10.5c0,1.606 0.371,3.123 1.016,4.484l-0.033,0.033c6.018,11.982 16.018,21.982 28,28l0.033,-0.033c1.361,0.646 2.877,1.016 4.484,1.016c5.799,0 10.5,-5 10.5,-9c0,-0.005 -0.002,-0.01 -0.002,-0.016l-0.014,0zm-10.484,7.016c-1.254,0 -2.476,-0.277 -3.629,-0.822c-0.107,-0.051 -0.22,-0.092 -0.332,-0.121c-11.369,-5.799 -20.789,-15.217 -26.59,-26.584c-0.031,-0.116 -0.072,-0.232 -0.125,-0.343c-0.548,-1.155 -0.824,-2.376 -0.824,-3.63c0,-4.85 4.246,-8.5 7,-8.5c0.359,0 0.598,0.184 0.707,0.294c0.024,0.025 0.069,0.077 0.135,0.184c0.035,0.056 0.074,0.11 0.115,0.163l6.584,8.467c0.051,0.066 0.106,0.127 0.166,0.187c0.108,0.108 0.293,0.347 0.293,0.706c0,0.178 -0.049,0.344 -0.146,0.498l-2.229,2.211c-0.01,0.012 -0.02,0.02 -0.029,0.031c-0.809,0.76 -1.268,1.813 -1.268,2.916c0,1.033 0.4,2.018 1.098,2.756c0.025,0.039 0.051,0.078 0.078,0.116c2.459,3.397 5.479,6.405 8.979,8.944c0.027,0.02 0.055,0.039 0.082,0.057c0.739,0.709 1.73,1.117 2.77,1.117c1.043,0 2.051,-0.418 2.797,-1.152c0.039,-0.032 0.076,-0.068 0.113,-0.105l2.239,-2.256c0.157,-0.098 0.325,-0.148 0.5,-0.148c0.36,0 0.599,0.184 0.707,0.293c0.06,0.059 0.121,0.113 0.187,0.166l8.467,6.584c0.054,0.042 0.111,0.081 0.169,0.117c0.106,0.066 0.153,0.109 0.178,0.133c0.11,0.109 0.293,0.347 0.293,0.707c0,0.068 0.004,0.135 0.011,0.201c-0.158,2.752 -3.754,6.813 -8.496,6.813"/>
 </g>
</svg>