<?xml version="1.0" encoding="utf-8"?>
<!-- Generator: Adobe Illustrator 16.0.4, SVG Export Plug-In . SVG Version: 6.00 Build 0)  -->
<!DOCTYPE svg PUBLIC "-//W3C//DTD SVG 1.1//EN" "http://www.w3.org/Graphics/SVG/1.1/DTD/svg11.dtd">
<svg version="1.1" id="Шар_1" xmlns="http://www.w3.org/2000/svg" xmlns:xlink="http://www.w3.org/1999/xlink" x="0px" y="0px"
	 width="56.693px" height="28.346px" viewBox="0 0 56.693 28.346" enable-background="new 0 0 56.693 28.346" xml:space="preserve">
<circle fill="#CAD55C" cx="42.485" cy="14.822" r="10.417"/>
<path fill="#544883" d="M49.486,10.623h-2.67c0.275-0.602,0.293-1.274-0.032-1.837c-0.58-1.004-2.001-1.271-3.173-0.594
	c-0.451,0.261-0.787,0.626-1.009,1.031c-0.012-0.004-0.021-0.012-0.032-0.016c-0.007-0.002-0.015-0.001-0.022-0.002
	c-0.019-0.004-0.039-0.004-0.059-0.004c-0.017,0-0.033,0-0.05,0.003c-0.017,0.002-0.033-0.001-0.051,0.004
	c-0.012,0.003-0.02,0.011-0.031,0.016c-0.224-0.405-0.559-0.771-1.01-1.031c-1.172-0.677-2.592-0.411-3.173,0.593
	c-0.324,0.562-0.307,1.235-0.032,1.837h-2.659c-0.386,0-0.7,0.314-0.7,0.702v1.399c0,0.387,0.314,0.7,0.7,0.7v7.701
	c0,0.387,0.314,0.701,0.7,0.701h12.603c0.386,0,0.699-0.313,0.699-0.701v-7.701c0.386,0,0.701-0.313,0.701-0.7v-1.399
	C50.187,10.937,49.872,10.623,49.486,10.623 M38.782,9.136c0.386-0.669,1.379-0.821,2.216-0.337
	c0.536,0.309,0.868,0.802,0.942,1.293c-0.065,0.182-0.136,0.359-0.211,0.531H38.94C38.607,10.151,38.522,9.585,38.782,9.136
	 M35.484,12.723v-1.399h5.907c-0.284,0.531-0.596,1-0.898,1.399H35.484z M42.135,21.125h-5.952v-3.5h5.952V21.125z M42.135,16.924
	h-5.952v-3.501h3.735c-0.456,0.515-0.794,0.803-0.804,0.81c-0.148,0.123-0.168,0.345-0.044,0.493
	c0.048,0.058,0.111,0.096,0.178,0.114c0.106,0.029,0.224,0.006,0.314-0.068c0.048-0.04,0.613-0.521,1.279-1.349h1.293V16.924z
	 M42.135,12.723h-0.773c0.268-0.388,0.531-0.826,0.773-1.309V12.723z M43.962,8.798c0.837-0.484,1.83-0.333,2.216,0.337
	c0.259,0.45,0.174,1.016-0.16,1.487H43.23c-0.075-0.172-0.146-0.349-0.211-0.532C43.093,9.601,43.426,9.107,43.962,8.798
	 M42.835,11.436c0.238,0.475,0.499,0.905,0.763,1.288h-0.763V11.436z M48.787,21.125h-5.951v-3.5h5.951V21.125z M48.787,16.924
	h-5.951v-3.501h1.282c0.666,0.828,1.231,1.309,1.278,1.349c0.091,0.075,0.208,0.097,0.315,0.068
	c0.067-0.018,0.129-0.056,0.178-0.114c0.123-0.148,0.104-0.37-0.045-0.493c-0.008-0.007-0.347-0.295-0.804-0.81h3.747V16.924z
	 M49.486,12.723h-5.019c-0.302-0.399-0.615-0.868-0.899-1.399h5.918V12.723z"/>
<path fill="#B19563" d="M22.909,10.623h-2.67c0.275-0.602,0.293-1.274-0.032-1.837c-0.58-1.004-2.001-1.271-3.173-0.594
	c-0.451,0.261-0.787,0.626-1.009,1.031c-0.012-0.004-0.021-0.012-0.032-0.016c-0.007-0.002-0.015-0.001-0.022-0.002
	c-0.019-0.004-0.039-0.004-0.059-0.004c-0.017,0-0.033,0-0.05,0.003c-0.017,0.002-0.033-0.001-0.051,0.004
	c-0.012,0.003-0.02,0.011-0.031,0.016c-0.224-0.405-0.559-0.771-1.01-1.031c-1.172-0.677-2.592-0.411-3.173,0.593
	c-0.324,0.562-0.307,1.235-0.032,1.837H8.907c-0.386,0-0.7,0.314-0.7,0.702v1.399c0,0.387,0.314,0.7,0.7,0.7v7.701
	c0,0.387,0.314,0.701,0.7,0.701H22.21c0.386,0,0.699-0.313,0.699-0.701v-7.701c0.386,0,0.701-0.313,0.701-0.7v-1.399
	C23.61,10.937,23.295,10.623,22.909,10.623 M12.205,9.136c0.386-0.669,1.379-0.821,2.216-0.337c0.536,0.309,0.868,0.802,0.942,1.293
	c-0.065,0.182-0.136,0.359-0.211,0.531h-2.789C12.03,10.151,11.945,9.585,12.205,9.136 M8.907,12.723v-1.399h5.907
	c-0.284,0.531-0.596,1-0.898,1.399H8.907z M15.559,21.125H9.607v-3.5h5.952V21.125z M15.559,16.924H9.607v-3.501h3.735
	c-0.456,0.515-0.794,0.803-0.804,0.81c-0.148,0.123-0.168,0.345-0.044,0.493c0.048,0.058,0.111,0.096,0.178,0.114
	c0.106,0.029,0.224,0.006,0.314-0.068c0.048-0.04,0.613-0.521,1.279-1.349h1.293V16.924z M15.559,12.723h-0.773
	c0.268-0.388,0.531-0.826,0.773-1.309V12.723z M17.385,8.798c0.837-0.484,1.83-0.333,2.216,0.337c0.259,0.45,0.174,1.016-0.16,1.487
	h-2.788c-0.075-0.172-0.146-0.349-0.211-0.532C16.517,9.601,16.85,9.107,17.385,8.798 M16.259,11.436
	c0.238,0.475,0.499,0.905,0.763,1.288h-0.763V11.436z M22.21,21.125h-5.951v-3.5h5.951V21.125z M22.21,16.924h-5.951v-3.501h1.282
	c0.666,0.828,1.231,1.309,1.278,1.349c0.091,0.075,0.208,0.097,0.315,0.068c0.067-0.018,0.129-0.056,0.178-0.114
	c0.123-0.148,0.104-0.37-0.045-0.493c-0.008-0.007-0.347-0.295-0.804-0.81h3.747V16.924z M22.909,12.723h-5.019
	c-0.302-0.399-0.615-0.868-0.899-1.399h5.918V12.723z"/>
</svg>
