<svg width="30" height="30" xmlns="http://www.w3.org/2000/svg">

 <g>
  <title>background</title>
  <rect fill="none" id="canvas_background" height="402" width="582" y="-1" x="-1"/>
 </g>
 <g>
  <title>Layer 1</title>
  <g id="svg_1">
   <path id="svg_2" d="m6.828,16.386c1.647,-0.021 2.993,-1.402 2.973,-3.049c-0.02,-1.676 -1.349,-2.985 -3.026,-2.979c-1.677,0.006 -3.013,1.331 -3.016,2.991c-0.001,1.687 1.385,3.059 3.069,3.037zm-0.106,-4.295c0.728,-0.032 1.326,0.529 1.34,1.254c0.013,0.669 -0.553,1.272 -1.224,1.303c-0.695,0.032 -1.337,-0.57 -1.349,-1.266c-0.011,-0.666 0.558,-1.262 1.233,-1.291z" fill="#b19463"/>
   <path id="svg_3" d="m24.301,7.232c-3.638,-0.004 -7.276,-0.001 -10.914,-0.001c-3.664,0 -7.329,-0.002 -10.993,0.001c-1.532,0.002 -2.332,0.799 -2.333,2.338c-0.005,5.193 -0.005,10.387 0,15.58c0.001,1.533 0.802,2.334 2.341,2.335c7.302,0.005 14.605,0.004 21.907,0c1.597,-0.001 2.367,-0.777 2.368,-2.382c0.004,-5.167 0.004,-10.334 -0.001,-15.501c-0.002,-1.608 -0.767,-2.368 -2.375,-2.37zm-21.687,1.712c7.193,0.016 14.386,0.014 21.578,0.002c0.523,-0.001 0.758,0.132 0.755,0.708c-0.019,3.583 -0.009,7.166 -0.01,10.75c0,0.12 -0.024,0.239 -0.054,0.516c-1.146,-1.24 -2.192,-2.371 -3.237,-3.504c-0.643,-0.697 -1.28,-1.4 -1.927,-2.093c-0.708,-0.76 -1.117,-0.761 -1.817,0.001c-1.977,2.155 -3.95,4.313 -5.925,6.47c-0.194,0.212 -0.393,0.419 -0.637,0.678c-1.304,-1.273 -2.583,-2.521 -3.86,-3.769c-0.908,-0.887 -1.151,-0.851 -2.067,0.018c-1.171,1.11 -2.394,2.164 -3.597,3.239c-0.006,-0.04 -0.016,-0.081 -0.016,-0.121c-0.004,-4.031 0.01,-8.062 -0.016,-12.093c-0.004,-0.646 0.227,-0.803 0.83,-0.802zm22.345,16.065c-0.037,0.599 -0.235,0.753 -0.801,0.75c-3.769,-0.019 -7.538,-0.01 -11.307,-0.01c-3.374,0 -6.747,0.007 -10.121,-0.012c-0.304,-0.002 -0.607,-0.167 -0.91,-0.257c0.146,-0.313 0.224,-0.688 0.448,-0.929c1.363,-1.464 2.758,-2.898 4.389,-4.598c1.284,1.388 2.483,2.722 3.725,4.013c0.862,0.897 1.162,0.872 1.983,-0.022c1.924,-2.097 3.844,-4.199 5.765,-6.298c0.212,-0.232 0.428,-0.46 0.686,-0.736c1.759,1.911 3.448,3.826 5.234,5.645c0.714,0.729 0.97,1.472 0.909,2.454z" fill="#b19463"/>
   <path id="svg_4" d="m29.92,21.862c0.001,-5.057 0.002,-10.114 0.001,-15.171c0,-1.776 -0.723,-2.502 -2.485,-2.502c-3.556,0 -7.111,0 -10.667,0.001c-3.688,0.001 -7.376,0.006 -11.063,-0.004c-0.621,-0.002 -1.16,0.122 -1.161,0.851c-0.001,0.724 0.538,0.884 1.157,0.867c0.237,-0.007 0.474,0 0.711,0c6.927,0 13.854,-0.001 20.781,0c1.003,0 1.007,0.007 1.007,1.016c0,4.952 -0.001,9.903 -0.001,14.855c0,0.237 -0.08,0.527 0.027,0.699c0.185,0.299 0.495,0.737 0.739,0.728c0.316,-0.011 0.665,-0.363 0.909,-0.647c0.12,-0.141 0.045,-0.456 0.045,-0.693z" fill="#b19463"/>
  </g>
 </g>
</svg>