<svg width="64" height="64" xmlns="http://www.w3.org/2000/svg">

 <g>
  <title>background</title>
  <rect fill="none" id="canvas_background" height="402" width="582" y="-1" x="-1"/>
 </g>
 <g>
  <title>Layer 1</title>
  <g fill="none" id="svg_1">
   <path fill="#b19463" id="svg_2" d="m32,64c-17.645,0 -32,-14.355 -32,-32c0,-17.646 14.355,-32 32,-32s32,14.354 32,32c0,17.645 -14.355,32 -32,32zm0,-63.235c-17.223,0 -31.234,14.012 -31.234,31.235s14.011,31.234 31.234,31.234c17.224,0 31.234,-14.012 31.234,-31.234s-14.01,-31.235 -31.234,-31.235z"/>
  </g>
  <path fill="#b19463" id="svg_3" d="m42.376,22.744l0,3.082c0,0.569 -0.456,1.031 -1.016,1.031l-3.06,0c-0.56,0 -1.016,-0.462 -1.016,-1.031l0,-3.082c0,-0.57 0.456,-1.027 1.016,-1.027l3.061,0c0.559,0 1.015,0.457 1.015,1.027zm-2.036,9.256c0,4.545 -3.651,8.23 -8.151,8.23c-4.501,0 -8.149,-3.686 -8.149,-8.23c0,-0.713 0.101,-1.401 0.268,-2.061l-2.308,0l0,11.316c0,0.57 0.456,1.027 1.02,1.027l18.34,0c0.56,0 1.016,-0.457 1.016,-1.027l0,-11.316l-2.304,0c0.168,0.66 0.268,1.348 0.268,2.061zm5.093,-10.283c0,-1.703 -1.366,-3.086 -3.057,-3.086l-20.376,0c-1.688,0 -3.057,1.383 -3.057,3.086l0,20.566c0,1.707 1.369,3.086 3.057,3.086l20.376,0c1.69,0 3.057,-1.379 3.057,-3.086l0,-20.566zm-13.245,15.429c2.813,0 5.096,-2.305 5.096,-5.146s-2.282,-5.143 -5.096,-5.143c-2.814,0 -5.093,2.301 -5.093,5.143s2.279,5.146 5.093,5.146z" clip-rule="evenodd" fill-rule="evenodd"/>
 </g>
</svg>