<svg xmlns="http://www.w3.org/2000/svg" viewBox="0 0 31.93 29.03"><defs><style>.cls-1{fill:#cad55b;}</style></defs><title>Asset 3</title><g id="Layer_2" data-name="Layer 2"><g id="Шар_1" data-name="Шар 1"><path class="cls-1" d="M8.71,10.88a2.18,2.18,0,1,0,2.18,2.18,2.18,2.18,0,0,0-2.18-2.18m7.26,0a2.18,2.18,0,1,0,2.18,2.18A2.18,2.18,0,0,0,16,10.88M16,0C7.15,0,0,5.85,0,13.06a11.92,11.92,0,0,0,4.52,9.09L2.9,29l8.58-3.43a19.35,19.35,0,0,0,4.48.53c8.82,0,16-5.85,16-13.06S24.78,0,16,0m0,24.67a17.83,17.83,0,0,1-4.14-.49,1.53,1.53,0,0,0-.34,0,1.46,1.46,0,0,0-.54.1l-6,2.4,1-4.15A1.45,1.45,0,0,0,5.45,21a10.46,10.46,0,0,1-4-8C1.45,6.66,8,1.45,16,1.45S30.48,6.66,30.48,13.06,24,24.67,16,24.67m7.26-13.79a2.18,2.18,0,1,0,2.18,2.18,2.18,2.18,0,0,0-2.18-2.18"/></g></g></svg>