<svg width='200' height='200' fill="#818181" xmlns="http://www.w3.org/2000/svg" xmlns:xlink="http://www.w3.org/1999/xlink" version="1.1" x="0px" y="0px" viewBox="0 0 100 100" style="enable-background:new 0 0 100 100;" xml:space="preserve"><path d="M92.5,60h-55c-1.4,0-2.5,1.1-2.5,2.5s1.1,2.5,2.5,2.5h55c1.4,0,2.5-1.1,2.5-2.5S93.9,60,92.5,60z"/><path d="M92.5,80h-55c-1.4,0-2.5,1.1-2.5,2.5s1.1,2.5,2.5,2.5h55c1.4,0,2.5-1.1,2.5-2.5S93.9,80,92.5,80z"/><path d="M92.5,40h-55c-1.4,0-2.5,1.1-2.5,2.5s1.1,2.5,2.5,2.5h55c1.4,0,2.5-1.1,2.5-2.5S93.9,40,92.5,40z"/><path d="M37.5,25h55c1.4,0,2.5-1.1,2.5-2.5S93.9,20,92.5,20h-55c-1.4,0-2.5,1.1-2.5,2.5S36.1,25,37.5,25z"/><path d="M9.3,70.7c-1-1-2.6-1-3.5,0c-1,1-1,2.6,0,3.5l10,10c0.5,0.5,1.1,0.7,1.8,0.7s1.3-0.2,1.8-0.7l10-10c1-1,1-2.6,0-3.5  c-1-1-2.6-1-3.5,0L20,76.5V28.5l5.7,5.7c0.5,0.5,1.1,0.7,1.8,0.7s1.3-0.2,1.8-0.7c1-1,1-2.6,0-3.5l-10-10c-1-1-2.6-1-3.5,0l-10,10  c-1,1-1,2.6,0,3.5c1,1,2.6,1,3.5,0l5.7-5.7v47.9L9.3,70.7z"/></svg>