<svg xmlns="http://www.w3.org/2000/svg" viewBox="0 0 167.93 85.54"><defs><style>.cls-1,.cls-7{font-size:7.62px;}.cls-1,.cls-5,.cls-6,.cls-7{fill:#fff;}.cls-1{font-family:MullerMedium, Muller;letter-spacing:0.4em;}.cls-2{letter-spacing:0.37em;}.cls-3{letter-spacing:0.38em;}.cls-4{letter-spacing:0.4em;}.cls-6{stroke:#814c83;stroke-linecap:round;stroke-linejoin:round;stroke-width:0;}.cls-7{font-family:MullerLight, Muller;letter-spacing:1.37em;}.cls-8{letter-spacing:1.36em;}.cls-9{letter-spacing:1.37em;}</style></defs><title>Asset 3</title><g id="Layer_2" data-name="Layer 2"><g id="Шар_1" data-name="Шар 1"><text class="cls-1" transform="translate(58.44 68.02)">E<tspan class="cls-2" x="7.78" y="0">X</tspan><tspan x="15.61" y="0">C</tspan><tspan class="cls-3" x="23.65" y="0">L</tspan><tspan class="cls-4" x="30.98" y="0">USIVE</tspan></text><path class="cls-5" d="M31.7,56h0C31.63,56,31.6,56,31.7,56Z"/><path class="cls-5" d="M31.92,56.1l.1,0-.3-.08h0l.06,0Z"/><polygon class="cls-5" points="31.71 56.04 31.71 56.04 31.7 56.04 31.71 56.04"/><path class="cls-5" d="M115,32.63l-.22-1.06C114.21,32.26,114.62,32.45,115,32.63Z"/><path class="cls-5" d="M115,32.63a.64.64,0,0,0,0,.09l0,0,0,0Z"/><path class="cls-5" d="M129.82,17.52h0l-.06,0,.06,0-.06,0c0,.38,0,.77,0,1.16l.06,0v0l1.21-.72Z"/><path class="cls-5" d="M43.93,65.93c-.3,0-1,.16-2.09.37l-.58.58-.62-.19-.62.61-.8-.24-.46.61-1-.39-.87.7.28-.64-1.46.37a4.4,4.4,0,0,1-2.44.75H33l-.71.21-.57.57-.65-.2-.66.2-.42.56-.58-.23A90.24,90.24,0,0,0,5.61,81.2a2.89,2.89,0,0,1-.9.3h0a2,2,0,0,1,.22-.67l.75-1.12a43.61,43.61,0,0,1,2.75-3.81c3.73-4.45,7.46-8.87,11-13,2.51-.64,4.82-1.33,6.82-2,1.14-.38,2.17-.76,3.09-1.14.46-.21.89-.4,1.29-.59l.57-.31a5.15,5.15,0,0,0,.51-.31,6.56,6.56,0,0,0,.84-.64l.18-.16a1.31,1.31,0,0,0,.16-.16l.26-.32a1,1,0,0,0,.11-.16l.09-.15.07-.13.06-.15,0-.12,0,0,0-.08c0-.09,0-.14,0-.14l-.8-.07h-.13l-.19-.92s-.76.16-2.11.4-3.28.56-5.62,1h0l.41-.48C27,53.93,29,51.64,30.93,49.42c2.4-2.79,4.9-5.67,7.32-8.54a20.69,20.69,0,0,0,2.47-3.75,2.52,2.52,0,0,0-1-3.78,5.33,5.33,0,0,0-3-.73,18.46,18.46,0,0,0-4.58,1.11c-3.44,1.3-18.09,7-18.93,7.45a2,2,0,0,0-1.11,3,2.11,2.11,0,0,0,1.84,1.45,3,3,0,0,0,1.28-.34A15.9,15.9,0,0,0,17,44.2l.41-.27C23.53,40,27.31,39.16,34,37a14.4,14.4,0,0,1,1.44-.36l.44-.1h0l-.23.44a11.54,11.54,0,0,1-.82,1.41c-.87,1.21-1.9,2.62-3,4l-.6.71C27.18,47.9,23,52.88,18.78,57.76c-.69.14-1.38.29-2.08.46a35.57,35.57,0,0,0-4.49,1.33,13,13,0,0,0-2.27,1.11c-.19.12-.37.26-.56.39l-.14.12-.21.2-.22.21c-.07.07-.11.15-.17.22l-.33.44c-.06.15-.11.3-.17.45a.8.8,0,0,0-.06.44,1.32,1.32,0,0,0,.13.45,1.38,1.38,0,0,0,.27.36,1.82,1.82,0,0,0,.38.25,2.48,2.48,0,0,0,.49.17,4.36,4.36,0,0,0,.56.08c.2,0,.37,0,.57,0h.33l.63,0c.69-.06,1.36-.15,2-.25-.2.21-.4.43-.61.63a121.2,121.2,0,0,0-8.39,9.5l-.91,1.11a30.7,30.7,0,0,0-3.2,5c-.66,1.24-.35,2.48.93,3.68A5,5,0,0,0,4.7,85.54,5.09,5.09,0,0,0,7,85c1.48-.73,8-4.56,19.08-10,.58-.8,1.16-1,1.67-.81q2.68-1.29,5.69-2.69l.24-.54,1.12-.09,2.85-1.29.2-.44,1-.08q2.68-1.2,5.56-2.44l.75-.66-.79-.06-.57.46Zm-20.61-9h0Zm-.78,1.6h0Zm-3.66.92h0ZM9.2,62.55h0Zm-.13.7v0Zm6.19-.66h0Zm-5.88.25v0Zm.2.33,0,0Zm2.7.56h0Zm-1.93.12h0ZM18,62h0Zm13.73-6h0Zm0,0h0C31.6,56,31.63,56,31.7,56Zm0,0,.3.08-.1,0-.12,0-.06,0ZM16.17,58.42l-.06,0Z"/><path class="cls-5" d="M148.31,8a8.23,8.23,0,0,1-2.58.18,3.31,3.31,0,0,1-.69,1.2,2.26,2.26,0,0,1-1.61.52c-1.46-.28-1.54-.3-2,1.07-.1.3-.24.6-.38.93l-1-.46c-1.31,2.22-5.31,4.37-7.5,3.92,0,.5.07.94.12,1.54-1-.19-2.11-.45-2.85.58l1.19.55-1.21.72-.62,1c-1.86-.89-1.86-.88-3.31.45a4,4,0,0,1-.8.65c-3.44,1.77-6.3,4.33-9.23,6.78-1.33,1.11-2.55,2.35-3.82,3.53l.83,0-.47,1.19-.44-.08v-1c-.93.48-1.58,1.48-3,1.71.24-1.89.37-3.55.71-5.17a3.75,3.75,0,0,0-.77-2.93,1.81,1.81,0,0,0-2.16-.88c-1,.3-.9,1.12-.85,1.89a23.38,23.38,0,0,1-.68,6.64,24.58,24.58,0,0,0-.47,4.57,2.65,2.65,0,0,0,1.5,2.56,2.61,2.61,0,0,0,3.17-.87l5.67-6.11,0,0a.64.64,0,0,1,0-.09c-.4-.19-.81-.38-.22-1.06l.22,1.06.07,0,0,0c.54-.42,1.09-.82,1.61-1.26l7.13-6.18c2.58-2.23,5.64-3.87,7.88-6.52a1.88,1.88,0,0,1,.7-.38,8.3,8.3,0,0,0,1.83-.83c1.44-1.15,3.54-1.44,4.4-3.35a25.54,25.54,0,0,0,5.94-3c2.45-1.39,5-2.6,7.91-4.1l-2.13-.86A9,9,0,0,1,148.31,8Z"/><path class="cls-5" d="M129.82,17.52l-.07,0,.06,0Z"/><path class="cls-5" d="M91.7,31.72c-2.28,1.79-3.34,4.23-4.3,6.76a5,5,0,0,0,0,3.7,3.37,3.37,0,0,0,3,2.36,9.86,9.86,0,0,0,2.86-1.08c2.49-2,4.9-4.12,7.23-6.32a2.57,2.57,0,0,0,.64-3.09C99.6,31,95.63,28.63,91.7,31.72Zm5.71,4.23c-1.72,1.4-3.49,2.74-5.26,4.08a3.58,3.58,0,0,1-.95.34c.14-1.54,2.83-6,3.91-6.65a2.22,2.22,0,0,1,.56-.26,1.76,1.76,0,0,1,2.08.48A1.34,1.34,0,0,1,97.41,35.95Z"/><path class="cls-5" d="M61.84,43.81A18.3,18.3,0,0,0,60,41.17c-1.13-1.11-2.15-.79-2.63.73-1.15,3.59-2.25,7.2-3.44,10.78a3,3,0,0,0,.7,3.25c2.18.11,2.15.08,3.29-1.49,3.33-4.59,6.74-9.1,11.33-12.55a7.3,7.3,0,0,0,.66-.52c1.17-1.11,1.15-1.51-.18-2.91C66.59,39.53,64.29,41.9,61.84,43.81Z"/><path class="cls-5" d="M83.17,34.51c-1.07.47-2.08,1.1-3.26,1.73-.46-.52-.85-1-1.28-1.43-1.1-1.14-2.07-1-2.76.49-.32.69-.5,1.45-.8,2.16-1.25,3-2.58,6.05-3.78,9.12-1,2.63-.06,3.81,3,3.57,1.74-6.8,6.59-11,12.71-13.92C85.94,34,85.17,33.64,83.17,34.51Z"/><path class="cls-5" d="M48,48.64a3.37,3.37,0,0,0-1.83-.23c-2.61.51-4.93,1.42-5.46,4.51-.18,1-.6,2-.75,3.05A5,5,0,0,0,40.15,58c.34,1.19,1.29,1.81,2.95,1.85a17,17,0,0,0,2-.69c2.41-1.12,4.12-3.1,5.89-5a1.81,1.81,0,0,0,.31-2.15A6.37,6.37,0,0,0,48,48.64Zm-3.67,6.5a5.63,5.63,0,0,1,3.15-3.34A4.69,4.69,0,0,1,44.35,55.14Z"/><path class="cls-5" d="M167.78,0c-.9.3-1.81.56-2.69.9S162.93,2.23,162,2a3.07,3.07,0,0,0-2.93,1,4.75,4.75,0,0,1-1.31.62,14.84,14.84,0,0,1-2.36.83,14.52,14.52,0,0,1-2.27.14V6.77L167.93.43C167.88.29,167.83.14,167.78,0Z"/><path class="cls-5" d="M128.88,18.22l.87.52c0-.39,0-.77,0-1.16Z"/><path class="cls-5" d="M129.75,18.74v.09l0,0v0Z"/><path class="cls-5" d="M129.75,17.49v.09l.06,0Z"/><path class="cls-6" d="M23.32,56.93h0"/><text class="cls-7" transform="translate(58.04 76.59)">C<tspan class="cls-8" x="15.48" y="0">A</tspan><tspan class="cls-9" x="31.3" y="0">SES</tspan></text></g></g></svg>