<svg xmlns="http://www.w3.org/2000/svg" viewBox="0 0 21 21"><defs><style>.cls-1{fill:#b19463;stroke:#b19463;stroke-miterlimit:10;stroke-width:2px;}.cls-2{fill:#fff;}</style></defs><title>Asset 8</title><g id="Layer_2" data-name="Layer 2"><g id="Шар_1" data-name="Шар 1"><path class="cls-1" d="M20,16.11h0a1.29,1.29,0,0,0-.38-.92,1.25,1.25,0,0,0-.23-.18l-3.66-2.84A1.28,1.28,0,0,0,14,12.05l-1,1h0A.86.86,0,0,1,11.67,13l0,0A16.48,16.48,0,0,1,8,9.36l0,0A.86.86,0,0,1,7.93,8h0l1-1a1.27,1.27,0,0,0,.27-.78,1.29,1.29,0,0,0-.38-.92L6,1.61a1.31,1.31,0,0,0-.18-.23A1.29,1.29,0,0,0,4.89,1C3.16,1,1,3,1,5.53a4.51,4.51,0,0,0,.44,1.94h0A27.44,27.44,0,0,0,13.51,19.58h0a4.52,4.52,0,0,0,1.94.44C18,20,20,17.84,20,16.11h0"/><path class="cls-2" d="M20,16.11h0a1.29,1.29,0,0,0-.38-.91,1.25,1.25,0,0,0-.23-.18l-3.66-2.84A1.28,1.28,0,0,0,14,12.06l-1,1h0A.86.86,0,0,1,11.67,13l0,0A16.48,16.48,0,0,1,8,9.36l0,0A.86.86,0,0,1,7.93,8h0l1-1a1.27,1.27,0,0,0,.27-.78,1.29,1.29,0,0,0-.38-.92L6,1.61a1.31,1.31,0,0,0-.18-.23A1.29,1.29,0,0,0,4.89,1C3.16,1,1,3,1,5.53a4.51,4.51,0,0,0,.44,1.94h0A27.44,27.44,0,0,0,13.51,19.58h0a4.52,4.52,0,0,0,1.94.44C18,20,20,17.84,20,16.11h0m-4.53,3a3.64,3.64,0,0,1-1.57-.36l-.14-.05A26.48,26.48,0,0,1,2.27,7.25a.84.84,0,0,0-.06-.15,3.65,3.65,0,0,1-.36-1.57c0-2.09,1.83-3.67,3-3.67a.43.43,0,0,1,.3.13l.06.08,0,.07L8.14,5.8l.07.08a.43.43,0,0,1,.13.3.41.41,0,0,1-.06.21l-1,1h0a1.73,1.73,0,0,0-.07,2.45l0,.05a17.3,17.3,0,0,0,3.88,3.86l0,0a1.72,1.72,0,0,0,2.41,0l0,0,1-1a.4.4,0,0,1,.21-.06.43.43,0,0,1,.31.13l.08.07,3.66,2.84.07.05.08.06a.43.43,0,0,1,.12.3.65.65,0,0,0,0,.09,3.77,3.77,0,0,1-3.67,2.94"/></g></g></svg>