<svg xmlns="http://www.w3.org/2000/svg" viewBox="0 0 19 19"><defs><style>.cls-1{fill:#544782;}</style></defs><title>Asset 3</title><g id="Layer_2" data-name="Layer 2"><g id="Шар_1" data-name="Шар 1"><path class="cls-1" d="M19,15.11h0a1.29,1.29,0,0,0-.38-.92,1.24,1.24,0,0,0-.23-.18l-3.66-2.84A1.28,1.28,0,0,0,13,11.05l-1,1h0A.86.86,0,0,1,10.67,12l0,0A16.48,16.48,0,0,1,7,8.36l0,0A.86.86,0,0,1,6.93,7h0l1-1a1.27,1.27,0,0,0,.27-.78,1.29,1.29,0,0,0-.38-.92L5,.61A1.32,1.32,0,0,0,4.8.38,1.29,1.29,0,0,0,3.89,0C2.16,0,0,2,0,4.53A4.51,4.51,0,0,0,.44,6.47h0A27.44,27.44,0,0,0,12.51,18.58h0a4.52,4.52,0,0,0,1.94.44C17,19,19,16.84,19,15.11h0m-4.53,3a3.64,3.64,0,0,1-1.57-.36l-.14-.05A26.48,26.48,0,0,1,1.27,6.25a.85.85,0,0,0-.06-.15A3.65,3.65,0,0,1,.86,4.53C.86,2.44,2.7.86,3.89.86a.43.43,0,0,1,.3.13l.06.08,0,.07L7.14,4.8l.07.08a.43.43,0,0,1,.13.3.41.41,0,0,1-.06.21l-1,1h0a1.73,1.73,0,0,0-.07,2.45l0,.05a17.31,17.31,0,0,0,3.88,3.86l0,0a1.72,1.72,0,0,0,2.41,0l0,0,1-1a.4.4,0,0,1,.21-.06.43.43,0,0,1,.31.13l.08.07,3.66,2.84.07.05.08.06a.43.43,0,0,1,.13.3.65.65,0,0,0,0,.09,3.77,3.77,0,0,1-3.67,2.94"/></g></g></svg>