<svg xmlns="http://www.w3.org/2000/svg" viewBox="0 0 20.5 20.5"><defs><style>.cls-1{fill:#b19463;}</style></defs><title>Asset 1</title><g id="Layer_2" data-name="Layer 2"><g id="Шар_1" data-name="Шар 1"><path class="cls-1" d="M10.25,0A10.25,10.25,0,1,0,20.5,10.25,10.25,10.25,0,0,0,10.25,0m0,19.57a9.32,9.32,0,1,1,9.32-9.32,9.32,9.32,0,0,1-9.32,9.32m-.59-4.66H11V13.36H9.66Zm2.67-8.68a2.68,2.68,0,0,0-.87-.48,3.37,3.37,0,0,0-1-.16,3.51,3.51,0,0,0-1.28.22,2.79,2.79,0,0,0-1,.62,2.56,2.56,0,0,0-.6,1,3.71,3.71,0,0,0-.2,1.24v.11h1V8.63a2.64,2.64,0,0,1,.11-.86,2,2,0,0,1,.36-.68,1.68,1.68,0,0,1,.61-.45,2.15,2.15,0,0,1,.87-.16A1.9,1.9,0,0,1,11,6.6a1.81,1.81,0,0,1,.55.32,1.52,1.52,0,0,1,.37.49A1.49,1.49,0,0,1,12.1,8a1.59,1.59,0,0,1-.22.83,3.05,3.05,0,0,1-.57.7c-.28.24-.51.46-.71.65a2.86,2.86,0,0,0-.48.63,2.47,2.47,0,0,0-.26.73,4.58,4.58,0,0,0-.07,1v.11h1v-.11c0-.38,0-.67.05-.87a1.32,1.32,0,0,1,.14-.48,1.63,1.63,0,0,1,.33-.4l.64-.6a5,5,0,0,0,.82-1A2.25,2.25,0,0,0,13.14,8a2.33,2.33,0,0,0-.22-1,2.28,2.28,0,0,0-.59-.76"/></g></g></svg>