<?xml version="1.0" encoding="utf-8"?>
<!-- Generator: Adobe Illustrator 21.1.0, SVG Export Plug-In . SVG Version: 6.00 Build 0)  -->
<svg version="1.1" id="Layer_1" xmlns="http://www.w3.org/2000/svg" xmlns:xlink="http://www.w3.org/1999/xlink" x="0px" y="0px"
	 viewBox="0 0 20.5 20.5" style="enable-background:new 0 0 20.5 20.5;" xml:space="preserve">
<style type="text/css">
	.st0{fill:#FFFFFF;}
</style>
<title>Asset 1</title>
<g id="Layer_2">
	<g id="Шар_1">
		<path class="st0" d="M10.3,0C4.6,0,0,4.6,0,10.3s4.6,10.3,10.3,10.3s10.3-4.6,10.3-10.3S15.9,0,10.3,0 M10.3,19.6
			c-5.1,0-9.3-4.2-9.3-9.3s4.2-9.3,9.3-9.3s9.3,4.2,9.3,9.3l0,0C19.6,15.4,15.4,19.6,10.3,19.6 M9.7,14.9H11v-1.6H9.7V14.9z
			 M12.3,6.2c-0.3-0.2-0.6-0.4-0.9-0.5c-0.3-0.1-0.7-0.2-1-0.2c-0.4,0-0.9,0.1-1.3,0.2c-0.4,0.1-0.7,0.3-1,0.6
			c-0.3,0.3-0.5,0.6-0.6,1C7.4,7.8,7.4,8.2,7.4,8.7v0.1h1V8.6c0-0.3,0-0.6,0.1-0.9c0.1-0.2,0.2-0.5,0.4-0.7C9,6.9,9.2,6.7,9.5,6.6
			c0.3-0.1,0.6-0.2,0.9-0.2c0.2,0,0.5,0,0.7,0.1c0.2,0.1,0.4,0.2,0.6,0.3c0.2,0.1,0.3,0.3,0.4,0.5C12,7.6,12.1,7.8,12.1,8
			c0,0.3-0.1,0.6-0.2,0.8c-0.2,0.3-0.3,0.5-0.6,0.7c-0.3,0.2-0.5,0.5-0.7,0.6c-0.2,0.2-0.3,0.4-0.5,0.6C10,11,9.9,11.3,9.9,11.5
			c-0.1,0.3-0.1,0.7-0.1,1v0.1h1v-0.1c0-0.4,0-0.7,0.1-0.9c0-0.2,0.1-0.3,0.1-0.5c0.1-0.2,0.2-0.3,0.3-0.4l0.6-0.6
			c0.3-0.3,0.6-0.6,0.8-1C13,8.8,13.1,8.4,13.1,8c0-0.3-0.1-0.7-0.2-1C12.8,6.7,12.6,6.4,12.3,6.2"/>
	</g>
</g>
</svg>
