<?xml version="1.0" encoding="utf-8"?>
<!-- Generator: Adobe Illustrator 16.0.4, SVG Export Plug-In . SVG Version: 6.00 Build 0)  -->
<!DOCTYPE svg PUBLIC "-//W3C//DTD SVG 1.1//EN" "http://www.w3.org/Graphics/SVG/1.1/DTD/svg11.dtd">
<svg version="1.1" id="Шар_1" xmlns="http://www.w3.org/2000/svg" xmlns:xlink="http://www.w3.org/1999/xlink" x="0px" y="0px"
	 width="56.693px" height="28.346px" viewBox="0 0 56.693 28.346" enable-background="new 0 0 56.693 28.346" xml:space="preserve">
<circle fill="#CAD55C" cx="42.226" cy="14.174" r="10.417"/>
<path fill="#544883" d="M76.998,12.752l-0.894-0.224c-0.186-0.688-0.459-1.341-0.808-1.942l0.475-0.793
	c0.146-0.283,0.242-0.635,0-0.877l-1.751-1.751c-0.109-0.109-0.242-0.152-0.383-0.152c-0.168,0-0.346,0.064-0.493,0.152
	l-0.799,0.479c-0.6-0.348-1.25-0.619-1.936-0.803L70.186,5.94c-0.098-0.305-0.278-0.62-0.621-0.62h-2.477
	c-0.343,0-0.542,0.315-0.62,0.62l-0.225,0.901c-0.687,0.184-1.336,0.455-1.938,0.803l-0.797-0.479
	c-0.148-0.088-0.325-0.152-0.494-0.152c-0.14,0-0.272,0.043-0.382,0.152l-1.752,1.751c-0.242,0.242-0.146,0.594,0,0.877l0.477,0.793
	c-0.351,0.602-0.625,1.255-0.809,1.942l-0.894,0.224c-0.305,0.078-0.62,0.277-0.62,0.62v2.477c0,0.343,0.315,0.523,0.62,0.62
	l0.894,0.224c0.184,0.688,0.458,1.341,0.809,1.942l-0.477,0.793c-0.159,0.27-0.242,0.634,0,0.876l1.752,1.753
	c0.106,0.105,0.234,0.147,0.368,0.147c0.171,0,0.35-0.066,0.508-0.147l0.797-0.479c0.602,0.347,1.251,0.618,1.938,0.802l0.225,0.902
	c0.078,0.304,0.277,0.619,0.62,0.619h2.477c0.343,0,0.523-0.315,0.621-0.619l0.225-0.902c0.686-0.184,1.336-0.455,1.936-0.802
	l0.799,0.479c0.158,0.081,0.338,0.147,0.507,0.147c0.134,0,0.261-0.042,0.369-0.147l1.751-1.753c0.242-0.242,0.16-0.606,0-0.876
	l-0.475-0.793c0.349-0.602,0.622-1.254,0.808-1.942l0.894-0.224c0.304-0.097,0.619-0.277,0.619-0.62v-2.477
	C77.617,13.03,77.302,12.831,76.998,12.752 M76.772,15.654c-0.003,0.001-0.006,0.003-0.01,0.003l-0.864,0.217
	c-0.298,0.074-0.53,0.305-0.61,0.601c-0.162,0.607-0.405,1.192-0.722,1.737c-0.155,0.266-0.153,0.595,0.006,0.858l0.465,0.775
	l-1.476,1.476c-0.003-0.001-0.006-0.003-0.009-0.005l-0.771-0.462c-0.135-0.08-0.284-0.12-0.436-0.12
	c-0.145,0-0.29,0.037-0.422,0.113c-0.545,0.315-1.128,0.557-1.731,0.718c-0.298,0.079-0.527,0.312-0.602,0.611l-0.219,0.871
	c-0.001,0.004-0.002,0.007-0.003,0.01h-2.086l-0.221-0.882c-0.075-0.298-0.305-0.531-0.602-0.61
	c-0.604-0.161-1.188-0.402-1.732-0.718c-0.131-0.076-0.276-0.113-0.423-0.113c-0.15,0-0.301,0.04-0.434,0.12l-0.771,0.462
	c-0.003,0.002-0.006,0.004-0.01,0.005l-1.475-1.476l0.465-0.775c0.158-0.264,0.161-0.593,0.007-0.858
	c-0.318-0.546-0.561-1.13-0.723-1.737c-0.08-0.296-0.313-0.526-0.611-0.601l-0.863-0.217c-0.004,0-0.007-0.002-0.01-0.003v-2.087
	l0.873-0.218c0.298-0.075,0.531-0.305,0.611-0.602c0.162-0.607,0.404-1.192,0.723-1.737c0.154-0.266,0.151-0.595-0.007-0.858
	l-0.46-0.767c-0.001-0.004-0.003-0.007-0.005-0.01L63.092,7.9l0.78,0.468c0.133,0.08,0.283,0.12,0.434,0.12
	c0.146,0,0.292-0.037,0.423-0.112c0.545-0.315,1.128-0.558,1.732-0.719c0.297-0.079,0.526-0.313,0.602-0.611l0.221-0.881h2.086
	c0.001,0.004,0.002,0.006,0.003,0.01l0.219,0.871c0.074,0.298,0.304,0.532,0.602,0.611c0.604,0.161,1.187,0.403,1.731,0.719
	c0.132,0.075,0.276,0.112,0.422,0.112c0.151,0,0.301-0.04,0.436-0.12L73.561,7.9l1.476,1.476c-0.001,0.003-0.003,0.006-0.004,0.01
	l-0.46,0.766c-0.159,0.265-0.161,0.594-0.006,0.859c0.316,0.545,0.56,1.13,0.722,1.737c0.08,0.297,0.312,0.526,0.61,0.602
	l0.874,0.218V15.654z M68.326,10.387c-2.333,0-4.223,1.892-4.223,4.224s1.89,4.224,4.223,4.224s4.224-1.892,4.224-4.224
	S70.659,10.387,68.326,10.387 M68.326,17.989c-1.866,0-3.378-1.512-3.378-3.378s1.512-3.378,3.378-3.378s3.379,1.512,3.379,3.378
	S70.192,17.989,68.326,17.989"/>
<path fill="#B19563" d="M-2.72-14.432l-0.894-0.224c-0.186-0.688-0.459-1.341-0.808-1.942l0.475-0.793
	c0.146-0.283,0.242-0.635,0-0.877l-1.751-1.751c-0.109-0.109-0.242-0.152-0.383-0.152c-0.168,0-0.346,0.064-0.493,0.152
	l-0.799,0.479c-0.6-0.348-1.25-0.619-1.936-0.803l-0.225-0.901c-0.098-0.305-0.278-0.62-0.621-0.62h-2.477
	c-0.343,0-0.542,0.315-0.62,0.62l-0.225,0.901c-0.687,0.184-1.336,0.455-1.938,0.803l-0.797-0.479
	c-0.148-0.088-0.325-0.152-0.494-0.152c-0.14,0-0.272,0.043-0.382,0.152l-1.752,1.751c-0.242,0.242-0.146,0.594,0,0.877l0.477,0.793
	c-0.351,0.602-0.625,1.255-0.809,1.942l-0.894,0.224c-0.305,0.078-0.62,0.277-0.62,0.62v2.477c0,0.343,0.315,0.523,0.62,0.62
	l0.894,0.224c0.184,0.688,0.458,1.341,0.809,1.942l-0.477,0.793c-0.159,0.27-0.242,0.634,0,0.876l1.752,1.753
	c0.106,0.105,0.234,0.147,0.368,0.147c0.171,0,0.35-0.066,0.508-0.147l0.797-0.479c0.602,0.347,1.251,0.618,1.938,0.802l0.225,0.902
	c0.078,0.304,0.277,0.619,0.62,0.619h2.477c0.343,0,0.523-0.315,0.621-0.619l0.225-0.902c0.686-0.184,1.336-0.455,1.936-0.802
	l0.799,0.479C-6.415-5.046-6.235-4.98-6.066-4.98c0.134,0,0.261-0.042,0.369-0.147l1.751-1.753c0.242-0.242,0.16-0.606,0-0.876
	l-0.475-0.793c0.349-0.602,0.622-1.254,0.808-1.942l0.894-0.224c0.304-0.097,0.619-0.277,0.619-0.62v-2.477
	C-2.101-14.155-2.416-14.354-2.72-14.432 M-2.945-11.531c-0.003,0.001-0.006,0.003-0.01,0.003l-0.864,0.217
	c-0.298,0.074-0.53,0.305-0.61,0.601c-0.162,0.607-0.405,1.192-0.722,1.737c-0.155,0.266-0.153,0.595,0.006,0.858l0.465,0.775
	l-1.476,1.476c-0.003-0.001-0.006-0.003-0.009-0.005l-0.771-0.462c-0.135-0.08-0.284-0.12-0.436-0.12
	c-0.145,0-0.29,0.037-0.422,0.113C-8.339-6.022-8.922-5.781-9.525-5.62c-0.298,0.079-0.527,0.312-0.602,0.611l-0.219,0.871
	c-0.001,0.004-0.002,0.007-0.003,0.01h-2.086l-0.221-0.882c-0.075-0.298-0.305-0.531-0.602-0.61
	c-0.604-0.161-1.188-0.402-1.732-0.718c-0.131-0.076-0.276-0.113-0.423-0.113c-0.15,0-0.301,0.04-0.434,0.12l-0.771,0.462
	c-0.003,0.002-0.006,0.004-0.01,0.005l-1.475-1.476l0.465-0.775c0.158-0.264,0.161-0.593,0.007-0.858
	c-0.318-0.546-0.561-1.13-0.723-1.737c-0.08-0.296-0.313-0.526-0.611-0.601l-0.863-0.217c-0.004,0-0.007-0.002-0.01-0.003v-2.087
	l0.873-0.218c0.298-0.075,0.531-0.305,0.611-0.602c0.162-0.607,0.404-1.192,0.723-1.737c0.154-0.266,0.151-0.595-0.007-0.858
	l-0.46-0.767c-0.001-0.004-0.003-0.007-0.005-0.01l1.476-1.476l0.78,0.468c0.133,0.08,0.283,0.12,0.434,0.12
	c0.146,0,0.292-0.037,0.423-0.112c0.545-0.315,1.128-0.558,1.732-0.719c0.297-0.079,0.526-0.313,0.602-0.611l0.221-0.881h2.086
	c0.001,0.004,0.002,0.006,0.003,0.01l0.219,0.871c0.074,0.298,0.304,0.532,0.602,0.611c0.604,0.161,1.187,0.403,1.731,0.719
	c0.132,0.075,0.276,0.112,0.422,0.112c0.151,0,0.301-0.04,0.436-0.12l0.779-0.468l1.476,1.476c-0.001,0.003-0.003,0.006-0.004,0.01
	l-0.46,0.766c-0.159,0.265-0.161,0.594-0.006,0.859c0.316,0.545,0.56,1.13,0.722,1.737c0.08,0.297,0.312,0.526,0.61,0.602
	l0.874,0.218V-11.531z M-11.392-16.797c-2.333,0-4.223,1.892-4.223,4.224s1.89,4.224,4.223,4.224s4.224-1.892,4.224-4.224
	S-9.059-16.797-11.392-16.797 M-11.392-9.196c-1.866,0-3.378-1.512-3.378-3.378s1.512-3.378,3.378-3.378s3.379,1.512,3.379,3.378
	S-9.525-9.196-11.392-9.196"/>
<g>
	<g>
		<rect x="46.147" y="8.58" fill="#544883" width="0.074" height="11.188"/>
		<path fill="#544883" d="M45.423,5.383h-6.394c-0.882,0-1.598,0.716-1.598,1.598v14.386c0,0.882,0.716,1.597,1.598,1.597h6.394
			c0.882,0,1.598-0.715,1.598-1.597V6.981C47.021,6.099,46.305,5.383,45.423,5.383z M46.222,20.567v0.8
			c0,0.44-0.358,0.798-0.799,0.798h-6.394c-0.441,0-0.798-0.357-0.798-0.798l-0.075-0.205V7.477l0.075-0.496
			c0-0.44,0.357-0.799,0.798-0.799h6.394c0.441,0,0.799,0.358,0.799,0.799V20.567z"/>
	</g>
	<path fill="#544883" d="M41.087,7.154h-1.167c-0.323,0-0.584,0.261-0.584,0.584s0.261,0.583,0.584,0.583h1.167
		c0.324,0,0.584-0.26,0.584-0.583S41.411,7.154,41.087,7.154z"/>
	<polygon fill="#544883" points="43.057,12.95 42.226,10.75 41.395,12.95 39.179,12.95 40.979,14.351 40.149,16.843 42.226,15.32 
		44.303,16.843 43.473,14.351 45.273,12.95 	"/>
</g>
<g>
	<g>
		<g>
			<rect x="21.258" y="8.58" fill="#B19563" width="0.074" height="11.188"/>
			<path fill="#B19563" d="M20.534,5.383H14.14c-0.882,0-1.598,0.716-1.598,1.598v14.386c0,0.882,0.716,1.597,1.598,1.597h6.394
				c0.882,0,1.598-0.715,1.598-1.597V6.981C22.132,6.099,21.416,5.383,20.534,5.383z M21.333,20.567v0.8
				c0,0.44-0.358,0.798-0.799,0.798H14.14c-0.441,0-0.798-0.357-0.798-0.798l-0.075-0.205V7.477l0.075-0.496
				c0-0.44,0.357-0.799,0.798-0.799h6.394c0.441,0,0.799,0.358,0.799,0.799V20.567z"/>
		</g>
		<path fill="#B19563" d="M16.198,7.154H15.03c-0.323,0-0.584,0.261-0.584,0.584s0.261,0.583,0.584,0.583h1.167
			c0.324,0,0.584-0.26,0.584-0.583S16.521,7.154,16.198,7.154z"/>
		<polygon fill="#B19563" points="18.167,12.95 17.337,10.75 16.505,12.95 14.29,12.95 16.09,14.351 15.26,16.843 17.337,15.32 
			19.414,16.843 18.583,14.351 20.384,12.95 		"/>
	</g>
</g>
</svg>
