<?xml version="1.0" encoding="utf-8"?>
<!-- Generator: Adobe Illustrator 16.0.4, SVG Export Plug-In . SVG Version: 6.00 Build 0)  -->
<!DOCTYPE svg PUBLIC "-//W3C//DTD SVG 1.0//EN" "http://www.w3.org/TR/2001/REC-SVG-20010904/DTD/svg10.dtd">
<svg version="1.0" id="Шар_1" xmlns="http://www.w3.org/2000/svg" xmlns:xlink="http://www.w3.org/1999/xlink" x="0px" y="0px"
	 width="141.73px" height="141.73px" viewBox="0 0 141.73 141.73" style="enable-background:new 0 0 141.73 141.73;"
	 xml:space="preserve">
<style type="text/css">
<![CDATA[
	.st0{fill:#ECECF7;}
	.st1{fill:#FFFFFF;}
]]>
</style>
<circle class="st0" cx="71.071" cy="70.694" r="70.694"/>
<circle class="st1" cx="71.071" cy="70.693" r="63.627"/>
<path class="st0" d="M112.945,100.289c-0.398-3.518-6.071-6.332-13.162-6.809c-4.839-0.875-9.698-1.519-14.562-1.949
	c0.753-1.947,1.174-4.084,1.174-6.327c0-0.151-0.014-0.3-0.022-0.446c1.728-1.98,3.327-4.348,4.738-7.139
	c1.105-0.577,2.432-2.794,3.476-6.418c0.604-2.082,0.883-4.146,0.852-5.832c0.152-0.639,0.315-1.262,0.453-1.924
	c0.336-1.669,0.545-3.288,0.65-4.862c2.923-3.502,4.641-7.635,4.641-12.076c0-12.545-13.479-22.717-30.111-22.717
	c-4.197,0-8.359,0.223-11.822,1.819c-5.799,2.673-5.888,6.635-5.888,6.635c-1.056-1.058-3.872-1.058-4.93-0.264
	c-5.466,4.089-7.471,8.253-7.471,14.528c0,4.441,1.718,8.57,4.638,12.072c0.108,1.575,0.317,3.196,0.657,4.867
	c0.138,0.667,0.298,1.291,0.452,1.934c-0.028,1.684,0.253,3.746,0.855,5.822c1.04,3.619,2.363,5.836,3.469,6.417
	c1.412,2.792,3.006,5.164,4.738,7.143c-0.008,0.147-0.022,0.293-0.022,0.444c0,2.243,0.423,4.382,1.178,6.329
	c-4.865,0.43-9.727,1.073-14.563,1.947c-7.09,0.477-12.765,3.287-13.165,6.809l-3.274,23.01
	c13.574,4.647,28.903,12.923,45.146,12.923c16.248,0,31.572-8.275,45.15-12.923L112.945,100.289z M50.989,64.933
	c-1.551-7.374,0.03-13.619,3.379-18.138c0.412,2.234,0.967,4.105,1.533,5.217c1.792,3.526,8.121,14.803,12.328,15.571l-4.624-9.604
	c0,0,6.271,7.462,10.314,8.699c5.224,1.584,13.229-0.188,17.109-1.238c-3.385,15-11.337,21.994-19.958,22.002
	C62.351,87.436,54.307,80.293,50.989,64.933z M71.071,120.99c-11.72,0-21.226-15.905-21.226-25.351c0-0.287,0.033-0.567,0.049-0.852
	c2.681-0.468,5.367-0.82,8.053-1.112c0.8,1.43,1.814,2.695,2.964,3.799c-0.898-2.752-1.425-5.913-1.5-9.277
	c3.219,2.455,6.759,3.78,10.424,4.022c0.328,0.022,0.656,0.063,0.99,0.067c0.042,0,0.083-0.006,0.124-0.006
	c0.042,0,0.081,0.006,0.12,0.006c4.108-0.002,8.082-1.352,11.662-4.091c-0.074,3.365-0.601,6.526-1.501,9.279
	c1.15-1.104,2.165-2.373,2.968-3.802c2.687,0.29,5.368,0.64,8.051,1.109c0.016,0.289,0.054,0.566,0.054,0.856
	C92.302,105.085,82.797,120.99,71.071,120.99z"/>
</svg>
