<svg width="481.95" height="481.95" xmlns="http://www.w3.org/2000/svg">

 <g>
  <title>background</title>
  <rect fill="none" id="canvas_background" height="402" width="582" y="-1" x="-1"/>
 </g>
 <g>
  <title>Layer 1</title>
  <g id="svg_1">
   <g id="rotate-left">
    <path id="svg_2" fill="#b19463" d="m114.75,191.25l-35.7,-35.7c-22.95,30.6 -38.25,63.75 -40.8,99.45l51,0c2.55,-22.95 12.75,-43.35 25.5,-63.75zm-25.5,114.75l-51,0c5.1,35.7 17.85,68.85 40.8,99.45l35.7,-35.7c-12.75,-20.4 -22.95,-40.8 -25.5,-63.75zm25.5,135.15c30.6,22.949 63.75,35.699 99.45,40.8l0,-51c-22.95,-2.55 -43.35,-12.75 -63.75,-25.5l-35.7,35.7zm150.45,-362.1l0,-79.05l-114.75,114.75l114.75,114.75l0,-99.45c71.4,12.75 127.5,73.95 127.5,150.45s-56.1,137.7 -127.5,150.45l0,51c99.45,-12.75 178.5,-99.45 178.5,-201.45s-79.05,-188.7 -178.5,-201.45z"/>
   </g>
  </g>
  <g id="svg_3"/>
  <g id="svg_4"/>
  <g id="svg_5"/>
  <g id="svg_6"/>
  <g id="svg_7"/>
  <g id="svg_8"/>
  <g id="svg_9"/>
  <g id="svg_10"/>
  <g id="svg_11"/>
  <g id="svg_12"/>
  <g id="svg_13"/>
  <g id="svg_14"/>
  <g id="svg_15"/>
  <g id="svg_16"/>
  <g id="svg_17"/>
 </g>
</svg>