<svg width="481.95" height="481.95" xmlns="http://www.w3.org/2000/svg">

 <g>
  <title>background</title>
  <rect fill="none" id="canvas_background" height="402" width="582" y="-1" x="-1"/>
 </g>
 <g>
  <title>Layer 1</title>
  <g id="svg_1">
   <g id="rotate-right">
    <path id="svg_2" fill="#b19463" d="m331.5,114.75l-114.75,-114.75l0,79.05c-99.45,12.75 -178.5,96.9 -178.5,201.45s79.05,188.7 178.5,201.45l0,-51c-71.4,-12.75 -127.5,-73.95 -127.5,-150.45s56.1,-137.7 127.5,-150.45l0,99.45l114.75,-114.75zm112.2,140.25c-5.101,-35.7 -17.851,-68.85 -40.8,-99.45l-35.7,35.7c12.75,20.4 22.95,40.8 25.5,63.75l51,0zm-175.95,175.95l0,51c35.7,-5.101 68.85,-17.851 99.45,-40.8l-35.7,-35.7c-20.4,12.75 -40.8,22.95 -63.75,25.5zm99.45,-61.2l35.7,35.7c22.949,-30.601 38.25,-63.75 40.8,-99.45l-51,0c-2.55,22.95 -12.75,43.35 -25.5,63.75z"/>
   </g>
  </g>
  <g id="svg_3"/>
  <g id="svg_4"/>
  <g id="svg_5"/>
  <g id="svg_6"/>
  <g id="svg_7"/>
  <g id="svg_8"/>
  <g id="svg_9"/>
  <g id="svg_10"/>
  <g id="svg_11"/>
  <g id="svg_12"/>
  <g id="svg_13"/>
  <g id="svg_14"/>
  <g id="svg_15"/>
  <g id="svg_16"/>
  <g id="svg_17"/>
 </g>
</svg>