<?xml version="1.0" encoding="utf-8"?>
<!-- Generator: Adobe Illustrator 16.0.4, SVG Export Plug-In . SVG Version: 6.00 Build 0)  -->
<!DOCTYPE svg PUBLIC "-//W3C//DTD SVG 1.1//EN" "http://www.w3.org/Graphics/SVG/1.1/DTD/svg11.dtd">
<svg version="1.1" id="Шар_1" xmlns="http://www.w3.org/2000/svg" xmlns:xlink="http://www.w3.org/1999/xlink" x="0px" y="0px"
	 width="1980px" height="400px" viewBox="0 0 1980 400" enable-background="new 0 0 1980 400" xml:space="preserve">
<linearGradient id="SVGID_1_" gradientUnits="userSpaceOnUse" x1="2120.4609" y1="425.46" x2="2120.4609" y2="825.4609" gradientTransform="matrix(1 0 0 1 -1130.4609 -425.4609)">
	<stop  offset="4.758883e-04" style="stop-color:#544782"/>
	<stop  offset="0.4291" style="stop-color:#574580"/>
	<stop  offset="0.7406" style="stop-color:#604178"/>
	<stop  offset="1" style="stop-color:#6F396D"/>
</linearGradient>
<rect fill="url(#SVGID_1_)" width="1980" height="400"/>
<path fill="#FFFFFF" d="M754.093,68.448L690.906,82.63c-2.066,0.465-3.391,2.522-2.92,4.61l14.179,63.175
	c0.464,2.066,2.539,3.36,4.604,2.897l63.188-14.182c2.089-0.47,3.389-2.521,2.926-4.587l-14.179-63.176
	C758.234,69.28,756.182,67.98,754.093,68.448 M741.102,88.242l-5.451,1.224c-4.26,0.957-4.598,3.155-3.929,6.139l1.463,6.521
	l10.147-2.276l2.308,10.283l-10.146,2.278l5.909,26.329l-10.605,2.38l-5.91-26.329l-8.859,1.988l-2.31-10.283l8.861-1.99
	l-1.695-7.552c-1.974-8.793,2.315-14.771,10.145-16.528l7.919-1.778L741.102,88.242z"/>
<path fill="#FFFFFF" d="M853.237,97.141l-49.893,14.977c-3.417,1.026-5.377,4.685-4.349,8.112l14.974,49.881
	c1.028,3.428,4.68,5.401,8.098,4.376l49.892-14.977c3.428-1.028,5.377-4.684,4.348-8.111l-14.974-49.881
	C860.305,98.089,856.665,96.112,853.237,97.141 M833.912,123.337c6.854-2.058,14.155,1.89,16.213,8.744s-1.868,14.149-8.723,16.207
	c-6.875,2.063-14.16-1.865-16.219-8.72C823.126,132.712,827.037,125.399,833.912,123.337 M821.764,167.771
	c-0.938,0.283-1.761-0.16-2.042-1.099l-7.957-26.502l6.54-1.963c-0.023,1.031,0.354,2.296,0.637,3.235
	c3.093,10.302,14.025,16.161,24.328,13.068c10.272-3.084,16.182-13.998,13.09-24.301c-0.283-0.938-0.662-2.203-1.261-3.047
	l6.561-1.97l7.956,26.503c0.28,0.937-0.172,1.763-1.101,2.041L821.764,167.771z M857.451,111.177
	c0.282,0.939-0.177,1.745-1.105,2.023l-6.222,1.869c-0.959,0.287-1.745-0.145-2.026-1.084l-1.874-6.242
	c-0.274-0.918,0.137-1.731,1.097-2.019l6.222-1.868c0.928-0.279,1.761,0.161,2.036,1.079L857.451,111.177z"/>
<g>
	<path fill="#AEC193" d="M897.618,131.223c0,0,0.963-3.801-7.847-3.838c-8.807-0.037-18.213-1.451-24.558,8.425
		c-6.347,9.876-5.551,11.608-5.551,11.608s-3.579,11.404-4.009,13.301c-0.433,1.895-1.025,11.086-1.025,11.086h5.809l24.609,10.695
		c0,0,13.342-15.625,13.859-16.478C899.424,165.171,897.618,131.223,897.618,131.223z"/>
	<path fill="#FFF6C9" d="M937.104,105.918c1.062-0.488,7.466-9.828,5.418-12.875c-2.051-3.047-5.696-7.262-5.418-9.716
		c0.276-2.454,0.638-14.2-9.227-19.364c-9.863-5.166-36.74-15.622-36.74-15.622s-13.399,0.646-15.467,12.651
		c-2.063,12.006-5.249,18.279-3.682,19.106c1.565,0.825,6.649,2.711,4.715,4.906c-1.938,2.194-5.825,8.239-5.242,10.595
		c0.582,2.354,2.918,5.262,4.208,5.659c1.29,0.399,0.282,1.433,2.565,3.725c2.283,2.294,5.244,7.593,8.542,7.519
		c3.298-0.075,10.581-14.826,10.84-15.546C897.875,96.236,937.104,105.918,937.104,105.918z"/>
	<path fill="#AEC193" d="M874.801,181.125c2.77,0.08,5.452,0.157,8.231,0.237c0.099,0.146,0.245,0.355,0.396,0.562
		c0.404,0.566,0.881,0.875,1.619,0.578c0.301-0.124,0.666-0.171,0.992-0.139c1.535,0.135,2.925-0.416,4.486-0.903
		c-0.318,0.858-0.676,1.616-0.875,2.413c-0.305,1.225-1.023,2.141-1.987,2.873c-0.435,0.332-0.976,0.538-1.493,0.732
		c-0.418,0.156-0.688-0.035-0.826-0.494c-0.366-1.258-0.642-1.414-1.803-0.948c-1.133,0.457-2.236,0.986-3.396,1.501
		c0.263,1.471,0.779,2.659,1.812,3.602c1.456,1.326,1.38,0.787,0.903,2.822c-0.581,2.486-0.07,1.945-2.58,3.034
		c-1.877,0.812-3.832,1.479-5.797,2.05c-2.523,0.742-5.14,0.918-7.761,0.914c-0.479,0-0.963-0.104-1.438-0.189
		c-0.752-0.127-1.307-0.552-1.617-1.242c-0.476-1.056-1.031-2.096-1.344-3.199c-1.242-4.381-2.473-8.769-3.562-13.19
		c-0.416-1.683-0.452-3.46-0.645-5.2c-0.111-1-0.199-2.004-0.26-3.01c-0.062-1-0.166-2.014-0.099-3.012
		c0.231-3.348,0.429-6.703,0.838-10.035c0.389-3.148,0.949-6.283,2.285-9.214c0.416-0.913,0.806-1.841,1.168-2.777
		c0.131-0.341,0.15-0.724,0.243-1.189c1.906-0.689,3.778-1.644,5.847-2.044c0.295-0.056,0.625,0.057,0.938,0.104
		c0.396,0.063,0.791,0.159,1.19,0.208c0.892,0.107,1.154,0.491,0.916,1.343c-0.44,1.581-0.879,3.161-1.303,4.746
		c-0.104,0.395-0.215,0.81-0.206,1.21c0.05,1.926-0.486,3.777-0.649,5.666c-0.103,1.183-0.493,2.084-1.153,3.018
		c-1.484,2.106-2.912,4.256-4.279,6.44c-1.146,1.833-2.191,3.731-3.252,5.622c-0.337,0.602-0.1,1.535,0.336,2.076
		c0.925,1.147,2.107,1.754,3.543,2.062c1.228,0.261,2.406,0.752,3.644,1.156c-1.568,0.507-3.066,0.956-4.536,1.492
		c-0.729,0.266-1.429,0.638-2.086,1.051c-0.741,0.471-1.138,1.148-0.89,2.09c0.561,2.128,1.071,4.271,1.674,6.39
		c0.354,1.255,0.84,2.468,1.274,3.696c0.073,0.209,0.183,0.411,0.31,0.596c1.115,1.631,2.418,2.097,4.476,1.59
		c1.015-0.25,2.02-0.539,3.026-0.805c1.871-0.493,2.91-1.647,2.975-3.512c0.081-2.271,0.034-4.549,0.084-6.818
		C874.196,183.739,874.462,182.43,874.801,181.125z"/>
	<path fill="#E97546" d="M939.706,172.327c-0.707,0.113-1.248,0.256-1.793,0.281c-1.387,0.062-2.408,0.949-3.555,1.537
		c-0.699,0.357-0.845,1.34-0.33,1.941c0.19,0.223,0.452,0.385,0.69,0.581c-0.059,0.101-0.1,0.21-0.174,0.29
		c-0.446,0.488-0.854,1.038-0.54,1.709c0.325,0.695,1.013,0.986,1.752,1.042c0.554,0.042,1.119-0.04,1.681-0.054
		c0.408-0.01,0.816-0.002,1.312,0.188c-0.285,0.158-0.578,0.307-0.855,0.482c-0.667,0.426-0.87,0.825-0.713,1.361
		c0.125,0.42,0.328,0.714,0.846,0.75c0.99,0.07,1.949,0.518,2.973,0.232c0.116-0.031,0.269,0.074,0.421,0.119
		c-1.34,1.76-6.674,3.693-10.051,3.623c-0.111-0.418-0.311-0.865-0.338-1.324c-0.049-0.741-0.085-1.51,0.053-2.236
		c0.41-2.145,0.803-4.303,1.383-6.404c1.422-5.143,2.938-10.264,4.428-15.39c0.773-2.65,1.562-5.3,2.365-7.942
		c0.612-2.031,1.189-4.078,1.921-6.068c0.72-1.969,1.71-3.809,3.165-5.369c1.672-1.797,3.834-1.84,6.055-0.924
		c1.193,0.493,2.189,1.237,2.976,2.289c0.705,0.942,0.896,2.006,1.012,3.139c0.263,2.574-0.159,5.074-0.707,7.556
		c-0.76,3.441-1.867,6.769-3.225,10.02c-0.23,0.556-0.564,0.934-1.102,1.193c-2.417,1.181-4.828,2.368-7.468,2.995
		c-0.613,0.146-1.263,0.188-1.841,0.42c-1.548,0.617-1.886,1.883-0.926,3.216C939.271,171.79,939.441,171.99,939.706,172.327z
		 M943.354,145.817c0,0.15,0.007,0.301,0,0.448c-0.014,0.611,0.369,0.993,0.845,1.223c0.426,0.208,0.766-0.118,1.065-0.421
		c0.16-0.157,0.357-0.271,0.526-0.419c0.835-0.724,1.259-2.104,0.94-3.053c-0.37-1.101-1.484-1.364-2.29-0.518
		C943.719,143.838,943.344,144.756,943.354,145.817z"/>
	<path fill="#FFF2CB" d="M886.125,141.959c1.158,0.267,1.699,1.104,2.216,1.912c1.427,2.236,2.083,4.775,2.825,7.291
		c0.557,1.888,0.883,3.775,0.762,5.739c-0.078,1.255-0.245,2.458-1.248,3.388c-1.157-0.188-1.604-1.156-2.165-1.964
		c-0.576-0.826-0.551-0.846-0.335-2.328c0.109-0.013,1.3,0.341,1.624,0.483c0.482-0.281,0.587-0.639,0.343-1.195
		c-0.504-1.143-1.062-2.228-2.141-2.946c-0.828-0.552-1.69-0.383-2.397,0.331c-3.048,3.066-5.342,6.716-7.882,10.176
		c-1.15,1.564-2.427,3.037-3.639,4.559c-0.51,0.645-0.979,1.32-1.496,1.957c-0.729,0.898-1.433,1.829-2.25,2.642
		c-0.455,0.456-1.11,0.719-1.692,1.042c-0.226,0.125-0.488,0.187-0.738,0.261c-0.422,0.122-0.69,0.39-0.525,0.821
		c0.162,0.424,0.499,0.41,0.931,0.283c0.998-0.294,2.013-0.551,3.037-0.715c0.493-0.076,1.11-0.059,1.525,0.174
		c1.355,0.771,2.782,1.489,3.752,2.784c0.584,0.788,1,1.649,1.098,2.696c-1.278,0.283-2.492,0.05-3.683-0.203
		c-2.85-0.6-5.688-1.25-8.528-1.879c-0.685-0.151-1.4-0.218-2.052-0.463c-1.203-0.455-1.843-2-1.506-3.234
		c0.408-1.477,1.247-2.702,2.084-3.943c1.359-2.01,2.664-4.057,4.055-6.046c1.814-2.595,3.675-5.161,5.552-7.713
		c1.104-1.503,2.234-2.991,3.432-4.421c2.061-2.465,4.139-4.921,6.303-7.295C884.176,143.285,885.235,142.661,886.125,141.959z"/>
	<path fill="#AEC193" d="M872.297,172.299c3.879-5.379,8.123-10.312,12.935-14.863c0.395,0.463,0.772,0.826,1.057,1.254
		c1.953,2.928,3.68,5.972,5.139,9.182c0.711,1.566,0.593,2.84-0.521,4.156c-0.256-0.223-0.518-0.457-0.792-0.68
		c-1.468-1.184-3.163-1.135-4.78-0.596c-0.691,0.23-1.246,1.047-1.719,1.697c-0.476,0.65-0.777,1.432-1.162,2.165
		C881.442,174.647,872.997,172.778,872.297,172.299z"/>
	<path fill="#FFF1AB" d="M908.112,75.446c-0.449-0.236-0.912-0.455-1.343-0.719c-0.287-0.174-0.529-0.418-0.793-0.625
		c-1.736-1.385-3.335-1.346-5.495-0.063c-1.017,0.603-1.945,1.349-2.851,1.983c-0.659-1.016-1.197-2.146-2.009-3.027
		c-1.333-1.453-2.805-2.783-4.284-4.09c-0.649-0.571-1.494-0.824-2.41-0.612c-0.194,0.044-0.418-0.03-0.696-0.053
		c0.809-2.124,1.926-3.959,3.444-5.519c0.429-0.438,1.146-0.556,1.783-0.383c0.789,0.218,1.582,0.449,2.326,0.781
		c1.021,0.456,1.992,1.016,2.996,1.517c1.7,0.849,3.067,2.099,4.315,3.505c1.538,1.738,3.097,3.459,4.337,5.432
		c0.331,0.525,0.633,1.066,0.945,1.602C908.292,75.266,908.201,75.354,908.112,75.446z"/>
	<path fill="#FFF2CB" d="M919.549,248.162c-1.423,0.176-3.254-0.15-4.731-0.898c0.069-1.463,0.095-2.992,0.234-4.506
		c0.225-2.387,0.284-4.756-0.22-7.121c-0.156-0.723-0.008-1.029,0.672-1.367c1.955-0.983,3.969-1.221,6.06-0.418
		c0.448,0.168,0.67,0.418,0.653,0.904c-0.018,0.594,0.015,1.193,0.01,1.787c-0.002,0.943-0.004,1.869,0.946,2.479
		c0.212,0.136,0.35,0.486,0.391,0.761c0.152,1.036,0.188,2.075-0.143,3.092c-0.189,0.586-0.504,1.041-1.019,1.424
		c-0.681,0.513-1.355,1.089-1.865,1.761C920.1,246.633,919.901,247.383,919.549,248.162z"/>
	<path fill="#E8DE8C" d="M886.502,67.268c-0.43,1.228-0.914,2.253-1.143,3.334c-0.693,3.261-0.892,6.516,0.573,9.658
		c0.711,1.522,1.377,3.067,2.14,4.561c0.682,1.334,1.602,2.518,2.721,3.526c0.275,0.251,0.549,0.504,0.85,0.78
		c-0.17,0.379-0.314,0.717-0.477,1.039c-0.791,1.577-2.621,1.889-3.795,0.578c-0.689-0.771-1.279-1.652-1.807-2.549
		c-1.648-2.805-2.462-5.903-3.11-9.063c-0.322-1.577-0.765-3.132-0.636-4.752c0.069-0.901-0.109-1.882,0.551-2.672
		c0.023-0.028,0.061-0.066,0.053-0.095c-0.271-1.471,1.127-1.952,1.766-2.859C884.682,68.053,885.515,67.603,886.502,67.268z"/>
	<path fill="#FFF2CB" d="M894.452,246.859c-0.956,0.424-1.876,0.225-2.81-0.137c-1.557-0.607-2.75-1.328-3.764-2.388
		c0.672-1.502,1.367-3.058,2.065-4.61c0.091-0.201,0.275-0.388,0.295-0.593c0.093-0.969,0.766-1.284,1.562-1.516
		c1.497-0.435,3.031-0.347,4.554-0.287c0.346,0.012,0.686,0.252,1.016,0.414c0.366,0.178,0.709,0.407,1.083,0.573
		c0.807,0.355,0.907,0.474,0.738,1.32c-0.385,1.92-1.294,3.478-3.113,4.383c-0.395,0.201-0.77,0.455-1.12,0.722
		C893.979,245.504,893.922,245.787,894.452,246.859z"/>
	<path fill="#FFF2CB" d="M918.528,151.233c0.354,0.51,0.774,0.986,1.055,1.533c1.569,3.057,3.172,6.102,4.624,9.209
		c0.591,1.27,0.846,2.697,1.241,4.059c0.176,0.611,0.313,1.229,0.885,1.629c0.494,0.35,0.968,0.697,1.632,0.396
		c0.522-0.237,0.907,0.012,1.032,0.517c0.103,0.422,0.172,0.897,0.076,1.302c-0.342,1.429-1.258,2.416-2.552,3.122
		c-0.812-0.579-1.348-1.348-1.778-2.163c-1.577-2.962-3.161-5.926-4.65-8.935c-0.877-1.77-1.598-3.607-1.971-5.58
		c-0.32-1.692-0.082-3.324,0.126-4.98C918.341,151.306,918.436,151.27,918.528,151.233z"/>
	<path fill="#FFFFFF" d="M907.663,172.624c-1.677-0.51-3.39-0.924-5.019-1.557c-1.383-0.535-2.68-1.301-3.988-2.012
		c-0.438-0.238-0.833-0.428-1.355-0.357c-0.62,0.082-0.87,0.41-0.607,0.947c0.098,0.195,0.253,0.369,0.414,0.523
		c1.461,1.387,3.207,2.113,5.214,2.314c2.122,0.212,4.116,0.873,6.102,1.936c-0.698,0.734-1.49,0.936-2.29,0.781
		c-1.531-0.297-3.098-0.564-4.542-1.119c-1.631-0.627-3.292-0.937-5.001-1.07c-0.281-0.021-0.695,0.147-0.85,0.365
		c-0.246,0.358-0.004,0.777,0.334,0.951c0.887,0.462,1.803,0.875,2.724,1.261c0.545,0.228,1.122,0.38,1.691,0.543
		c0.816,0.233,1.645,0.442,2.46,0.677c0.67,0.188,1.33,0.398,2.154,0.646c-1.156,0.889-2.269,0.969-3.439,0.795
		c-2.25-0.336-4.455-0.87-6.602-1.633c-0.948-0.338-1.238-1.027-0.693-1.887c0.219-0.346,0.479-0.665,0.672-1.021
		c0.134-0.248,0.188-0.545,0.281-0.832c-0.283-0.125-0.483-0.208-0.674-0.293c-0.031-0.083-0.082-0.152-0.072-0.218
		c0.127-1.221,0.625-2.255,1.461-3.157c0.246-0.266,0.525-0.512,0.473-1.049c-0.094-0.93,0.701-1.483,1.619-1.252
		c1.476,0.372,2.743,1.152,3.939,2.057c1.645,1.246,3.385,2.322,5.258,3.191C907.479,172.224,907.551,172.463,907.663,172.624
		L907.663,172.624z"/>
	<path fill="#E8DF9D" d="M920.501,73.636c-2.31-4.866-4.711-9.577-8.767-13.29c2.709-0.065,5.1,0.523,7.332,1.758
		c0.925,0.512,1.538,1.31,2.046,2.19c0.968,1.679,1.438,3.516,1.623,5.437C922.899,71.474,922.034,72.637,920.501,73.636z"/>
	<path fill="#E97546" d="M944.655,139.075c-2.357,0.97-2.998,2.948-3.731,4.809c-0.823,2.078-1.523,4.201-2.251,6.316
		c-0.566,1.655-1.147,3.313-1.612,5.002c-0.308,1.104-0.326,2.292-0.638,3.392c-0.732,2.622-1.588,5.209-2.352,7.825
		c-0.598,2.037-1.146,4.09-1.677,6.145c-0.456,1.768-0.86,3.548-1.268,5.327c-0.207,0.905-0.367,1.829-0.562,2.739
		c-0.044,0.207-0.146,0.4-0.271,0.721c-0.303-0.498-0.33-0.869-0.285-1.333c0.37-3.807,1.397-7.474,2.296-11.163
		c1.112-4.564,2.242-9.129,3.521-13.648c0.791-2.797,1.842-5.523,2.84-8.258c0.752-2.066,1.604-4.098,2.42-6.135
		c0.137-0.347,0.31-0.678,0.495-1.002c0.604-1.061,0.878-1.182,2.079-0.943C943.913,138.913,944.16,138.97,944.655,139.075z"/>
	<path fill="#E3C894" d="M904.094,137.403c-1.304-0.361-2.274-0.91-3.112-1.66c-0.693-0.617-1.449-1.243-1.909-2.025
		c-0.523-0.885,0.359-1.736,0.468-2.639c0.109-0.924,0.266-1.84,0.408-2.758c0.082-0.546,0.176-1.089,0.272-1.695
		c1.679,0.445,3.111,1.156,4.462,2.022c0.764,0.489,0.658,0.523,0.506,1.457c-0.275,1.692-0.441,3.401-0.679,5.099
		C904.416,135.893,904.253,136.575,904.094,137.403z"/>
	<path fill="#FFF1AB" d="M885.521,96.256c-1.206-0.91-2.022-2.066-2.715-3.312c-1.067-1.932-2.036-3.924-2.485-6.096
		c-0.767-3.672-1.195-7.369-0.287-11.091c0.043-0.173,0.123-0.344,0.359-0.523c0.096,0.614,0.216,1.226,0.275,1.843
		c0.423,4.252,1.31,8.389,3.223,12.237c0.626,1.261,1.485,2.411,2.251,3.601C887.114,94.428,887.02,95.038,885.521,96.256z"/>
	<path fill="#FFFFFF" d="M937.333,175.95c0.085-1.148,0.454-1.645,1.438-1.906c1.729-0.462,3.483-0.838,5.206-1.318
		c1.394-0.389,2.761-0.87,4.132-1.326c0.241-0.084,0.495-0.223,0.658-0.41c0.2-0.233,0.311-0.543,0.46-0.814
		c-0.245-0.131-0.487-0.345-0.747-0.375c-0.361-0.043-0.75,0.009-1.107,0.097c-1.477,0.364-2.947,0.769-4.423,1.136
		c-0.813,0.205-0.878,0.153-1.36-0.767c0.707-0.671,1.543-1.127,2.495-1.378c0.534-0.143,1.094-0.215,1.61-0.412
		c1.492-0.557,3.067-0.593,4.619-0.8c0.786-0.102,1.241,0.509,1.037,1.286c-0.074,0.29-0.12,0.626-0.298,0.838
		c-0.396,0.471-0.473,1.01-0.467,1.567c0.006,0.62-0.348,0.874-0.839,1.166c-2.663,1.577-5.634,2.146-8.595,2.752
		c-0.768,0.155-1.529,0.327-2.298,0.466C938.388,175.84,937.915,175.877,937.333,175.95z"/>
	<path fill="#B0A62C" d="M924.657,233.646c0.112-1.123,0.232-2.076,0.291-3.035c0.037-0.629,0.413-0.854,0.934-0.904
		c2.484-0.262,4.965-0.533,7.453-0.738c1.031-0.086,2.073-0.014,3.087-0.014c0.356,0.482,0.231,0.846-0.062,1.256
		c-0.887,1.252-2.244,1.717-3.601,2.107c-2.074,0.598-4.156,1.207-6.333,1.322C925.883,233.67,925.334,233.646,924.657,233.646z"/>
	<g>
		<path fill="#FFF1AB" d="M882.979,50.637c0.328-0.711,1.091-0.826,1.673-1.168c2.219-1.297,4.666-1.745,7.194-1.853
			c2.351-0.097,4.685-0.036,6.985,0.511c0.14,0.035,0.271,0.092,0.501,0.168c-1.146,2.004-2.268,3.955-3.453,6.024
			c-0.193-0.302-0.354-0.49-0.443-0.71c-0.921-2.26-2.702-3.464-4.95-4.166c-2.015-0.629-3.891-0.283-5.742,0.578
			c-0.566,0.264-1.194,0.399-1.795,0.595L882.979,50.637z"/>
		<path fill="#FFF1AB" d="M900.561,49.977c1.57,0.651,2.783,2.502,2.665,4.143c-0.104,1.486-0.583,2.848-1.79,3.853
			c-0.528,0.441-1.03,0.724-1.811,0.638c-0.785-0.082-1.607,0.166-2.465,0.279c-0.391-1.053-0.365-2.013,0.247-3.053
			C898.524,53.946,899.497,51.972,900.561,49.977z"/>
	</g>
	<path fill="#FFF1AB" d="M887.323,97.625c0.162,1.018,0.289,2.044,0.487,3.055c0.185,0.912,0.41,1.82,0.688,2.701
		c1.266,4.027,2.604,8.029,3.824,12.066c0.748,2.476,1.026,5.026,0.707,7.617c-0.023,0.186-0.029,0.377-0.076,0.556
		c-0.076,0.286-0.183,0.563-0.34,0.839c0.045-0.508,0.124-1.013,0.13-1.52c0.031-3.041-0.792-5.901-1.896-8.688
		c-0.59-1.494-1.303-2.938-1.884-4.43c-0.317-0.82-0.448-1.712-0.714-2.55c-0.543-1.708-1.234-3.377-1.648-5.112
		C886.24,100.636,886.231,99.052,887.323,97.625z"/>
	<path fill="#E9E345" d="M888.602,159.602c0.183,0.233,0.322,0.527,0.556,0.683c0.448,0.303,0.934,0.581,1.438,0.769
		c0.453,0.165,0.836-0.027,1.142-0.449c0.698-0.977,1.034-2.074,1.072-3.251c0.063-1.942,0.063-3.868-0.656-5.747
		c-0.47-1.214-0.656-2.529-1.058-3.77c-0.387-1.193-0.89-2.35-1.405-3.693c0.901,0.863,1.227,1.888,1.635,2.834
		c1.124,2.594,1.629,5.34,1.887,8.146c0.119,1.297,0.426,2.592,0.402,3.888c-0.037,1.86-0.289,3.718-0.472,5.575
		c-0.098,0.998-0.239,1.992-0.398,3.266c-0.8-1.534-1.46-2.862-2.177-4.16c-0.724-1.306-1.5-2.575-2.248-3.862
		C888.413,159.754,888.508,159.678,888.602,159.602z"/>
	<path fill="#FFFFFF" d="M889.229,139.502c1.365-1.127,2.615-0.92,3.197,0.572c0.461,1.171,0.726,2.425,0.965,3.664
		c0.549,2.815,1.059,5.643,1.521,8.473c0.199,1.209,0.271,2.441,0.369,3.666c0.031,0.354-0.051,0.718-0.094,1.219
		c-0.461-0.324-0.515-0.663-0.576-1.025c-0.278-1.692-0.519-3.391-0.892-5.064c-0.36-1.633-0.864-3.236-1.321-4.849
		c-0.185-0.646-0.433-1.271-0.615-1.917C891.29,142.5,890.627,140.849,889.229,139.502z"/>
	<path fill="#FFFFFF" d="M949.25,174.106c-0.058,0.531-0.01,0.846-0.133,1.061c-0.563,0.991-1.277,1.797-2.447,2.137
		c-1.645,0.477-3.264,1.045-4.975,1.197c-0.767,0.07-1.559-0.057-2.326-0.166c-0.244-0.035-0.452-0.297-0.816-0.554
		c1.226-0.753,2.305-1.408,3.543-1.702c1.774-0.42,3.57-0.752,5.346-1.178C947.967,174.776,948.446,174.467,949.25,174.106z"/>
	<path fill="#FFF1AB" d="M925.973,70.501c-0.458-1.452-0.873-2.917-1.383-4.349c-0.506-1.422-1.104-2.807-1.686-4.26
		c0.933,0.146,1.621,0.983,2.91,3.473C926.672,67.03,926.796,68.737,925.973,70.501z"/>
	<path fill="#E8DE8C" d="M888.6,129.092c-1.674,0.982-3.397,0.624-4.506-0.779c-1.112-1.416-1.192-3.591-0.072-5.291
		c0.091,0.4,0.199,0.653,0.186,0.9c-0.108,1.701,0.607,3.051,1.814,4.158c0.544,0.496,1.165,0.936,1.988,0.854
		C888.14,128.922,888.278,129.003,888.6,129.092z"/>
	<path fill="#FFFFFF" d="M940.529,181.116c-0.015-0.982,0.699-1.242,1.316-1.518c2.22-0.983,2.779-0.936,4.443,0.251
		C945.633,181.293,942.672,181.593,940.529,181.116z"/>
	<path fill="#FFF1AB" d="M934.138,69.516c1.397,0.864,1.518,2.062,1.473,3.375c-0.056,1.737-0.572,3.365-1.062,5.002
		c-0.122,0.41-0.249,0.812-0.376,1.221c-0.083-0.015-0.163-0.029-0.247-0.043c0.101-1.123,0.074-2.27,0.327-3.355
		C934.729,73.675,934.736,71.672,934.138,69.516z"/>
	<path fill="#FFFFFF" d="M909.321,170.122c-1.142,0.176-5.183-1.436-6.765-2.73c1.188,0.45,2.486-0.26,3.655,0.469
		C907.293,168.528,908.579,168.91,909.321,170.122z"/>
	<path fill="#FFF1AB" d="M937.538,113.246c0.463,0.505,0.438,1.011,0.426,1.534c-0.052,2.372-0.674,4.629-1.354,6.875
		c-0.054,0.166-0.166,0.315-0.371,0.701c0.088-1.018,0.141-1.774,0.225-2.529c0.137-1.253,0.303-2.502,0.437-3.755
		c0.039-0.369,0.002-0.745,0.008-1.115C936.917,114.265,937.052,113.887,937.538,113.246z"/>
	<path fill="#FFF6C9" d="M936.22,75.305c0.456,2.069,0.055,4.033-0.872,6.004c-0.09-0.236-0.229-0.469-0.266-0.715
		c-0.178-1.258,0.218-2.436,0.555-3.617C935.799,76.411,936.024,75.863,936.22,75.305z"/>
	<path fill="#FFFFFF" d="M914.94,146.072c-0.337-2.27-0.673-4.538-1.029-6.967c0.893,0.396,1.233,1.121,1.252,1.843
		c0.039,1.708-0.084,3.416-0.141,5.124C914.995,146.072,914.967,146.072,914.94,146.072z"/>
	<path fill="#FFF1AB" d="M905.043,57.323c0-1.477,0-2.865,0-4.416c0.742,0.926,1.211,1.82,1.266,2.879
		C906.352,56.636,906.106,56.911,905.043,57.323z"/>
	<path fill="#FFF1AB" d="M936.22,122.75c-0.075,0.847-0.204,1.696-0.215,2.543c-0.024,1.938,0.915,2.856,2.856,2.876
		c0.067,0,0.135,0.053,0.203,0.083c-0.31,0.81-0.796,1.088-1.486,0.741c-0.637-0.318-1.171-0.774-1.443-1.491
		c-0.383-1.001-0.516-2.024-0.373-3.077c0.081-0.578,0.223-1.146,0.334-1.721C936.139,122.719,936.179,122.735,936.22,122.75z"/>
	<path fill="#FFFFFF" d="M890.116,127.508c-1.371,0.682-2.629,0.636-3.904-0.665C887.704,126.77,888.926,126.983,890.116,127.508z"
		/>
	<path fill="#FFF6C9" d="M878.237,94.952c0.557,1.701,1.614,3.029,3.106,4.127c-1.068,0.076-1.67-0.391-2.062-1.24
		C878.848,96.909,878.311,96.02,878.237,94.952z"/>
	<path fill="#FFFFFF" d="M907.641,133.582c0.774,0.677,1.553,1.349,2.328,2.028c-0.061,0.066-0.121,0.133-0.18,0.203
		c-0.822-0.621-1.807-1.061-2.385-1.961C907.485,133.76,907.562,133.672,907.641,133.582z"/>
	<path fill="#FFFFFF" d="M891.964,175.442c0.177,0.666,0.374,1.25,0.47,1.848c0.045,0.273-0.112,0.573-0.295,0.844
		C891.698,177.257,891.872,176.386,891.964,175.442z"/>
	<path fill="#FFFFFF" d="M884.396,252.021c-0.534-0.666-0.913-1.135-1.291-1.603C883.898,250.799,884.04,250.98,884.396,252.021z"/>
	<path fill="#FFFFFF" d="M916.562,255.713c-0.482-0.096-0.969-0.188-1.45-0.279c0.012-0.076,0.022-0.149,0.034-0.227
		c0.484,0.074,0.968,0.146,1.453,0.219C916.588,255.518,916.573,255.615,916.562,255.713z"/>
	<path fill="#FFFFFF" d="M901.595,166.899c-0.339-0.176-0.677-0.354-1.206-0.637c0.672-0.033,1.07,0.012,1.336,0.402
		C901.683,166.743,901.637,166.821,901.595,166.899z"/>
	<path fill="#FFFFFF" d="M907.659,172.625c0.42-0.055,0.84-0.17,1.226,0.166c-0.404-0.058-0.812-0.111-1.222-0.168L907.659,172.625z
		"/>
	<path fill="#FFFFFF" d="M882.945,50.616c-0.268,0.222-0.53,0.445-0.798,0.67c-0.04-0.074-0.087-0.146-0.13-0.22
		c0.316-0.144,0.636-0.289,0.955-0.429C882.979,50.637,882.945,50.616,882.945,50.616z"/>
	<g>
		<g>
			<path fill="#29353A" d="M965.527,337.975c1.401-0.793,2.764-0.914,4.121-1.106c1.176-0.168,2.336-0.457,3.497-0.719
				c0.236-0.05,0.447-0.224,0.847-0.429c-0.422-0.143-0.676-0.25-0.937-0.309c-2.125-0.459-4.266-0.713-6.45-0.539
				c-1.861,0.152-3.729,0.148-5.589,0.268c-2.678,0.17-5.355,0.396-8.036,0.584c-1.676,0.117-3.362,0.156-5.03,0.32
				c-2.781,0.271-5.56,0.525-8.297,1.187c-2.42,0.582-4.916,0.866-7.38,1.282c-1.432,0.242-2.864,0.496-4.296,0.734
				c-0.808,0.135-1.616,0.271-2.43,0.361c-2.11,0.235-4.226,0.457-6.336,0.666c-3.001,0.295-6.011,0.543-9.007,0.868
				c-1.742,0.191-3.469,0.523-5.205,0.753c-0.644,0.086-1.358-0.095-1.935,0.127c-0.629,0.246-1.234,0.446-1.906,0.557
				c-3.128,0.502-6.259,0.996-9.362,1.621c-2.483,0.504-4.936,1.16-7.385,1.805c-3.043,0.799-6.151,1.193-9.248,1.67
				c-0.111,0.019-0.221,0.037-0.333,0.045c-0.994,0.052-1.108-0.08-1.05-1.162c0.082-0.061,0.163-0.161,0.264-0.182
				c3.067-0.625,6.143-1.236,9.211-1.863c1.572-0.319,3.132-0.68,4.702-1c3.107-0.635,6.218-1.264,9.328-1.883
				c2.048-0.408,4.097-0.813,6.153-1.176c3.821-0.672,7.651-1.305,11.479-1.949c2.953-0.496,5.939-0.592,8.925-0.76
				c2.757-0.154,5.52-0.32,8.256-0.656c2.183-0.264,4.325-0.811,6.493-1.192c4.412-0.777,8.828-1.486,13.312-1.757
				c1.744-0.1,3.478-0.459,5.226-0.567c2.42-0.146,4.854-0.222,7.283-0.222c2.459-0.002,4.92,0.089,7.379,0.214
				c0.848,0.041,1.688,0.289,2.525,0.469c0.288,0.062,0.555,0.223,0.829,0.334c0.523,0.209,0.962,0.584,0.984,1.125
				c0.027,0.627-0.594,0.844-1.072,0.99c-1.037,0.309-2.102,0.518-3.147,0.791C969.119,337.99,967.68,338.162,965.527,337.975z"/>
			<path fill="#29353A" d="M900.012,333.488c-2.877,0.953-5.791,0.854-8.686,0.994c-1.752,0.082-3.498,0.282-5.244,0.452
				c-1.818,0.179-3.641,0.359-5.453,0.578c-2.113,0.254-4.229,0.494-6.329,0.83c-2.691,0.431-5.382,0.894-8.05,1.449
				c-2.775,0.57-5.523,1.281-8.285,1.914c-1.127,0.258-2.271,0.434-3.391,0.705c-2.103,0.518-4.197,1.057-6.285,1.621
				c-2.523,0.68-5.033,1.416-7.559,2.092c-0.718,0.193-1.465,0.309-2.203,0.348c-0.263,0.011-0.629-0.246-0.791-0.485
				c-0.24-0.353,0.08-0.564,0.355-0.804c0.589-0.5,1.234-0.752,2.005-0.875c1.654-0.27,3.298-0.645,4.942-0.975
				c2.562-0.518,5.127-1.023,7.684-1.559c1.461-0.306,2.905-0.681,4.363-0.996c2.989-0.648,5.975-1.328,8.979-1.904
				c2.64-0.506,5.315-0.814,7.95-1.33c3.265-0.647,6.559-1.072,9.854-1.453c2.189-0.254,4.396-0.602,6.584-0.537
				c2.053,0.058,4.086-0.127,6.128-0.071C897.729,333.512,898.87,333.488,900.012,333.488z"/>
			<g>
				<path fill="#29353A" d="M910.874,96.223c-0.278,0.188-0.49,0.449-0.738,0.485c-2.171,0.319-4.127,1.19-6.008,2.262
					c-0.604,0.343-1.188,0.722-1.828,1.11c-0.349-0.281-0.308-0.568,0.008-0.893c0.777-0.807,1.666-1.416,2.739-1.793
					c1.535-0.546,3.057-1.149,4.577-1.736C910.119,95.465,910.483,95.59,910.874,96.223z"/>
				<path fill="#29353A" d="M933.663,93.521c-1.429,0.001-2.657,0.577-3.795,1.38c-0.303,0.215-0.555,0.197-0.77-0.096
					c-0.251-0.336-0.029-0.545,0.231-0.733c0.567-0.41,1.088-0.835,1.889-0.827c0.57,0.009,1.146-0.288,1.719-0.445
					C933.53,92.639,933.555,92.663,933.663,93.521z"/>
				<g>
					<path fill="#29353A" d="M909.202,128.989c-0.928,0.602-1.584,1.369-1.699,2.565c2.229,1.177,3.745,3.103,5.248,5.066
						c0.577,0.749,1.353,1.399,2.156,1.903c1.044,0.654,1.604,1.553,1.83,2.691c0.492,2.494,1.744,4.676,2.819,6.928
						c0.904,1.885,1.839,3.758,2.728,5.65c1.711,3.652,3.397,7.317,5.1,10.975c0.58,1.241,1.198,1.505,2.494,1.073
						c0.248-0.079,0.477-0.267,0.726-0.284c1.235-0.092,1.612-0.908,1.881-1.97c0.668-2.645,1.359-5.288,2.155-7.894
						c0.752-2.463,1.614-4.893,2.494-7.314c0.919-2.53,1.914-5.027,2.873-7.539c0.16-0.421,0.332-0.836,0.451-1.266
						c0.309-1.104,1.148-1.893,2.264-1.951c0.881-0.045,1.789-0.072,2.659,0.076c2.427,0.405,4.884,0.787,7.174,1.742
						c1.231,0.515,2.444,1.132,3.538,1.889c1.345,0.93,2.55,2.057,3.824,3.092c0.651,0.528,0.624,1.131,0.437,1.906
						c-0.646,2.631-1.96,5.003-2.817,7.553c-0.704,2.088-1.507,4.142-2.281,6.203c-0.171,0.453-0.449,0.865-0.62,1.315
						c-0.379,1.007-0.756,2.021-1.062,3.058c-0.086,0.284,0.055,0.65,0.127,0.97c0.11,0.509,0.271,1.007,0.379,1.519
						c0.136,0.629-0.029,1.244-0.487,1.645c-0.656,0.57-0.702,1.229-0.63,2.01c0.159,1.645-0.117,3.141-1.32,4.444
						c-0.637,0.688-0.993,1.644-1.477,2.479c-0.204,0.352-0.385,0.722-0.633,1.037c-1.074,1.359-2.392,2.443-3.809,3.428
						c-0.66,0.459-1.292,1.021-1.771,1.664c-0.529,0.701-1.233,0.968-1.986,1.232c-1.826,0.641-3.639,1.312-5.462,1.947
						c-1.021,0.355-2.027,0.74-3.152,0.717c-0.497-0.01-1.048,0.148-1.5,0.375c-1.07,0.529-1.949,0.152-2.818-0.425
						c-0.961-0.638-1.389-1.517-1.192-2.677c0.207-1.215,0.384-2.432,0.611-3.641c0.334-1.799,0.698-3.594,1.062-5.449
						c-0.157-0.088-0.334-0.238-0.536-0.291c-0.857-0.224-1.729-0.379-2.576-0.626c-1.627-0.466-2.878-1.509-3.702-2.921
						c-1.222-2.096-2.249-4.301-3.392-6.442c-0.562-1.052-1.189-2.066-1.8-3.087c-0.125-0.208-0.319-0.371-0.541-0.613
						c-0.073,0.199-0.142,0.295-0.141,0.389c0.061,1.865,0.134,3.734,0.2,5.601c0.033,0.899,0.067,1.796,0.08,2.694
						c0.031,3.11,0.312,6.199,0.888,9.251c0.338,1.79,0.851,3.558,1.404,5.296c0.636,1.987,1.414,3.928,2.11,5.902
						c1.166,3.312,2.521,6.548,4.013,9.731c1.489,3.191,3.131,6.283,4.998,9.265c1.09,1.74,1.948,3.627,2.993,5.396
						c1.044,1.771,2.163,3.5,3.298,5.22c1.516,2.299,3.069,4.575,4.616,6.856c0.121,0.176,0.312,0.31,0.47,0.465
						c0.389,0.39,0.813,0.75,1.153,1.179c0.278,0.36,0.402,0.784,0.168,1.266c-0.143,0.296-0.135,0.662-0.271,0.966
						c-0.135,0.291-0.309,0.633-0.564,0.793c-1.103,0.698-2.262,1.295-3.535,1.631c-1.478,0.393-2.937,0.877-4.431,1.182
						c-3.141,0.639-6.221,1.6-9.442,1.801c-0.104,0.006-0.208,0.057-0.459,0.127c0.049,0.977,0.138,1.971,0.141,2.967
						c0.003,1.076-0.053,2.154-0.135,3.229c-0.023,0.321-0.178,0.653-0.345,0.938c-1.062,1.868-1.625,3.912-2.166,5.973
						c-0.622,2.352-1.008,4.742-1.233,7.15c-0.17,1.817-0.121,3.649-0.183,5.475c-0.062,1.859-0.146,3.721-0.202,5.586
						c-0.052,1.562-0.103,3.127-0.105,4.689c-0.004,0.819,0.124,1.643,0.124,2.463c-0.005,3.291,0.35,6.559,0.642,9.834
						c0.265,2.955,0.924,5.824,1.435,8.725c0.059,0.33,0.119,0.674,0.244,0.979c0.224,0.545,0.365,1.353,0.773,1.543
						c0.696,0.32,1.575,0.314,2.376,0.316c1.074,0.008,2.152-0.123,3.229-0.178c1.645-0.082,3.286-0.184,4.929-0.219
						c1.608-0.039,3.189,0.059,4.691,0.793c0.522,0.254,1.253,0.295,1.837,0.176c1.685-0.342,3.097,0.174,4.38,1.186
						c0.906,0.719,1.961,0.982,3.056,1.26c1.516,0.385,2.977,0.972,4.46,1.478c0.816,0.276,1.606,0.614,2.218,1.256
						c0.225,0.238,0.472,0.513,0.57,0.812c0.759,2.274,0.987,4.588,0.395,6.948c-0.279,1.121-0.502,2.256-0.724,3.392
						c-0.039,0.196,0.013,0.438,0.095,0.623c0.223,0.496,0.481,0.975,0.825,1.653c0.146,0.025,0.497,0.117,0.853,0.134
						c1.975,0.084,3.953,0.17,5.929,0.211c0.854,0.016,1.711-0.115,2.568-0.121c2.094-0.023,4.188,0.002,6.28-0.011
						c2.882-0.016,5.761-0.051,8.64-0.069c4.08-0.027,8.141,0.293,12.201,0.641c0.817,0.074,1.627,0.025,2.293,0.607
						c-0.023,1.278-0.166,1.481-1.244,1.914c-0.861,0.35-1.722,0.7-2.566,1.092c-3.396,1.58-6.901,2.844-10.578,3.619
						c-0.657,0.141-1.323,0.268-1.959,0.483c-2.801,0.955-5.723,1.388-8.606,1.945c-2.959,0.572-5.918,1.203-8.943,1.379
						c-1.307,0.078-2.606,0.217-3.911,0.273c-4.036,0.178-8.073,0.334-12.107,0.491c-2.494,0.099-4.992,0.156-7.484,0.289
						c-2.457,0.127-4.91,0.394-7.367,0.453c-1.178,0.033-2.355-0.112-3.55,0.021c-1.437,0.17-2.886,0.235-4.331,0.319
						c-3.047,0.171-6.098,0.345-9.146,0.478c-2.315,0.102-4.633,0.121-6.947,0.215c-3.314,0.137-6.623,0.352-9.938,0.449
						c-1.452,0.041-2.909-0.156-4.364-0.191c-1.531-0.043-3.064-0.065-4.595-0.02c-1.284,0.039-2.514-0.32-3.767-0.412
						c-2.091-0.148-4.193-0.078-6.292-0.09c-1.643-0.015-3.289-0.037-4.932,0c-1.31,0.022-2.614,0.149-3.923,0.211
						c-2.163,0.1-4.329,0.188-6.493,0.278c-1.863,0.078-3.729,0.179-5.593,0.23c-1.311,0.033-2.619-0.041-3.929,0.008
						c-3.474,0.127-6.945,0.291-10.417,0.457c-0.969,0.045-1.933,0.17-2.9,0.215c-1.854,0.093-3.715,0.104-5.565,0.24
						c-2.688,0.189-5.356,0.041-8.029-0.219c-1.004-0.099-2.022-0.023-3.034-0.019c-0.508,0.009-0.991-0.028-1.224-0.575
						c-0.196-0.464,0.06-1.388,0.478-1.712c0.438-0.338,0.854-0.645,1.472-0.713c0.648-0.08,1.269-0.42,1.898-0.643
						c3.205-1.137,6.392-2.342,9.621-3.396c2.306-0.752,4.664-1.34,7.015-1.938c3.654-0.935,7.321-1.818,10.983-2.711
						c1.308-0.318,2.616-0.613,3.933-0.883c0.61-0.125,0.877-0.468,0.968-1.052c0.351-2.248,0.722-4.491,1.079-6.741
						c0.021-0.144,0.03-0.314-0.029-0.437c-0.24-0.492-0.037-0.836,0.292-1.199c0.347-0.389,0.604-0.854,0.923-1.266
						c0.242-0.311,0.372-0.629,0.266-1.031c-0.146-0.549,0.041-0.93,0.457-1.373c2.072-2.209,4.08-4.469,6.101-6.719
						c0.733-0.818,1.586-1.473,2.658-1.725c0.624-0.146,0.994-0.529,1.229-1.027c0.597-1.25,0.985-2.566,1.193-3.951
						c0.562-3.738,0.662-7.502,0.772-11.27c0.033-1.225,0.254-2.443,0.415-3.666c0.368-2.771,0.532-5.594,1.175-8.301
						c1.158-4.894,3.115-9.519,5.518-13.939c0.59-1.08,1.286-2.104,1.96-3.139c1.61-2.465,3.262-4.904,4.851-7.385
						c1.54-2.41,2.612-5.025,3.345-7.873c-1.358-0.16-2.688-0.258-3.994-0.482c-3.282-0.557-6.532-1.256-9.584-2.654
						c-2.038-0.932-4.108-1.795-6.108-2.799c-2.242-1.125-4.319-2.518-6.135-4.27c-0.562-0.545-0.658-1.015-0.262-1.695
						c0.411-0.711,0.869-1.398,1.354-2.059c2.406-3.293,4.854-6.549,7.234-9.857c2.117-2.945,4.156-5.945,6.242-8.912
						c0.485-0.693,1.026-1.35,1.729-2.268c-0.874,0.053-1.505,0-2.082,0.147c-2.698,0.692-5.447,1.101-8.205,0.808
						c-2.235-0.234-4.526-0.515-6.516-1.777c-0.156-0.1-0.33-0.188-0.508-0.236c-1-0.269-1.568-0.892-1.814-1.914
						c-0.324-1.337-0.793-2.641-1.123-3.979c-0.384-1.555-0.737-3.123-1.01-4.701c-0.549-3.16-1.12-6.318-1.519-9.5
						c-0.268-2.141-0.254-4.316-0.368-6.477c-0.032-0.625-0.068-1.251-0.105-1.928c-0.49,0-0.892-0.016-1.291,0.006
						c-0.259,0.013-0.512,0.12-0.768,0.121c-0.683,0.006-0.922-0.344-0.727-1.007c0.59-1.988,0.918-3.958,0.348-6.052
						c-0.242-0.883,0.102-1.914,0.036-2.871c-0.056-0.832,0.17-1.537,0.531-2.242c0.339-0.662,0.613-1.371,1.025-1.982
						c0.483-0.715,0.616-1.511,0.771-2.314c0.411-2.125,0.959-4.236,1.18-6.379c0.188-1.846,0.979-3.416,1.727-5.019
						c0.629-1.342,1.42-2.611,2.178-3.89c0.949-1.604,1.771-3.277,2.947-4.752c1.236-1.547,2.438-3.09,3.973-4.377
						c1.578-1.318,3.325-2.311,5.229-2.973c1.614-0.56,3.317-0.859,4.986-1.258c0.971-0.233,1.95-0.443,2.817-0.639
						c0.207-0.908,0.33-1.719,0.584-2.487c0.289-0.862,0.972-1.41,1.802-1.746c0.263-0.104,0.59-0.146,0.87-0.104
						c0.508,0.074,0.936,0.81,0.617,1.082c-0.862,0.742-0.483,1.537-0.271,2.416c1.979,0.26,4.004-0.416,5.994,0.299
						c0.584-0.846,0.678-1.777,0.688-2.686c0.033-2.451-0.25-4.852-1.322-7.105c-0.334-0.695-0.68-1.307-1.584-1.304
						c-0.167,0-0.354-0.114-0.497-0.222c-1.053-0.772-2.093-1.558-3.144-2.328c-1.443-1.061-2.896-2.109-4.342-3.164
						c-0.33-0.24-0.654-0.488-0.98-0.735c-1.953-1.474-2.682-3.595-3.121-5.934c-0.146-0.058-0.311-0.159-0.483-0.185
						c-1.402-0.213-2.305-1.096-3.107-2.184c-0.998-1.348-1.771-2.766-1.86-4.477c-0.156-2.916,0.523-5.617,2.048-8.123
						c0.755-1.247,1.394-2.562,2.079-3.854c0.081-0.157,0.112-0.344,0.143-0.443c-0.725-0.412-1.439-0.741-2.067-1.191
						c-1.855-1.326-2.476-3.195-2.233-5.401c0.222-2.022,0.72-3.97,1.714-5.761c0.578-1.043,0.801-2.12,0.822-3.316
						c0.021-1.259,0.287-2.515,0.473-3.769c0.17-1.14,0.33-2.288,0.584-3.407c0.156-0.682,0.475-1.324,0.725-1.983
						c1.44-3.805,3.896-6.797,7.326-8.952c2.678-1.685,5.609-2.623,8.805-2.584c1.753,0.021,3.505,0.072,5.257,0.158
						c0.625,0.033,1.25,0.205,1.873,0.312c0.291,0.051,0.575,0.106,0.896,0.166c1.188-1.75,2.197-3.533,2.948-5.453
						c0.104-0.27,0.08-0.588,0.121-0.883c0.065-0.44,0.093-0.897,0.226-1.32c0.24-0.781,0.896-1.114,1.551-0.861
						c0.648,0.251,0.968,0.965,0.688,1.659c-0.135,0.344-0.317,0.683-0.544,0.968c-1.518,1.896-2.396,4.106-3.312,6.367
						c3.271,1.941,5.989,4.37,7.605,7.988c0.678-0.389,1.305-0.697,1.877-1.088c2.317-1.576,4.617-3.176,6.926-4.765
						c1.017-0.702,2.045-1.386,3.044-2.108c0.416-0.305,0.796-0.678,1.139-1.064c0.456-0.514,1.003-0.667,1.619-0.463
						c0.583,0.197,0.866,0.691,0.952,1.287c0.148,1.035-0.719,2.023-1.771,1.928c-0.871-0.078-1.536,0.203-2.265,0.66
						c-2.245,1.411-4.573,2.692-6.846,4.066c-1.396,0.844-2.749,1.761-4.121,2.648c0.021,0.09,0.041,0.179,0.058,0.27
						c0.346,0,0.713,0.077,1.032-0.014c1.648-0.458,3.267,0.045,4.898,0.137c0.518,0.029,1.028,0.16,1.545,0.242
						c1.885,0.291,3.547,1.075,5.117,2.15c1.102,0.756,2.27,1.447,3.49,1.99c1.362,0.606,2.525,1.441,3.535,2.506
						c0.315,0.336,0.651,0.543,1.071,0.732c0.633,0.285,1.263,0.655,1.771,1.123c1.674,1.546,3.317,3.119,4.592,5.039
						c1.055,1.587,1.684,3.318,1.998,5.182c0.215,1.268,0.063,2.5-0.288,3.738c-0.272,0.965-0.462,1.967-0.563,2.965
						c-0.062,0.575-0.007,1.229,0.216,1.757c0.482,1.151,0.717,2.347,0.932,3.562c0.062,0.363,0.188,0.715,0.279,1.034
						c1.982,0.691,3.433,3.019,3.192,5.03c-0.144,1.211-0.13,2.457-0.418,3.629c-0.396,1.623-0.992,3.2-1.549,4.779
						c-0.205,0.588-0.58,1.113-0.808,1.696c-0.113,0.292-0.113,0.655-0.092,0.98c0.218,2.925,0.009,5.839-0.433,8.717
						c-0.306,1.983-0.948,3.914-1.442,5.868c-0.186,0.719-0.37,1.44-0.553,2.156c1.438,1.156,2.438,2.574,3.004,4.266
						c0.481,1.438-0.056,2.744-1.225,3.227c-1.52,0.623-2.932-0.039-3.636-1.318c-0.837-1.521-0.864-3.166-0.511-4.805
						c0.549-2.529,0.793-5.09,0.96-7.661c0.025-0.399-0.057-0.805-0.085-1.202c-0.138,0.006-0.246-0.013-0.263,0.018
						c-1.453,2.75-3.395,5.177-5.145,7.728c-0.718,1.044-1.436,2.094-2.226,3.08c-1.519,1.9-3.133,3.746-5.158,5.104
						c-1.226,0.818-2.642,1.361-4.22,0.715c-0.576-0.236-1.243-0.255-1.857-0.416C914.407,130.359,911.844,129.68,909.202,128.989z
						 M882.945,50.616c0.601-0.195,1.229-0.332,1.794-0.596c1.854-0.86,3.729-1.207,5.743-0.578
						c2.248,0.703,4.031,1.906,4.951,4.167c0.089,0.22,0.249,0.407,0.443,0.71c1.188-2.07,2.305-4.021,3.451-6.024
						c-0.229-0.079-0.361-0.134-0.5-0.168c-2.3-0.548-4.636-0.61-6.984-0.511c-2.529,0.107-4.979,0.555-7.194,1.853
						c-0.583,0.342-1.347,0.457-1.681,1.168c-0.317,0.141-0.635,0.286-0.953,0.429c0.044,0.072,0.088,0.145,0.131,0.219
						C882.416,51.061,882.68,50.837,882.945,50.616z M918.083,315.361c-0.231-1.884-0.502-3.615-0.642-5.361
						c-0.178-2.184-0.387-4.371-0.196-6.576c0.083-0.959,0.092-1.939-0.371-2.855c-0.16-0.317-0.138-0.721-0.218-1.084
						c-0.344-1.563-0.538-3.18-1.069-4.678c-1.03-2.904-1.674-5.893-2.332-8.879c-0.504-2.293-0.838-4.629-1.258-6.939
						c-0.463-2.536-0.991-5.057-1.393-7.602c-0.453-2.861-0.048-5.727,0.235-8.572c0.222-2.221,0.717-4.416,1.085-6.625
						c0.354-2.094,0.719-4.184,1.038-6.28c0.144-0.925,0.203-1.859,0.267-2.791c0.155-2.236,0.388-4.472,0.397-6.705
						c0.006-1.192-0.173-2.44-0.695-3.627c-0.305,0-0.563-0.013-0.819,0c-1.644,0.075-3.279,0.231-4.922,0.205
						c-1.748-0.023-3.506,0.286-5.248-0.117c-0.399-0.092-0.73,0.024-0.881,0.479c-0.257,0.776-0.621,1.528-0.8,2.321
						c-0.409,1.82-1.146,3.494-2.385,4.867c-0.76,0.842-1.39,1.746-1.897,2.724c-1.652,3.188-3.264,6.396-4.865,9.604
						c-1.849,3.711-3.665,7.436-5.494,11.15c-0.148,0.303-0.283,0.61-0.42,0.92c-0.502,1.125-1.041,2.229-1.498,3.373
						c-1.131,2.846-2.352,5.662-3.308,8.569c-1.217,3.693-1.96,7.509-2.287,11.396c-0.2,2.341-0.478,4.63,0.466,6.898
						c0.643,1.557,1.074,3.209,2.212,4.498c0.656,0.744,0.796,1.535,0.771,2.475c-0.028,1.042,0.029,2.091,0.159,3.121
						c0.275,2.144,0.897,4.242,0.786,6.439c-0.024,0.451,0.078,0.908,0.121,1.365c2.463-0.209,4.797-0.443,7.133-0.59
						c1.455-0.097,2.916-0.023,4.371-0.099c1.229-0.063,2.448-0.299,3.674-0.348c2.876-0.115,5.758-0.182,8.635-0.24
						c3.476-0.065,6.951-0.1,10.427-0.174C917.274,315.611,917.68,315.449,918.083,315.361z M874.801,181.125
						c-0.339,1.306-0.606,2.614-0.637,3.954c-0.051,2.271-0.004,4.548-0.082,6.818c-0.064,1.863-1.104,3.018-2.976,3.512
						c-1.01,0.266-2.014,0.554-3.026,0.805c-2.055,0.507-3.359,0.039-4.477-1.59c-0.125-0.185-0.232-0.387-0.308-0.596
						c-0.438-1.229-0.922-2.441-1.276-3.696c-0.601-2.116-1.111-4.262-1.675-6.39c-0.247-0.939,0.148-1.619,0.892-2.09
						c0.654-0.413,1.356-0.785,2.086-1.051c1.468-0.536,2.969-0.985,4.536-1.492c-1.236-0.404-2.415-0.896-3.645-1.156
						c-1.434-0.309-2.618-0.914-3.543-2.062c-0.434-0.541-0.673-1.475-0.334-2.076c1.06-1.891,2.104-3.789,3.251-5.622
						c1.368-2.185,2.796-4.334,4.28-6.44c0.658-0.935,1.051-1.836,1.151-3.018c0.164-1.889,0.701-3.74,0.65-5.666
						c-0.009-0.4,0.103-0.814,0.206-1.21c0.423-1.585,0.86-3.167,1.303-4.746c0.239-0.852-0.023-1.235-0.915-1.343
						c-0.399-0.049-0.793-0.145-1.191-0.208c-0.312-0.048-0.641-0.161-0.938-0.104c-2.067,0.401-3.938,1.354-5.849,2.044
						c-0.091,0.466-0.11,0.849-0.242,1.189c-0.363,0.937-0.752,1.864-1.168,2.777c-1.336,2.933-1.898,6.065-2.284,9.214
						c-0.408,3.331-0.606,6.687-0.838,10.035c-0.07,0.999,0.033,2.012,0.096,3.012c0.062,1.006,0.152,2.012,0.262,3.01
						c0.189,1.74,0.228,3.518,0.645,5.2c1.091,4.422,2.321,8.81,3.563,13.19c0.313,1.104,0.866,2.145,1.343,3.199
						c0.312,0.689,0.865,1.115,1.617,1.242c0.477,0.085,0.96,0.189,1.438,0.189c2.622,0.004,5.236-0.172,7.76-0.914
						c1.968-0.572,3.923-1.237,5.8-2.05c2.51-1.089,1.998-0.548,2.58-3.034c0.475-2.035,0.551-1.496-0.904-2.822
						c-1.031-0.942-1.549-2.131-1.812-3.602c1.159-0.515,2.265-1.044,3.396-1.501c1.161-0.466,1.436-0.309,1.804,0.948
						c0.136,0.459,0.41,0.65,0.824,0.494c0.519-0.194,1.061-0.4,1.494-0.732c0.963-0.732,1.684-1.646,1.988-2.873
						c0.198-0.797,0.557-1.555,0.875-2.413c-1.562,0.487-2.951,1.038-4.486,0.903c-0.326-0.033-0.689,0.015-0.992,0.139
						c-0.738,0.297-1.215-0.012-1.621-0.578c-0.147-0.207-0.295-0.417-0.395-0.562C880.253,181.282,877.57,181.205,874.801,181.125z
						 M939.706,172.327c-0.265-0.337-0.435-0.537-0.584-0.747c-0.961-1.333-0.621-2.599,0.926-3.216
						c0.576-0.23,1.228-0.273,1.842-0.42c2.64-0.626,5.052-1.814,7.468-2.995c0.534-0.262,0.869-0.638,1.1-1.193
						c1.36-3.251,2.467-6.578,3.227-10.02c0.55-2.481,0.968-4.981,0.705-7.556c-0.113-1.133-0.305-2.196-1.012-3.139
						c-0.785-1.052-1.779-1.795-2.975-2.289c-2.223-0.916-4.383-0.873-6.055,0.924c-1.454,1.561-2.445,3.4-3.165,5.369
						c-0.731,1.99-1.309,4.037-1.922,6.068c-0.806,2.643-1.591,5.292-2.362,7.942c-1.49,5.126-3.008,10.245-4.43,15.39
						c-0.579,2.101-0.973,4.26-1.383,6.404c-0.138,0.729-0.102,1.495-0.054,2.236c0.028,0.46,0.228,0.908,0.34,1.324
						c3.378,0.07,8.709-1.863,10.05-3.623c-0.154-0.045-0.304-0.15-0.421-0.119c-1.022,0.285-1.981-0.162-2.973-0.232
						c-0.517-0.036-0.722-0.33-0.845-0.75c-0.159-0.536,0.045-0.936,0.713-1.361c0.276-0.175,0.57-0.324,0.854-0.482
						c-0.491-0.189-0.9-0.197-1.31-0.188c-0.562,0.014-1.127,0.096-1.682,0.054c-0.74-0.056-1.427-0.347-1.752-1.042
						c-0.312-0.671,0.094-1.22,0.54-1.709c0.074-0.081,0.114-0.189,0.174-0.29c-0.239-0.196-0.501-0.358-0.69-0.581
						c-0.516-0.602-0.368-1.582,0.33-1.941c1.146-0.588,2.168-1.475,3.556-1.537C938.458,172.583,938.999,172.44,939.706,172.327z
						 M886.125,141.959c-0.891,0.701-1.949,1.325-2.74,2.197c-2.165,2.373-4.242,4.828-6.303,7.295
						c-1.197,1.43-2.326,2.916-3.433,4.422c-1.876,2.549-3.733,5.116-5.551,7.711c-1.39,1.989-2.694,4.037-4.055,6.047
						c-0.839,1.24-1.677,2.466-2.084,3.942c-0.339,1.234,0.301,2.779,1.506,3.234c0.65,0.245,1.365,0.312,2.054,0.463
						c2.841,0.63,5.68,1.28,8.525,1.879c1.192,0.253,2.403,0.484,3.684,0.203c-0.099-1.047-0.515-1.907-1.099-2.694
						c-0.969-1.295-2.395-2.014-3.752-2.783c-0.414-0.235-1.033-0.252-1.525-0.176c-1.024,0.162-2.04,0.418-3.036,0.714
						c-0.433,0.127-0.769,0.142-0.93-0.283c-0.167-0.431,0.102-0.697,0.523-0.821c0.251-0.072,0.515-0.135,0.738-0.26
						c0.58-0.322,1.236-0.586,1.693-1.041c0.816-0.814,1.521-1.743,2.25-2.642c0.516-0.639,0.988-1.315,1.496-1.96
						c1.21-1.52,2.485-2.994,3.639-4.558c2.539-3.46,4.833-7.107,7.88-10.175c0.708-0.715,1.57-0.885,2.399-0.332
						c1.078,0.719,1.635,1.803,2.139,2.949c0.246,0.553,0.142,0.913-0.342,1.193c-0.324-0.146-1.514-0.496-1.623-0.482
						c-0.218,1.482-0.243,1.5,0.334,2.326c0.562,0.807,1.008,1.775,2.166,1.964c1.001-0.929,1.17-2.134,1.248-3.386
						c0.121-1.967-0.206-3.854-0.763-5.741c-0.743-2.517-1.397-5.055-2.825-7.29C887.825,143.064,887.284,142.226,886.125,141.959z
						 M861.543,145.448c0.488-0.172,0.896-0.336,1.314-0.463c0.891-0.27,1.774-0.65,2.686-0.742c0.809-0.08,1.494-0.393,2.233-0.633
						c1.837-0.6,3.699-1.116,5.559-1.658c0.141-0.042,0.295-0.036,0.446-0.042c1.43-0.038,2.83,0.106,4.188,0.587
						c0.493,0.176,0.998,0.318,1.502,0.463c0.465,0.135,0.849,0.07,1.197-0.339c2.176-2.538,4.938-4.334,7.852-5.847
						c1.798-0.932,3.273-2.214,4.787-3.48c0.394-0.329,0.727-0.759,1.017-1.193c1.102-1.646,0.914-2.338-0.82-3.207
						c-0.134-0.069-0.255-0.16-0.393-0.219c-0.682-0.301-1.332-0.415-1.97,0.156c-0.331,0.295-0.738,0.506-1.127,0.732
						c-1.52,0.881-3.082,1.416-4.9,0.99c-1.057-0.247-1.854-0.727-2.442-1.605c-0.164-0.245-0.322-0.5-0.471-0.735
						c-2.207-0.177-4.322,0.138-6.456,0.575c-2.027,0.416-3.852,1.16-5.442,2.458c-1.711,1.396-3.228,2.944-4.377,4.884
						c-1.415,2.381-2.756,4.789-3.852,7.332C861.811,144.063,861.502,144.665,861.543,145.448z M882.569,69.067
						c-0.652,0.055-1.164,0.172-1.648,0.107c-0.32-0.041-0.777-0.295-0.854-0.549c-0.066-0.223,0.275-0.617,0.514-0.863
						c0.17-0.172,0.454-0.247,0.702-0.32c1.277-0.381,2.546-0.953,3.847-1.054c1.141-0.088,2.023-0.651,3.029-0.962
						c0.144-0.041,0.289-0.094,0.413-0.17c0.156-0.097,0.322-0.195,0.431-0.339c1.543-1.967,3.051-3.95,3.893-6.353
						c0.269-0.766,0.296-1.499,0.22-2.305c-0.203-2.047-1.105-3.652-2.624-5.029c-0.749-0.682-1.535-1.049-2.495-1.039
						c-0.621,0.006-1.269,0.1-1.861,0.291c-0.955,0.311-1.871,0.74-2.809,1.111c-2.701,1.064-4.517,3.062-5.515,5.692
						c-1.01,2.655-1.646,5.436-1.02,8.312c0.369,1.703,0.801,3.398,1.305,5.064c0.166,0.543,0.613,1.021,1.013,1.455
						c0.305,0.332,0.7,0.379,1.049-0.065C880.909,71.088,881.692,70.147,882.569,69.067z M872.297,172.299
						c0.699,0.479,9.146,2.348,10.154,2.315c0.385-0.737,0.688-1.517,1.162-2.165c0.474-0.648,1.026-1.466,1.719-1.697
						c1.617-0.54,3.312-0.588,4.78,0.596c0.274,0.223,0.536,0.457,0.792,0.68c1.113-1.316,1.231-2.59,0.521-4.156
						c-1.459-3.21-3.187-6.256-5.139-9.182c-0.283-0.428-0.662-0.791-1.058-1.254C880.42,161.987,876.176,166.92,872.297,172.299z
						 M911.401,66.193c-0.437,0.714-0.783,0.257-1-0.013c-1.194-1.467-2.58-2.693-4.24-3.6c-1.176-0.643-2.353-1.286-3.562-1.861
						c-0.887-0.42-1.856-0.545-2.846-0.525c-1.111,0.025-2.238-0.075-3.334,0.072c-0.843,0.109-1.734,0.29-2.559,0.927
						c0.286,0.16,0.457,0.304,0.653,0.36c0.959,0.277,1.931,0.52,2.886,0.801c1.375,0.398,2.684,0.952,3.821,1.825
						c1.126,0.859,2.234,1.743,3.299,2.679c1.736,1.535,3.414,3.131,4.652,5.131c0.836,1.35,1.596,2.699,0.975,4.405
						c0.793,0.163,1.481,0.315,2.175,0.44c0.364,0.064,0.741,0.102,1.116,0.107c0.738,0.016,1.487,0.068,2.218-0.012
						c1.263-0.145,2.143-0.912,2.291-2.104c0.1-0.801,0.079-1.656-0.097-2.441c-0.562-2.523-1.878-4.717-3.307-6.823
						c-1.375-2.028-3.244-3.61-5.056-5.234c-0.135-0.12-0.302-0.27-0.458-0.282c-1.414-0.102-2.829-0.193-4.245-0.241
						c-0.276-0.013-0.561,0.188-0.929,0.323C906.672,61.958,909.45,63.521,911.401,66.193z M908.112,75.446
						c0.09-0.093,0.18-0.18,0.27-0.271c-0.312-0.535-0.612-1.076-0.944-1.604c-1.24-1.97-2.8-3.691-4.338-5.43
						c-1.246-1.406-2.615-2.656-4.314-3.505c-1.002-0.501-1.975-1.062-2.998-1.517c-0.742-0.332-1.535-0.563-2.323-0.781
						c-0.64-0.173-1.357-0.055-1.785,0.383c-1.518,1.561-2.634,3.395-3.442,5.519c0.279,0.024,0.501,0.097,0.695,0.053
						c0.916-0.213,1.761,0.04,2.41,0.612c1.479,1.307,2.949,2.637,4.283,4.09c0.811,0.882,1.35,2.012,2.01,3.027
						c0.904-0.635,1.835-1.383,2.85-1.983c2.161-1.282,3.761-1.321,5.496,0.063c0.263,0.209,0.505,0.451,0.793,0.625
						C907.2,74.992,907.663,75.209,908.112,75.446z M889.161,69.803c-0.16,0.041-0.648-0.02-0.899,0.443
						c-0.584,1.078-1.335,2.119-1.661,3.274c-0.635,2.233-0.305,4.49,0.396,6.686c0.092,0.282,0.275,0.53,0.41,0.798
						c0.133,0.264,0.315,0.523,0.369,0.805c0.43,2.234,1.84,3.874,3.348,5.423c0.816,0.84,1.42,0.626,1.809-0.446
						c0.355-0.977,0.734-1.947,1.146-2.901c0.852-1.983,1.668-3.983,1.787-6.171c0.024-0.49-0.188-1.002-0.335-1.492
						c-0.073-0.238-0.271-0.441-0.362-0.684c-0.682-1.771-1.74-3.292-3.117-4.58C891.331,70.281,890.452,69.877,889.161,69.803z
						 M919.549,248.162c0.353-0.779,0.55-1.529,0.99-2.104c0.51-0.675,1.184-1.248,1.865-1.761c0.514-0.383,0.828-0.838,1.018-1.424
						c0.332-1.017,0.294-2.056,0.144-3.092c-0.041-0.273-0.179-0.628-0.392-0.761c-0.949-0.608-0.948-1.532-0.945-2.479
						c0.005-0.596-0.026-1.193-0.01-1.787c0.016-0.488-0.205-0.736-0.653-0.904c-2.092-0.805-4.104-0.565-6.06,0.416
						c-0.68,0.34-0.828,0.646-0.674,1.369c0.504,2.363,0.443,4.732,0.221,7.121c-0.142,1.516-0.164,3.043-0.234,4.506
						C916.297,248.012,918.126,248.338,919.549,248.162z M886.502,67.268c-0.988,0.335-1.822,0.785-2.314,1.49
						c-0.639,0.908-2.034,1.388-1.766,2.859c0.008,0.029-0.029,0.066-0.053,0.096c-0.662,0.789-0.482,1.77-0.551,2.672
						c-0.129,1.621,0.312,3.177,0.636,4.752c0.648,3.16,1.462,6.258,3.11,9.062c0.526,0.896,1.116,1.777,1.807,2.55
						c1.174,1.31,3.004,0.999,3.795-0.578c0.16-0.321,0.305-0.661,0.477-1.038c-0.299-0.277-0.573-0.531-0.85-0.78
						c-1.119-1.011-2.037-2.192-2.721-3.528c-0.763-1.494-1.429-3.037-2.14-4.559c-1.465-3.143-1.268-6.398-0.573-9.658
						C885.589,69.521,886.073,68.496,886.502,67.268z M894.452,246.859c-0.529-1.072-0.476-1.355,0.512-2.115
						c0.352-0.266,0.728-0.521,1.119-0.721c1.82-0.908,2.729-2.463,3.113-4.385c0.17-0.847,0.069-0.962-0.738-1.318
						c-0.373-0.166-0.717-0.396-1.083-0.574c-0.329-0.162-0.672-0.402-1.015-0.416c-1.522-0.057-3.06-0.146-4.556,0.289
						c-0.797,0.229-1.471,0.547-1.561,1.516c-0.021,0.203-0.207,0.391-0.297,0.592c-0.699,1.556-1.394,3.109-2.064,4.611
						c1.013,1.059,2.207,1.777,3.765,2.387C892.576,247.082,893.496,247.283,894.452,246.859z M920.501,73.636
						c1.532-0.999,2.401-2.162,2.234-3.905c-0.186-1.921-0.655-3.758-1.623-5.437c-0.507-0.881-1.121-1.679-2.046-2.19
						c-2.232-1.234-4.623-1.823-7.332-1.758C915.791,64.059,918.188,68.77,920.501,73.636z M944.655,139.075
						c-0.495-0.104-0.743-0.16-0.993-0.211c-1.198-0.235-1.474-0.114-2.079,0.945c-0.186,0.323-0.356,0.656-0.494,1.001
						c-0.814,2.038-1.668,4.067-2.42,6.134c-0.999,2.736-2.049,5.462-2.84,8.26c-1.279,4.519-2.408,9.081-3.521,13.646
						c-0.897,3.69-1.926,7.357-2.296,11.164c-0.044,0.466-0.017,0.834,0.286,1.332c0.123-0.32,0.228-0.512,0.271-0.72
						c0.194-0.911,0.354-1.833,0.562-2.739c0.406-1.779,0.812-3.562,1.267-5.327c0.528-2.054,1.08-4.106,1.678-6.146
						c0.764-2.615,1.617-5.201,2.352-7.824c0.312-1.102,0.33-2.289,0.638-3.392c0.465-1.688,1.045-3.345,1.612-5.001
						c0.727-2.115,1.428-4.24,2.25-6.316C941.659,142.023,942.299,140.044,944.655,139.075z M904.094,137.403
						c0.16-0.826,0.321-1.51,0.416-2.199c0.234-1.697,0.402-3.407,0.678-5.099c0.153-0.935,0.259-0.968-0.505-1.457
						c-1.351-0.866-2.783-1.577-4.462-2.022c-0.096,0.606-0.19,1.149-0.272,1.695c-0.144,0.918-0.298,1.836-0.408,2.758
						c-0.105,0.902-0.991,1.754-0.468,2.639c0.46,0.782,1.216,1.407,1.908,2.025C901.819,136.493,902.791,137.04,904.094,137.403z
						 M885.521,96.256c1.5-1.219,1.593-1.828,0.621-3.339c-0.766-1.19-1.625-2.341-2.251-3.601c-1.911-3.849-2.8-7.984-3.223-12.238
						c-0.061-0.617-0.181-1.229-0.275-1.842c-0.236,0.18-0.316,0.352-0.359,0.523c-0.91,3.722-0.48,7.419,0.287,11.091
						c0.449,2.171,1.418,4.165,2.485,6.095C883.499,94.19,884.314,95.346,885.521,96.256z M924.657,233.646
						c0.678,0,1.227,0.024,1.771-0.004c2.178-0.117,4.26-0.728,6.334-1.324c1.355-0.392,2.713-0.855,3.6-2.105
						c0.294-0.41,0.421-0.771,0.062-1.256c-1.014,0-2.056-0.072-3.086,0.012c-2.488,0.207-4.971,0.479-7.453,0.738
						c-0.521,0.053-0.895,0.277-0.934,0.906C924.891,231.57,924.77,232.523,924.657,233.646z M884.606,96.803
						c-4.593-5.449-6.05-11.771-5.896-18.621c-0.147,0.348-0.291,0.693-0.342,1.055c-0.104,0.7-0.167,1.405-0.229,2.11
						c-0.308,3.576-0.424,7.136,0.493,10.667c0.512,1.971,1.383,3.693,2.951,5.004c0.479,0.396,1.059,0.682,1.617,0.953
						c0.483,0.236,0.877,0.023,1.12-0.432C884.442,97.311,884.51,97.057,884.606,96.803z M900.561,49.977
						c-1.063,1.995-2.034,3.968-3.151,5.859c-0.613,1.04-0.638,2-0.248,3.053c0.856-0.112,1.68-0.36,2.465-0.279
						c0.779,0.086,1.281-0.196,1.812-0.638c1.206-1.005,1.686-2.366,1.789-3.853C903.341,52.479,902.129,50.628,900.561,49.977z
						 M932.536,77.446c0.358-0.795,0.611-1.957,0.533-3.09c-0.152-2.229-0.16-4.512-1.869-6.283c-0.719-0.74-1.329-1.627-2.314-1.98
						c0.052,1.359,0.111,2.657,0.144,3.957c0.023,0.967-0.036,1.941,0.037,2.906c0.033,0.459,0.184,1,0.478,1.337
						C930.485,75.379,931.518,76.389,932.536,77.446z M887.323,97.625c-1.092,1.427-1.082,3.011-0.72,4.534
						c0.416,1.735,1.106,3.403,1.648,5.112c0.266,0.84,0.396,1.729,0.713,2.549c0.582,1.494,1.295,2.938,1.885,4.43
						c1.104,2.788,1.927,5.646,1.896,8.688c-0.006,0.508-0.084,1.013-0.129,1.52c0.158-0.275,0.263-0.553,0.34-0.838
						c0.047-0.179,0.053-0.371,0.076-0.556c0.319-2.591,0.04-5.142-0.707-7.617c-1.221-4.038-2.558-8.039-3.824-12.066
						c-0.279-0.882-0.504-1.79-0.688-2.7C887.61,99.669,887.483,98.643,887.323,97.625z M898.878,127.497
						c0.095-1.15-0.021-2.205-0.587-3.174c-1.143-1.945-2.666-3.576-4.312-5.097c-0.03-0.032-0.135,0.014-0.297,0.033
						c0.183,2.303-0.02,4.584-0.736,6.743C894.969,126.512,896.903,127,898.878,127.497z M888.602,159.602
						c-0.094,0.076-0.188,0.153-0.282,0.229c0.748,1.288,1.524,2.557,2.248,3.863c0.717,1.297,1.378,2.624,2.177,4.16
						c0.159-1.274,0.3-2.27,0.4-3.266c0.181-1.855,0.432-3.713,0.47-5.576c0.024-1.295-0.283-2.59-0.4-3.888
						c-0.258-2.806-0.765-5.552-1.889-8.146c-0.408-0.947-0.732-1.971-1.636-2.835c0.518,1.344,1.021,2.499,1.406,3.694
						c0.4,1.239,0.588,2.554,1.058,3.77c0.721,1.878,0.721,3.805,0.656,5.748c-0.038,1.176-0.374,2.272-1.072,3.25
						c-0.306,0.422-0.688,0.613-1.142,0.449c-0.506-0.188-0.99-0.467-1.438-0.77C888.924,160.129,888.784,159.835,888.602,159.602z
						 M889.229,139.502c1.398,1.347,2.062,2.998,2.558,4.74c0.184,0.646,0.432,1.271,0.615,1.916
						c0.456,1.613,0.959,3.217,1.321,4.85c0.373,1.672,0.613,3.372,0.892,5.064c0.062,0.361,0.114,0.701,0.576,1.024
						c0.041-0.501,0.122-0.864,0.094-1.218c-0.099-1.226-0.171-2.457-0.369-3.667c-0.466-2.829-0.976-5.655-1.521-8.472
						c-0.239-1.24-0.504-2.494-0.965-3.664C891.844,138.583,890.594,138.377,889.229,139.502z M885.608,110.598
						c-0.273-1.346-0.544-2.484-0.952-3.595c-0.53-1.435-1.473-2.469-2.844-3.146c-0.854-0.422-1.944-0.213-2.502,0.541
						c-0.426,0.572-0.274,1.387,0.405,2.107c0.255,0.271,0.524,0.531,0.808,0.773c1.271,1.1,2.662,2.02,4.138,2.816
						C884.909,110.232,885.163,110.362,885.608,110.598z M878.394,98.692c-0.188-0.604-0.355-1.248-0.591-1.868
						c-1-2.647-1.371-5.402-1.463-8.215c-0.019-0.548-0.12-1.089-0.182-1.638c-0.908,1.574-1.462,3.223-1.495,4.934
						c-0.041,2.209,0.409,4.365,1.448,6.368C876.67,99.354,877.245,99.504,878.394,98.692z M886.179,175.303
						c0.007-0.039,0.009-0.084,0.014-0.123c0.334,0,0.672,0.025,1-0.004c1.075-0.098,1.906-0.555,2.37-1.586
						c0.398-0.895,0.135-1.643-0.815-1.889c-0.773-0.199-1.598-0.576-2.387-0.088c-1.013,0.632-2.017,1.302-2.495,2.478
						c-0.188,0.458-0.077,0.831,0.449,0.935C884.93,175.145,885.556,175.213,886.179,175.303z M876.711,79.5
						c0.354-1.153,0.686-2.244,1.043-3.408c-1.451-0.65-2.318-1.86-3.076-3.235c-1.141,1.999-1.256,3.542-0.453,5.3
						C874.723,79.243,875.303,79.569,876.711,79.5z M925.973,70.501c0.823-1.765,0.699-3.472-0.157-5.135
						c-1.289-2.489-1.979-3.327-2.91-3.472c0.582,1.452,1.18,2.838,1.686,4.26C925.099,67.584,925.515,69.051,925.973,70.501z
						 M888.6,129.092c-0.321-0.09-0.46-0.17-0.59-0.16c-0.823,0.082-1.447-0.355-1.988-0.854c-1.206-1.107-1.924-2.457-1.814-4.158
						c0.015-0.246-0.095-0.5-0.186-0.9c-1.122,1.701-1.041,3.876,0.072,5.292C885.202,129.717,886.926,130.075,888.6,129.092z
						 M882.323,102.309c0.166-0.982-0.119-1.559-0.855-1.891c-0.85-0.38-2.415-0.065-3.014,0.612
						c-0.814,0.917-0.891,1.981-0.178,3.011C879.094,102.295,880.655,102.235,882.323,102.309z M874.495,99.655
						c-0.288-1.59-0.654-3.173-0.838-4.775c-0.189-1.617-0.201-3.258-0.297-5.066C871.424,94.192,872.039,96.904,874.495,99.655z
						 M934.138,69.516c0.599,2.156,0.591,4.159,0.115,6.199c-0.253,1.086-0.226,2.232-0.327,3.355
						c0.084,0.015,0.164,0.029,0.247,0.043c0.127-0.408,0.254-0.811,0.376-1.221c0.486-1.639,1.004-3.265,1.062-5.002
						C935.656,71.579,935.538,70.38,934.138,69.516z M940.141,99.876c0.677-1.45,1.06-2.853,1.183-4.328
						c0.026-0.333,0.051-0.681-0.033-1c-0.053-0.21-0.26-0.449-0.459-0.532c-0.121-0.052-0.435,0.129-0.523,0.284
						c-0.254,0.446-0.573,0.915-0.631,1.401C939.526,97.063,939.448,98.438,940.141,99.876z M937.538,113.246
						c-0.484,0.642-0.619,1.02-0.633,1.711c-0.006,0.369,0.032,0.745-0.008,1.115c-0.134,1.253-0.3,2.502-0.437,3.755
						c-0.084,0.754-0.137,1.513-0.225,2.529c0.205-0.386,0.317-0.535,0.371-0.701c0.682-2.244,1.304-4.502,1.354-6.875
						C937.977,114.256,938,113.75,937.538,113.246z M856.76,164.295c-1.076-1.098-0.975-3.177,0.242-4.157
						c0.318-0.257,0.614-0.416,0.34-0.893c-0.596-0.093-0.998,0.2-1.283,0.671c-0.903,1.486-1.071,3.078-0.573,4.73
						c0.17,0.558,0.59,0.6,0.981,0.127C856.586,164.633,856.664,164.456,856.76,164.295z M859.278,149.047
						c-0.099-0.017-0.195-0.035-0.295-0.053c-1.059,2.767-1.392,5.703-2.005,8.532c0.546,0.275,0.878,0.3,0.941-0.265
						c0.096-0.815,0.164-1.635,0.271-2.447c0.164-1.252,0.321-2.509,0.539-3.751C858.852,150.38,859.092,149.719,859.278,149.047z
						 M856.448,170.895c0.063-0.125,0.127-0.186,0.129-0.252c0.063-1.141,0.129-2.284,0.178-3.428
						c0.022-0.584-0.339-0.642-0.84-0.567c-0.189,1.425-0.973,2.729-0.661,4.247C855.702,170.895,856.092,170.895,856.448,170.895z
						 M936.22,75.305c-0.195,0.558-0.421,1.105-0.583,1.672c-0.338,1.182-0.731,2.359-0.555,3.617
						c0.035,0.246,0.176,0.479,0.266,0.715C936.274,79.336,936.676,77.375,936.22,75.305z M941.469,92.6
						c-0.408-0.994-0.768-1.627-1.443-2.014c-0.446-0.254-0.946-0.099-0.942,0.348c0.006,0.82-0.072,1.676,0.281,2.506
						C940.079,93.146,940.306,92.084,941.469,92.6z M905.043,57.323c1.062-0.414,1.309-0.688,1.266-1.535
						c-0.055-1.061-0.522-1.955-1.266-2.879C905.043,54.459,905.043,55.846,905.043,57.323z M936.22,122.75
						c-0.041-0.015-0.081-0.03-0.124-0.047c-0.111,0.575-0.253,1.142-0.334,1.72c-0.143,1.055-0.01,2.076,0.373,3.078
						c0.272,0.717,0.808,1.172,1.443,1.49c0.69,0.349,1.178,0.07,1.486-0.74c-0.068-0.031-0.136-0.084-0.203-0.084
						c-1.941-0.021-2.879-0.938-2.856-2.875C936.016,124.444,936.145,123.596,936.22,122.75z M872.405,77.816
						c-0.076,0.03-0.152,0.058-0.228,0.088c0.028,0.169,0.064,0.342,0.086,0.513c0.232,1.776,1.353,2.846,2.896,3.528
						c0.691,0.309,0.978,0.107,1.074-0.642C874.149,81.063,872.948,79.809,872.405,77.816z M937.267,124.327
						c-0.081,0.045-0.16,0.09-0.242,0.134c-0.308,1.823,0.385,2.843,1.811,2.482C938.301,126.053,937.784,125.188,937.267,124.327z
						 M878.237,94.952c0.073,1.066,0.61,1.957,1.044,2.887c0.394,0.85,0.994,1.316,2.062,1.24
						C879.852,97.981,878.795,96.653,878.237,94.952z"/>
					<path fill="#29353A" d="M915.893,95.034c0.239,0.197,0.482,0.398,0.695,0.57c-0.219,0.889-0.934,1.109-1.591,1.447
						c-0.108,1.324-0.243,2.621-0.818,3.877c-1,2.19-2.725,3.285-4.962,3.766c-1.965,0.418-3.916,0.443-5.828-0.293
						c-0.209-0.081-0.428-0.136-0.629-0.235c-1-0.515-1.153-1.088-0.653-2.087c0.671-1.326,1.75-2.186,3.018-2.896
						c1.714-0.963,3.555-1.523,5.436-2.031c1.437-0.388,2.837-0.902,4.234-1.407C915.165,95.61,915.477,95.309,915.893,95.034z
						 M908.878,103.587c-1.249-0.862-1.358-1.532-0.331-2.702c0.486-0.553,1.057-1.053,1.652-1.486
						c0.786-0.575,1.688-0.484,2.457,0.143c0.222,0.181,0.451,0.354,0.697,0.549c0.534-1.644,0.534-1.644,0.092-2.41
						c-1.324,0.373-2.664,0.7-3.972,1.133c-2.112,0.697-4.086,1.655-5.418,3.557c-0.261,0.369-0.451,0.788-0.684,1.197
						C904.727,104.147,907.971,104.122,908.878,103.587z M912.227,100.196c-0.01-0.097-0.021-0.193-0.03-0.291
						c-0.372-0.042-0.788-0.216-1.104-0.104c-0.928,0.328-1.671,0.941-2.167,1.811c-0.381,0.666-0.192,0.959,0.771,1.146
						C909.858,101.264,910.893,100.581,912.227,100.196z"/>
					<path fill="#29353A" d="M924.86,106.049c-0.142,0.037-0.292,0.129-0.423,0.107c-0.277-0.043-0.547-0.145-0.813-0.223
						c0.072-0.227,0.16-0.447,0.214-0.681c0.053-0.235,0.113-0.483,0.097-0.72c-0.11-1.409-0.299-2.811-0.358-4.219
						c-0.102-2.236,0.803-4.135,2.207-5.803c0.285-0.338,0.791-0.496,1.209-0.717c0.262-0.135,0.604-0.297,0.75,0.094
						c0.063,0.178-0.062,0.512-0.212,0.67c-1.258,1.322-1.866,2.957-2.239,4.682c-0.348,1.607-0.109,3.199,0.547,4.701
						c0.166,0.385,0.484,0.78,0.842,0.994c0.826,0.496,1.589,1.028,1.797,2.025c0.271,1.285,0.138,2.56-0.623,3.653
						c-0.841,1.21-1.867,2.229-3.418,2.521c-0.285,0.051-0.55,0.217-0.815,0.348c-0.302,0.15-0.593,0.184-0.781-0.139
						c-0.214-0.361-0.046-0.648,0.277-0.85c0.627-0.393,1.288-0.739,1.889-1.168c0.975-0.689,1.66-1.617,1.897-2.806
						C927.165,107.176,926.141,105.958,924.86,106.049z"/>
					<path fill="#29353A" d="M936.515,93.69c-0.214,0.279-0.433,0.569-0.686,0.902c0.12,0.617,0.322,1.265,0.354,1.92
						c0.099,1.959-0.858,3.378-2.758,3.995c-0.84,0.272-1.744,0.37-2.625,0.478c-1.479,0.18-2.469-1.108-2.834-2.107
						c-0.198-0.545-0.036-1.086,0.342-1.574c1.054-1.338,2.44-2.171,3.997-2.787c1.068-0.424,2.115-0.904,3.174-1.364
						C935.938,92.95,936.016,92.984,936.515,93.69z M934.715,94.838c-1.195,0.498-2.238,0.961-3.307,1.369
						c-0.948,0.365-1.615,1.02-2.187,1.837c-0.53,0.749-0.174,1.267,0.515,1.747c0.222,0.154,0.549,0.146,0.869,0.221
						c-0.479-1.371-0.197-2.486,0.911-3.258c1.068-0.737,2.253-0.763,3.602-0.037C934.964,96.002,934.868,95.545,934.715,94.838z
						 M931.812,99.075c-0.141-0.709,0.214-1.144,0.742-1.359c0.471-0.191,1.006-0.219,1.559-0.326
						c-0.186-0.541-0.639-0.455-1.057-0.371c-0.838,0.166-1.562,0.51-1.817,1.414C931.145,98.756,931.239,99.025,931.812,99.075z"/>
					<path fill="#29353A" d="M909.889,118.292c-0.221,0.228-0.438,0.45-0.653,0.671c-0.152-0.133-0.23-0.168-0.255-0.228
						c-0.202-0.532-0.673-1.055-0.081-1.628c0.367-0.359,1.541-0.6,2.016-0.352c0.527,0.277,0.188,0.572-0.1,0.895
						c0.782,0.595,1.7,0.715,2.61,0.823c2.122,0.253,4.168-0.055,6.138-0.894c0.625-0.269,1.241-0.389,1.942-0.25
						c0.562,0.109,1.183,0.19,1.612-0.455c0.134-0.199,0.531-0.297,0.807-0.301c0.992-0.001,1.933-0.39,2.981-0.148
						c0.686,0.158,1.42-0.349,1.843-1.035c0.116-0.186,0.216-0.387,0.312-0.562c1.26,0.042,1.398,0.272,0.989,1.446
						c-1.268,0.549-2.51,1.035-3.709,1.621c-2.754,1.35-5.646,1.825-8.688,1.557c-1.556-0.141-3.129-0.128-4.675-0.329
						c-1.059-0.138-2.081-0.524-3.122-0.802c0.001-0.225,0.001-0.443,0.001-0.789C909.474,118.003,909.474,118.003,909.889,118.292z
						"/>
					<path fill="#29353A" d="M912.481,89.258c0.67,0.072,1.375,0.365,1.731,0.136c0.574-0.374,0.914-0.06,1.32,0.089
						c0.562,0.203,0.731,0.533,0.44,1.018c-0.292,0.5-0.686,0.998-1.159,1.312c-0.239,0.162-0.851,0.049-1.118-0.162
						c-0.938-0.736-1.948-0.584-2.991-0.458c-2.676,0.325-4.932,1.646-7.15,3.022c-0.521,0.322-0.897,0.877-1.336,1.333
						c-0.258,0.267-0.461,0.617-0.766,0.788c-0.191,0.105-0.584,0.017-0.783-0.129c-0.122-0.089-0.092-0.455-0.049-0.678
						c0.033-0.163,0.188-0.312,0.32-0.438c1.566-1.565,3.358-2.845,5.25-3.981c0.561-0.342,1.229-0.534,1.865-0.727
						c1.284-0.385,2.581-0.723,3.881-1.068C912.146,89.254,912.379,89.267,912.481,89.258z"/>
					<path fill="#29353A" d="M916.884,121.716c0.524-0.097,1.057-0.267,1.591-0.289c2.23-0.097,4.321-0.751,6.357-1.585
						c0.375-0.152,0.67-0.418,0.916,0.084c0.186,0.385-0.029,0.658-0.617,0.832c-0.395,0.118-0.799,0.193-1.184,0.338
						c-0.193,0.07-0.482,0.23-0.494,0.377c-0.058,0.643-0.537,0.753-0.998,0.896c-0.676,0.211-1.348,0.446-2.039,0.58
						c-0.473,0.092-0.967,0.25-1.383-0.369c-0.178-0.27-0.877-0.225-1.346-0.264C917.307,122.28,916.915,122.339,916.884,121.716z"
						/>
					<path fill="#29353A" d="M920.485,113.102c-1.824-0.104-3.413-1.325-3.515-3.039c-0.024-0.381,0.121-0.811,0.315-1.143
						c0.104-0.174,0.518-0.307,0.731-0.25c0.329,0.09,0.409,0.416,0.19,0.724c-0.412,0.57-0.354,1.106,0.082,1.632
						c0.526,0.635,0.719,0.658,1.411,0.143c0.777-0.578,2.089-0.178,2.413,0.771c0.061,0.186-0.063,0.594-0.217,0.666
						C921.403,112.846,920.856,112.979,920.485,113.102z"/>
					<path fill="#29353A" d="M928.641,88.737c0.41-1.161,1.496-1.17,2.375-1.174c1.289-0.002,2.593,0.215,3.785,0.811
						c0.703,0.352,0.773,0.516,0.433,1.241c-2.123-0.959-3.858-1.257-5.598,0.444C928.963,89.629,928.963,89.629,928.641,88.737z"/>
					<path fill="#29353A" d="M943.354,145.817c-0.01-1.062,0.365-1.979,1.089-2.739c0.807-0.847,1.919-0.583,2.291,0.518
						c0.317,0.946-0.105,2.329-0.941,3.053c-0.168,0.147-0.365,0.262-0.525,0.419c-0.302,0.303-0.641,0.629-1.067,0.421
						c-0.474-0.229-0.855-0.612-0.842-1.223C943.358,146.119,943.354,145.967,943.354,145.817z M945.447,143.694
						c-0.887,0.396-0.765,1.225-1.014,1.84c-0.082,0.195,0.076,0.492,0.161,0.927C945.299,145.527,946.207,144.922,945.447,143.694z
						"/>
				</g>
			</g>
		</g>
	</g>
	<path fill="#FFFFFF" d="M908.878,103.587c-0.907,0.536-4.151,0.56-5.507-0.02c0.231-0.41,0.424-0.827,0.684-1.196
		c1.333-1.902,3.307-2.859,5.419-3.557c1.309-0.434,2.646-0.76,3.971-1.133c0.442,0.766,0.442,0.766-0.091,2.409
		c-0.248-0.195-0.479-0.368-0.697-0.548c-0.77-0.626-1.671-0.719-2.458-0.144c-0.601,0.435-1.165,0.934-1.652,1.487
		C907.52,102.053,907.629,102.725,908.878,103.587z"/>
	<path fill="#E9E345" d="M912.227,100.196c-1.33,0.385-2.368,1.068-2.528,2.562c-0.965-0.188-1.152-0.482-0.771-1.146
		c0.496-0.869,1.24-1.482,2.167-1.811c0.314-0.111,0.73,0.062,1.104,0.104C912.207,100.002,912.217,100.099,912.227,100.196z"/>
	<path fill="#FFFFFF" d="M934.715,94.838c0.152,0.707,0.248,1.164,0.403,1.878c-1.349-0.726-2.532-0.699-3.602,0.036
		c-1.108,0.77-1.389,1.887-0.911,3.259c-0.32-0.075-0.647-0.066-0.869-0.221c-0.688-0.481-1.045-0.999-0.515-1.747
		c0.57-0.816,1.237-1.471,2.187-1.837C932.477,95.799,933.521,95.336,934.715,94.838z"/>
	<path fill="#E9E345" d="M931.812,99.075c-0.573-0.05-0.67-0.318-0.573-0.643c0.257-0.904,0.979-1.248,1.817-1.414
		c0.418-0.084,0.869-0.169,1.057,0.371c-0.551,0.107-1.088,0.135-1.559,0.326C932.026,97.931,931.674,98.366,931.812,99.075z"/>
	<path fill="#FFFFFF" d="M909.889,118.292c-0.415-0.289-0.415-0.289-0.031-0.759c0,0.346,0,0.564-0.001,0.789
		C909.857,118.323,909.889,118.292,909.889,118.292z"/>
	<path fill="#FFFFFF" d="M945.447,143.694c0.76,1.229-0.151,1.833-0.853,2.766c-0.087-0.434-0.243-0.731-0.161-0.928
		C944.683,144.918,944.561,144.09,945.447,143.694z"/>
	<path fill="#AEC193" d="M871.565,180.918c-2.244,0.434-4.258,0.815-6.266,1.221c-0.838,0.167-1.691,0.307-2.493,0.592
		c-1.271,0.449-1.479,0.904-1.092,2.197c0.512,1.711,1.069,3.412,1.601,5.117c0.39,1.244,0.856,2.443,1.571,3.555
		c0.42,0.652,0.932,0.974,1.67,0.825c1.167-0.241,2.338-0.481,3.478-0.825c1.244-0.376,1.819-1.227,1.784-2.6
		c-0.071-2.729-0.008-5.453-0.032-8.176C871.78,182.208,871.646,181.594,871.565,180.918z"/>
	<path fill="#AEC193" d="M872.973,145.838c-0.862,1.695-2.49,9.818-2.184,10.902c2.424-2.918,4.828-5.812,7.195-8.657
		c-0.213-0.763-0.625-1.133-1.322-1.304c-1.113-0.273-2.201-0.642-3.303-0.963C873.262,145.789,873.143,145.829,872.973,145.838z"/>
	<path fill="#FFFFFF" d="M882.5,251.279c0.786,0.742,1.408,1.441,2.146,1.99c0.86,0.645,1.799,1.194,2.74,1.713
		c0.421,0.231,0.564,0.428,0.534,0.936c-0.192,2.963-1.262,5.664-2.374,8.359c-0.825,2-1.702,3.973-2.521,5.973
		c-0.877,2.141-1.775,4.281-2.552,6.459c-1.414,3.971-2.793,7.961-4.082,11.975c-0.532,1.66-0.798,3.41-1.2,5.115
		c-0.101,0.43-0.259,0.842-0.423,1.373c-0.766-0.242-1.454-0.459-2.188-0.688c0.055-1.047,0.119-2.006,0.156-2.971
		c0.178-4.474,0.289-8.949,0.535-13.423c0.262-4.78,1.01-9.467,2.676-14.01c1.412-3.847,3.237-7.463,5.276-10.996
		C881.575,252.48,882.032,251.936,882.5,251.279z"/>
	<path fill="#FFFFFF" d="M917.843,256.76c0.569,1.902,0.618,3.844,0.652,5.775c0.097,5.609,0.036,11.219,0.229,16.822
		c0.112,3.233,0.234,6.479,0.743,9.701c0.402,2.534,0.52,5.112,0.688,7.682c0.047,0.684-0.171,1.391-0.283,2.191
		c-0.478-0.111-0.896-0.218-1.392-0.334c-0.59-2.119-1.162-4.232-1.77-6.337c-0.661-2.295-1.38-4.577-2.02-6.879
		c-0.581-2.082-1.257-4.161-1.589-6.289c-0.526-3.348-1.181-6.69-1.219-10.104c-0.01-0.855-0.144-1.711-0.17-2.568
		c-0.072-2.445,0.379-4.834,0.938-7.195c0.255-1.067,0.804-2.065,1.222-3.096C915.253,256.348,916.497,256.547,917.843,256.76z"/>
	<path fill="#FFFFFF" d="M892.368,249.869c-0.771,1.258-1.536,2.512-2.279,3.721c-3.445-0.678-5.199-2.102-6.164-4.461
		c0.479-0.74,0.951-1.488,1.449-2.229c0.492-0.732,1.004-1.453,1.591-2.293C887.924,247.271,890.104,248.502,892.368,249.869z"/>
	<path fill="#FFFFFF" d="M920.173,250.59c-0.015,1.264-0.386,2.432-0.678,3.613c-0.036,0.154-0.413,0.332-0.624,0.322
		c-1.449-0.047-2.898-0.115-4.342-0.244c-0.451-0.039-0.785-0.273-0.688-0.914c0.229-1.5,0.354-3.023,0.522-4.529
		c0.049-0.436,0.289-0.584,0.7-0.398c0.066,0.031,0.15,0.049,0.2,0.099C916.609,249.84,918.323,250.277,920.173,250.59z"/>
	<path fill="#FFFFFF" d="M952.758,314.303c-2.912,0.525-5.761,0.785-8.633,0.738c-2.236-0.039-4.476-0.102-6.717-0.146
		c-0.746-0.014-1.497-0.04-2.238,0.021c-2.289,0.197-4.576,0.416-6.861,0.656c-1.967,0.203-3.924,0.321-5.889,0
		c-0.771-0.129-1.561-0.162-2.321-0.334c-0.388-0.088-0.595,0.043-0.725,0.317c-0.321,0.677,0.37,1.939,1.106,1.949
		c2.205,0.039,4.414,0.074,6.614,0.004c0.798-0.024,1.578-0.369,2.373-0.52c0.389-0.07,0.852-0.146,1.189,0
		c0.789,0.328,1.592,0.397,2.416,0.375c2.725-0.066,5.455-0.088,8.174-0.246c2.678-0.158,5.348-0.447,8.019-0.711
		c0.776-0.08,1.55-0.232,2.307-0.42C952.438,315.766,952.75,315.297,952.758,314.303z"/>
	<path fill="#FFFFFF" d="M936.538,297.455c-2.316-0.203-4.519-0.857-6.257,0.975c-1.288,1.355-2.854,2.652-2.632,4.994
		c0.534,0,0.975,0.006,1.416-0.002c1.549-0.012,2.862-0.447,3.576-1.971c0.018-0.037,0.033-0.074,0.057-0.098
		c1-1.117,1.703-2.529,3.2-3.152C936.099,298.115,936.22,297.834,936.538,297.455z"/>
	<path fill="#FFFFFF" d="M943.467,298.641c-0.908-0.479-1.69-0.613-2.504-0.563c-0.442,0.026-1.141-0.021-1.267,0.213
		c-0.37,0.687-1.074,0.86-1.584,1.308c-1.374,1.207-1.559,2.873-1.961,4.653c0.858,0.031,1.638-0.021,2.388,0.104
		c0.785,0.127,1.186-0.227,1.49-0.848c0.19-0.402,0.463-0.783,0.573-1.205C941.012,300.74,941.946,299.594,943.467,298.641z"/>
	<path fill="#E97546" d="M926.959,298.9c-0.431,1.572-0.834,3.029-1.225,4.442c0.41,0.289,0.673,0.49,0.953,0.658
		c0.286,0.176,0.592,0.438,0.894,0.444c1.435,0.046,2.866,0.115,4.3-0.149c1.138-0.213,1.557-0.946,1.836-1.926
		c0.129-0.459,0.338-0.914,0.596-1.315c0.199-0.314,0.533-0.539,0.806-0.804c0.059,0.045,0.119,0.097,0.174,0.14
		c-0.055,0.159-0.094,0.332-0.176,0.477c-0.648,1.1-0.572,2.299-0.498,3.498c0.026,0.422,0.219,0.578,0.669,0.711
		c1.626,0.482,3.262,0.314,4.896,0.275c0.286-0.007,0.677-0.195,0.824-0.429c0.481-0.744,0.87-1.555,1.308-2.336
		c0.36-0.647,0.739-1.283,1.086-1.894c2.975-0.217,5.691,0.365,8.2,1.705c1.023,0.541,2.127,1.301,2.031,2.707
		c-0.08,1.142-0.272,2.306-0.619,3.396c-0.29,0.91-0.813,1.764-1.344,2.578c-0.404,0.617-0.979,1.021-1.785,1.219
		c-2.078,0.502-4.182,0.766-6.297,0.953c-2.448,0.219-4.904,0.326-7.354,0.527c-1.824,0.145-3.64,0.36-5.457,0.536
		c-1.781,0.177-3.566,0.451-5.351,0.47c-1.71,0.022-3.424-0.234-5.135-0.357c-0.477-0.033-0.719-0.281-0.889-0.715
		c-0.458-1.195-0.771-2.402-0.802-3.705c-0.049-1.957,0.199-3.875,0.531-5.793c0.189-1.082,0.615-1.758,1.822-2.086
		c1.231-0.332,2.359-1.08,3.513-1.69c0.28-0.148,0.523-0.429,0.696-0.701C925.556,299.098,926.102,298.828,926.959,298.9z"/>
	<path fill="#E97546" d="M879.327,308.326c-1.206-0.56-2.271-1.078-3.36-1.549c-1.062-0.457-2.122-0.961-3.232-1.264
		c-2.463-0.675-4.947-0.427-7.42,0.045c-0.259,0.051-0.5,0.166-0.758,0.202c-1.124,0.158-1.496-0.034-1.646-1.219
		c-0.027-0.222-0.004-0.444-0.004-0.924c-0.328,0.387-0.484,0.594-0.665,0.784c-0.737,0.767-1.595,1.455-1.337,2.734
		c0.048,0.242-0.135,0.572-0.293,0.808c-0.332,0.491-0.738,0.938-1.074,1.43c-0.182,0.26-0.354,0.566-0.404,0.875
		c-0.317,1.797-0.588,3.607-0.897,5.404c-0.235,1.366-0.146,1.59,1.067,2.221c0.166,0.086,0.345,0.16,0.521,0.207
		c1.181,0.34,2.35,0.742,3.55,0.986c1.886,0.383,3.78,0.868,5.727,0.653c2.188-0.237,4.367-0.562,6.549-0.862
		c1.082-0.148,2.123-0.449,3.008-1.121c0.279-0.207,0.551-0.515,0.666-0.832c0.454-1.275,0.766-2.603,0.641-3.953
		C879.819,311.363,879.532,309.785,879.327,308.326z"/>
	<path fill="#FFFFFF" d="M857.925,318.332c-0.033,0.309-0.224,0.75-0.08,1.008c0.477,0.861,0.897,1.81,2.05,2.043
		c0.757,0.154,1.486,0.439,2.232,0.652c1.078,0.305,2.146,0.643,3.24,0.871c0.836,0.178,1.701,0.289,2.555,0.295
		c3.1,0.021,6.201,0.104,9.258-0.68c1.066-0.275,1.639-0.966,2.188-1.757c0.093-0.135,0.014-0.393,0.014-0.707
		C872.016,321.945,864.977,321.068,857.925,318.332z"/>
	<path fill="#FFFFFF" d="M863.959,304.959c0.404,0,0.717,0.062,0.99-0.012c1.381-0.383,2.803-0.361,4.205-0.527
		c1.703-0.197,3.276,0.078,4.815,0.672c1.458,0.566,2.874,1.254,4.316,1.863c0.848,0.357,0.886,0.318,1.203-0.762
		c-0.634-0.447-1.276-0.951-1.976-1.371c-2.172-1.301-4.444-2.295-7.062-2.178c-0.773,0.032-1.562-0.062-2.318,0.062
		c-1.056,0.183-2.104,0.469-3.121,0.81C864.454,303.703,864.012,304.141,863.959,304.959z"/>
	<path fill="#FFFFFF" d="M878.409,304.145c-0.356-0.883-0.698-1.772-1.097-2.639c-0.088-0.189-0.358-0.365-0.581-0.42
		c-1.117-0.27-2.24-0.549-3.375-0.736c-0.913-0.147-1.853-0.26-2.772-0.225c-0.913,0.031-1.833,0.205-2.72,0.441
		c-0.808,0.213-1.56,0.6-2.172,1.535c2.313-0.138,4.428-0.806,6.575-0.265C874.379,302.371,876.407,303.088,878.409,304.145z"/>
	<path fill="#FFFFFF" d="M867.37,299.686c1.477-0.705,3.026-0.604,4.556-0.436c1.53,0.164,3.042,0.477,4.768,0.76
		c-0.974-0.873-1.959-1.26-3-1.553c-1.284-0.355-2.565-0.176-3.869-0.113C868.725,298.395,868.059,298.955,867.37,299.686z"/>
	<path fill="#E9E345" d="M916.622,182.946c-1.156,0.917-1.839,2.816-1.31,4.137c0.267,0.658,0.834,1.25,1.396,1.72
		c0.921,0.774,1.466,1.71,1.896,2.831c0.738,1.947,1.604,3.85,2.496,5.734c1.737,3.688,3.475,7.378,5.312,11.013
		c1.348,2.666,2.934,5.211,4.277,7.877c0.901,1.789,1.692,3.658,2.289,5.57c0.369,1.197,0.174,2.523-0.287,3.752
		c-0.256,0.684-0.642,1.107-1.444,1.191c-3.646,0.385-7.218,1.188-10.782,2.002c-2.658,0.612-5.293,1.328-7.928,2.033
		c-2.993,0.803-6.008,1.549-8.955,2.495c-3.107,1.005-6.297,1.562-9.496,2.105c-2.844,0.479-5.651,0.077-8.428-0.572
		c-1.524-0.358-3.041-0.763-4.541-1.213c-0.781-0.236-1.516-0.629-2.279-0.937c-1.972-0.797-3.965-1.539-5.914-2.383
		c-1.192-0.516-2.352-1.139-3.479-1.789c-0.946-0.549-0.953-0.611-0.618-1.606c0.979-2.9,1.979-5.791,2.986-8.685
		c1.482-4.27,3.623-8.195,6.194-11.897c1.557-2.232,3.095-4.484,4.719-6.672c1.244-1.681,2.611-3.275,3.923-4.906
		c1.405-1.745,2.778-3.519,4.229-5.228c0.868-1.016,1.853-1.932,2.802-2.881c0.297-0.299,0.597-0.523,0.314-1.038
		c-0.112-0.2,0.011-0.565,0.094-0.835c0.313-1.033,0.665-2.057,0.98-3.09c0.142-0.463,0.369-0.768,0.861-0.929
		c1.854-0.604,3.729-1.032,5.693-1.101c1.066-0.04,2.125-0.312,3.188-0.473c0.33-0.051,0.664-0.102,0.997-0.127
		c0.755-0.055,1.377-0.333,1.741-1.033c-1.004-1.1-2.234-1.776-3.797-1.851c0.039-0.097,0.076-0.196,0.117-0.292
		c0.527,0.071,1.055,0.145,1.58,0.217c0.184,0.025,0.371,0.05,0.555,0.083c2.344,0.417,3.31-0.022,4.627-1.973
		c0.517-0.763,0.55-1.437-0.002-2.154c-0.088-0.12-0.154-0.255-0.225-0.369c0.514-1.815,0.102-2.686-1.842-3.728
		c-2.66-1.434-5.367-2.776-7.993-4.264c-1.001-0.566-1.772-1.484-2.261-2.573c-0.484-1.069-0.659-2.201-0.775-3.36
		c-0.201-1.969-0.465-3.93-0.734-5.889c-0.268-1.92-0.573-3.836-0.867-5.752c-0.036-0.232-0.094-0.463-0.198-0.98
		c0.641,0.447,1.08,0.701,1.46,1.028c2.466,2.132,5.335,3.107,8.575,2.95c1.156-0.057,2.27-0.303,3.352-0.811
		c1.152-0.542,2.336-0.986,3.261-2.133c0.169,0.398,0.337,0.641,0.376,0.904c0.314,2.027,0.673,4.047,0.892,6.083
		c0.351,3.227,0.605,6.468,0.887,9.703c0.062,0.708,0.048,1.423,0.101,2.128c0.271,3.723,0.522,7.449,0.854,11.167
		c0.086,0.993,0.42,1.964,0.662,2.941C916.463,180.365,916.784,181.633,916.622,182.946z"/>
	<path fill="#B0A62C" d="M894.776,137.975c0.332-0.15,0.604-0.261,0.864-0.396c0.353-0.188,0.642-0.137,0.9,0.166
		c0.337,0.395,0.672,0.799,1.027,1.174c1.369,1.427,2.744,2.848,4.129,4.261c0.207,0.208,0.469,0.37,0.721,0.534
		c0.609,0.397,0.923,0.29,1.156-0.422c0.114-0.355,0.17-0.731,0.248-1.098c0.163-0.775,0.401-1.518,1.057-2.115
		c0.916,0.445,1.564,1.217,2.213,1.975c0.229,0.268,0.41,0.627,0.778,0.43c0.253-0.133,0.458-0.457,0.562-0.741
		c0.193-0.515,0.297-1.066,0.457-1.658c0.369,0.082,0.66,0.121,0.935,0.212c1.365,0.441,1.638,1.047,1.126,2.357
		c-0.483,1.244-1.247,2.336-2.208,3.207c-1.229,1.116-2.846,1.588-4.455,1.56c-1.222-0.022-2.506-0.014-3.707-0.632
		c-1.212-0.625-2.053-1.602-2.996-2.503c-1.431-1.367-1.939-3.222-2.619-4.978C894.809,138.907,894.836,138.438,894.776,137.975z"/>
	<path fill="#FFECC5" d="M892.872,110.641c0.76,0.223,1.396,0.409,2.004,0.59c0.935-1.32,0.967-1.916,0.117-3.07
		c-0.88-1.196-1.791-2.363-2.965-3.32c-0.49-0.398-0.787-1.07-1.093-1.656c-1-1.916-1.37-4.02-1.621-6.131
		c-0.106-0.918,0.189-1.826,0.884-2.57c0.97-1.041,1.709-2.224,2.227-3.579c0.504-1.314,1.231-2.544,1.837-3.821
		c0.891-1.895,1.755-3.795,2.634-5.688c0.562-1.22,0.994-2.524,1.729-3.632c0.89-1.336,2.074-2.438,3.788-2.744
		c1.246-0.227,2.416,0.027,3.454,0.646c2.8,1.674,5.858,2.146,9.04,2.186c0.596,0.007,1.207,0.191,1.776,0.096
		c0.869-0.142,1.75-0.363,2.552-0.72c1.709-0.757,3.387-1.581,4.735-2.937c0.203-0.207,0.498-0.32,0.773-0.493
		c2.11,0.532,3.639,1.829,4.946,3.558c1.507,1.994,3.195,3.853,4.796,5.779c1.623,1.958,2.405,4.271,2.803,6.742
		c-0.352,1.291,0.199,2.492,0.354,3.733c0.08,0.653,0.008,1.341-0.096,1.997c-0.261,1.728-0.013,3.416,0.268,5.113
		c0.373,2.292,0.641,4.59-0.014,6.881c-0.172,0.604-0.33,1.23-0.622,1.78c-1.228,2.308-2.421,4.638-3.78,6.865
		c-0.989,1.617-2.205,3.101-3.358,4.614c-2.108,2.768-4.256,5.499-6.827,7.871c-0.898,0.829-1.782,1.297-3.062,1.25
		c-2.526-0.091-4.964-0.584-7.393-1.223c-0.631-0.164-1.302-0.203-1.939-0.354c-1.974-0.476-3.807-1.322-5.615-2.223
		c-2.869-1.434-5.385-3.352-7.691-5.564c-0.431-0.412-0.928-0.755-1.352-1.176c-2.062-2.031-2.914-4.626-3.396-7.387
		c-0.044-0.254-0.023-0.523-0.009-0.785C892.764,111.091,892.818,110.911,892.872,110.641z M909.857,118.323
		c1.041,0.275,2.064,0.662,3.121,0.801c1.548,0.201,3.12,0.188,4.677,0.328c3.043,0.27,5.935-0.206,8.688-1.556
		c1.197-0.587,2.439-1.072,3.708-1.622c0.411-1.174,0.272-1.402-0.988-1.445c-0.099,0.175-0.195,0.375-0.312,0.561
		c-0.423,0.688-1.156,1.193-1.842,1.035c-1.051-0.24-1.99,0.148-2.982,0.149c-0.275,0.003-0.674,0.102-0.807,0.3
		c-0.431,0.646-1.049,0.564-1.611,0.455c-0.701-0.139-1.319-0.018-1.942,0.25c-1.971,0.84-4.017,1.146-6.139,0.895
		c-0.908-0.109-1.827-0.229-2.609-0.824c0.289-0.322,0.627-0.617,0.1-0.894c-0.475-0.248-1.646-0.011-2.016,0.351
		c-0.592,0.574-0.121,1.096,0.082,1.629c0.021,0.059,0.102,0.096,0.254,0.227c0.215-0.22,0.434-0.443,0.653-0.67L909.857,118.323z
		 M915.893,95.034c-0.419,0.275-0.729,0.576-1.1,0.708c-1.398,0.505-2.802,1.021-4.234,1.407c-1.881,0.508-3.721,1.069-5.436,2.031
		c-1.268,0.711-2.348,1.57-3.018,2.897c-0.5,0.999-0.349,1.571,0.653,2.087c0.201,0.1,0.42,0.155,0.629,0.235
		c1.911,0.735,3.863,0.71,5.83,0.292c2.235-0.479,3.961-1.574,4.96-3.766c0.575-1.256,0.71-2.551,0.818-3.877
		c0.658-0.338,1.374-0.557,1.591-1.447C916.379,95.432,916.132,95.231,915.893,95.034z M924.86,106.049
		c1.28-0.093,2.305,1.127,2.034,2.472c-0.235,1.19-0.923,2.116-1.896,2.806c-0.602,0.429-1.261,0.775-1.888,1.168
		c-0.324,0.201-0.49,0.486-0.28,0.85c0.188,0.322,0.482,0.289,0.784,0.139c0.266-0.131,0.531-0.295,0.813-0.348
		c1.551-0.291,2.578-1.311,3.42-2.521c0.761-1.094,0.894-2.368,0.623-3.653c-0.209-0.997-0.971-1.528-1.797-2.025
		c-0.354-0.214-0.677-0.609-0.844-0.994c-0.654-1.502-0.894-3.094-0.547-4.701c0.373-1.725,0.983-3.361,2.24-4.682
		c0.149-0.158,0.274-0.49,0.211-0.67c-0.146-0.391-0.488-0.228-0.75-0.094c-0.418,0.221-0.927,0.379-1.208,0.717
		c-1.403,1.668-2.309,3.566-2.208,5.803c0.061,1.407,0.249,2.809,0.358,4.219c0.019,0.235-0.043,0.483-0.096,0.72
		c-0.053,0.233-0.144,0.454-0.213,0.681c0.27,0.078,0.537,0.178,0.813,0.223C924.569,106.178,924.719,106.088,924.86,106.049z
		 M936.515,93.69c-0.497-0.706-0.577-0.74-1.04-0.538c-1.057,0.46-2.102,0.939-3.172,1.364c-1.557,0.615-2.942,1.449-3.997,2.787
		c-0.38,0.487-0.542,1.029-0.342,1.574c0.364,1,1.354,2.288,2.833,2.107c0.879-0.105,1.784-0.205,2.624-0.478
		c1.901-0.617,2.859-2.036,2.759-3.995c-0.03-0.655-0.231-1.303-0.354-1.92C936.081,94.259,936.301,93.969,936.515,93.69z
		 M912.481,89.258c-0.103,0.01-0.334-0.004-0.546,0.055c-1.297,0.346-2.595,0.684-3.878,1.067c-0.638,0.192-1.308,0.384-1.867,0.726
		c-1.891,1.139-3.682,2.418-5.25,3.982c-0.13,0.127-0.287,0.275-0.32,0.439c-0.041,0.223-0.072,0.59,0.05,0.678
		c0.198,0.145,0.592,0.234,0.782,0.128c0.306-0.169,0.508-0.522,0.766-0.788c0.438-0.455,0.814-1.011,1.336-1.333
		c2.222-1.378,4.478-2.698,7.15-3.022c1.043-0.127,2.054-0.279,2.992,0.458c0.269,0.212,0.879,0.323,1.117,0.162
		c0.475-0.315,0.868-0.812,1.159-1.313c0.291-0.484,0.121-0.813-0.44-1.016c-0.405-0.148-0.744-0.464-1.319-0.09
		C913.856,89.624,913.151,89.329,912.481,89.258z M916.884,121.716c0.032,0.623,0.423,0.563,0.807,0.601
		c0.469,0.039,1.167-0.006,1.346,0.264c0.416,0.619,0.909,0.461,1.383,0.369c0.691-0.134,1.364-0.369,2.039-0.578
		c0.46-0.146,0.939-0.256,0.997-0.898c0.014-0.146,0.302-0.307,0.495-0.377c0.384-0.143,0.789-0.22,1.183-0.336
		c0.59-0.176,0.805-0.449,0.617-0.834c-0.245-0.5-0.54-0.234-0.915-0.084c-2.037,0.834-4.127,1.488-6.356,1.585
		C917.938,121.45,917.409,121.618,916.884,121.716z M920.485,113.102c0.37-0.123,0.918-0.256,1.414-0.498
		c0.152-0.072,0.276-0.479,0.217-0.666c-0.324-0.949-1.636-1.35-2.413-0.771c-0.692,0.516-0.885,0.492-1.411-0.142
		c-0.437-0.526-0.492-1.062-0.082-1.632c0.219-0.308,0.139-0.635-0.19-0.724c-0.215-0.058-0.626,0.075-0.731,0.249
		c-0.194,0.332-0.341,0.763-0.315,1.143C917.072,111.777,918.661,112.998,920.485,113.102z M928.641,88.737
		c0.322,0.893,0.322,0.893,0.996,1.324c1.738-1.703,3.476-1.404,5.598-0.445c0.342-0.726,0.271-0.889-0.432-1.241
		c-1.195-0.597-2.497-0.812-3.785-0.81C930.135,87.567,929.049,87.576,928.641,88.737z M910.874,96.223
		c-0.391-0.631-0.752-0.756-1.25-0.564c-1.521,0.587-3.042,1.191-4.577,1.736c-1.071,0.377-1.964,0.986-2.741,1.793
		c-0.312,0.324-0.354,0.613-0.006,0.893c0.64-0.389,1.225-0.768,1.828-1.11c1.881-1.071,3.837-1.942,6.008-2.262
		C910.381,96.672,910.595,96.411,910.874,96.223z M933.663,93.521c-0.105-0.859-0.133-0.882-0.726-0.722
		c-0.573,0.159-1.147,0.454-1.719,0.445c-0.801-0.008-1.32,0.418-1.889,0.827c-0.262,0.188-0.482,0.397-0.231,0.733
		c0.214,0.293,0.467,0.309,0.77,0.096C931.005,94.099,932.234,93.522,933.663,93.521z"/>
	<path fill="#FFECC5" d="M907.665,172.624c0.407,0.057,0.813,0.11,1.22,0.168c-0.386-0.338-0.806-0.223-1.226-0.166
		c-0.107-0.16-0.183-0.4-0.336-0.469c-1.873-0.869-3.612-1.946-5.257-3.191c-1.196-0.904-2.467-1.686-3.939-2.056
		c-0.92-0.233-1.712,0.321-1.62,1.251c0.053,0.537-0.226,0.782-0.473,1.049c-0.836,0.901-1.334,1.936-1.461,3.157
		c-0.011,0.065,0.041,0.134,0.071,0.218c0.191,0.084,0.392,0.166,0.675,0.292c-0.095,0.288-0.146,0.584-0.28,0.832
		c-0.192,0.356-0.454,0.678-0.673,1.022c-0.545,0.859-0.256,1.548,0.692,1.887c2.147,0.762,4.353,1.297,6.603,1.633
		c1.172,0.174,2.284,0.095,3.438-0.795c-0.821-0.248-1.482-0.46-2.153-0.647c-0.814-0.233-1.644-0.441-2.459-0.677
		c-0.569-0.161-1.146-0.314-1.691-0.543c-0.922-0.385-1.838-0.8-2.724-1.26c-0.342-0.174-0.581-0.593-0.334-0.951
		c0.152-0.22,0.566-0.387,0.849-0.365c1.709,0.135,3.371,0.443,5.002,1.07c1.444,0.553,3.008,0.82,4.541,1.119
		c0.802,0.156,1.592-0.047,2.291-0.782c-1.985-1.062-3.979-1.724-6.102-1.935c-2.011-0.201-3.754-0.928-5.216-2.314
		c-0.159-0.154-0.315-0.329-0.413-0.523c-0.263-0.539-0.014-0.867,0.608-0.947c0.521-0.071,0.916,0.119,1.355,0.356
		c1.31,0.712,2.606,1.477,3.987,2.013C904.273,171.7,905.986,172.114,907.665,172.624z"/>
	<path fill="#FFECC5" d="M918.528,151.233c-0.094,0.035-0.188,0.073-0.283,0.109c-0.207,1.654-0.448,3.287-0.127,4.98
		c0.373,1.971,1.095,3.811,1.971,5.579c1.49,3.008,3.074,5.972,4.65,8.935c0.434,0.814,0.967,1.583,1.778,2.164
		c1.293-0.707,2.213-1.694,2.554-3.123c0.096-0.403,0.026-0.879-0.078-1.301c-0.123-0.504-0.51-0.755-1.031-0.518
		c-0.664,0.303-1.137-0.045-1.633-0.395c-0.57-0.4-0.707-1.018-0.885-1.629c-0.396-1.361-0.648-2.79-1.24-4.06
		c-1.454-3.108-3.058-6.153-4.623-9.208C919.303,152.219,918.884,151.743,918.528,151.233z"/>
	<path fill="#FFECC5" d="M937.333,175.95c0.581-0.073,1.055-0.109,1.522-0.195c0.768-0.141,1.528-0.312,2.297-0.469
		c2.961-0.607,5.933-1.176,8.594-2.752c0.493-0.291,0.844-0.545,0.84-1.166c-0.005-0.555,0.07-1.097,0.467-1.566
		c0.178-0.213,0.226-0.549,0.299-0.839c0.202-0.777-0.252-1.388-1.037-1.286c-1.552,0.207-3.13,0.242-4.62,0.801
		c-0.517,0.197-1.076,0.27-1.609,0.412c-0.952,0.25-1.789,0.707-2.495,1.377c0.482,0.92,0.546,0.972,1.36,0.768
		c1.475-0.367,2.944-0.771,4.422-1.137c0.356-0.089,0.746-0.141,1.108-0.096c0.259,0.031,0.5,0.243,0.746,0.375
		c-0.148,0.271-0.26,0.58-0.459,0.813c-0.162,0.188-0.418,0.327-0.659,0.41c-1.371,0.458-2.738,0.938-4.131,1.327
		c-1.724,0.48-3.478,0.855-5.208,1.317C937.788,174.306,937.418,174.801,937.333,175.95z"/>
	<path fill="#FFECC5" d="M949.25,174.106c-0.807,0.361-1.283,0.67-1.81,0.795c-1.776,0.425-3.571,0.756-5.346,1.178
		c-1.238,0.293-2.317,0.947-3.543,1.702c0.364,0.257,0.572,0.519,0.816,0.556c0.768,0.107,1.561,0.234,2.326,0.164
		c1.709-0.154,3.33-0.723,4.975-1.197c1.17-0.34,1.884-1.146,2.447-2.137C949.241,174.952,949.193,174.637,949.25,174.106z"/>
	<path fill="#FFECC5" d="M940.529,181.116c2.144,0.478,5.104,0.177,5.761-1.266c-1.664-1.186-2.228-1.234-4.443-0.25
		C941.233,179.875,940.516,180.135,940.529,181.116z"/>
	<path fill="#FFECC5" d="M909.321,170.122c-0.74-1.209-2.027-1.592-3.108-2.262c-1.171-0.729-2.47-0.019-3.655-0.469
		C904.139,168.686,908.182,170.297,909.321,170.122z"/>
	<path fill="#FFECC5" d="M891.964,175.442c-0.093,0.943-0.267,1.815,0.173,2.691c0.183-0.271,0.342-0.57,0.297-0.844
		C892.338,176.692,892.141,176.108,891.964,175.442z"/>
	<path fill="#FFECC5" d="M901.595,166.899c0.042-0.078,0.089-0.156,0.13-0.234c-0.266-0.391-0.666-0.436-1.336-0.402
		C900.918,166.543,901.256,166.722,901.595,166.899z"/>
</g>
<g>
	<path fill="#FFFFFF" d="M684.593,285.229c-5.798,2.111-10.569-6.951-6.013-11.725c11.62-12.244,21.321-34.095,21.105-50.186
		c-0.176-10.092-3.677-14.127-9.286-12.691c-4.564,1.145-7.936,6.587-5.177,14.709c1.318,3.391-11.925,8.447-13.325,5.206
		c-7.048-15.444,4.458-27.653,17.474-31.272c13.83-3.844,25.652-0.494,28.213,21.33c1.731,14.791-8.577,33.557-19.002,47.846
		c6.896-2.668,16.457-5.199,22.681-6.68c5.876-1.382,5,12.131,1.248,13.049C711.69,277.32,695.523,281.312,684.593,285.229z"/>
	<path fill="#FFFFFF" d="M784.593,211.238c2.773,22.14-4.268,47.257-24.541,53.143c-16.386,4.555-26.698-5.975-29.735-30.42
		c-2.773-22.141,4.184-47.108,24.455-52.993C771.158,176.413,781.556,186.794,784.593,211.238z M748.938,232.04
		c0.97,10.247,3.715,22.379,9.061,20.894c8.2-2.029,9.249-25.73,7.976-39.773c-0.97-10.247-3.684-22.263-9.029-20.776
		C748.743,194.411,747.662,217.998,748.938,232.04z"/>
	<path fill="#FFFFFF" d="M797.913,219.607c-0.399,0.11-0.822,0.142-1.244,0.172c-1.128-0.029-2.047-0.549-2.815-1.456
		c-0.622-0.688-1.05-1.603-1.339-2.644c-0.442-1.599-0.656-3.606-0.608-5.603c0.098-2.438,0.595-4.988,1.51-6.966
		c0.835-1.955,2.146-3.438,3.962-4.029c0.56-0.155,1.142-0.231,1.586-0.183c1.129,0.031,2.128,0.528,2.854,1.275
		c0.622,0.688,1.129,1.58,1.418,2.62c0.522,1.577,0.715,3.505,0.666,5.5c-0.098,2.438-0.652,5.091-1.705,7.192
		C801.2,217.486,799.832,219.074,797.913,219.607z M799.094,213.938c0.742-1.67,1.19-3.775,1.319-5.793
		c0.079-1.572-0.081-3.078-0.494-4.256c-0.155-0.561-0.369-1.018-0.617-1.293c-0.205-0.115-0.33-0.254-0.489-0.209
		c-0.08,0.022-0.183-0.035-0.319,0.09c-0.8,0.222-1.443,1.004-1.896,2.164c-0.786,1.51-1.153,3.594-1.226,5.508
		c-0.058,1.652,0.126,3.238,0.48,4.519c0.179,0.64,0.393,1.099,0.661,1.453c0.104,0.058,0.228,0.194,0.308,0.173l0.08-0.021
		C797.779,216.025,798.481,215.143,799.094,213.938z M811.712,193.635l-3.289,48.29c-0.075,0.968-0.901,1.716-1.87,1.64
		c-0.968-0.074-1.715-0.901-1.64-1.869l3.289-48.291c0.076-0.969,0.901-1.716,1.87-1.641
		C811.041,191.84,811.788,192.665,811.712,193.635z M824.755,225.066c-0.098,2.439-0.651,5.093-1.704,7.192
		c-0.995,1.999-2.362,3.587-4.281,4.119c-0.4,0.11-0.88,0.244-1.244,0.174c-1.129-0.03-2.049-0.552-2.816-1.456
		c-0.622-0.688-1.049-1.604-1.338-2.645c-0.524-1.577-0.738-3.585-0.609-5.602c0.099-2.438,0.596-4.988,1.431-6.943
		c0.938-1.897,2.225-3.463,4.042-4.053c0.56-0.155,1.062-0.209,1.586-0.184c1.129,0.031,2.128,0.529,2.874,1.354
		c0.601,0.608,1.106,1.502,1.396,2.541C824.612,221.145,824.804,223.072,824.755,225.066z M820.774,220.661
		c-0.156-0.56-0.369-1.019-0.697-1.271c-0.125-0.139-0.229-0.195-0.409-0.23c-0.08,0.021-0.16,0.044-0.319,0.088
		c-0.801,0.223-1.443,1.005-1.896,2.164c-0.786,1.511-1.154,3.594-1.227,5.51c-0.057,1.652,0.125,3.237,0.481,4.518
		c0.178,0.641,0.391,1.098,0.661,1.453c0.125,0.137,0.228,0.194,0.228,0.194c0.08-0.022,0.08-0.022,0.159-0.044
		c0.88-0.245,1.582-1.129,2.195-2.333c0.764-1.591,1.188-3.776,1.317-5.793C821.348,223.344,821.188,221.839,820.774,220.661z"/>
</g>
</svg>
