<svg width="30" height="30" xmlns="http://www.w3.org/2000/svg">
 <defs>
  <linearGradient y2="0.000027" x2="0.5" y1="1" x1="0.5" id="SVGID_1_">
   <stop stop-color="#F3F3F3" offset="0"/>
   <stop stop-color="#F4F4F4" offset="1"/>
  </linearGradient>
 </defs>
 <g>
  <title>background</title>
  <rect fill="none" id="canvas_background" height="402" width="582" y="-1" x="-1"/>
 </g>
 <g>
  <title>Layer 1</title>
  <g id="svg_1">
   <path stroke="#b19463" id="svg_2" d="m27.882101,24.641c0,1.823 -1.478,3.302 -3.302,3.302l-19.73,0c-1.823,0 -3.302,-1.478 -3.302,-3.302l0,-19.73c0,-1.823 1.478,-3.302 3.302,-3.302l19.73,0c1.823,0 3.302,1.478 3.302,3.302l0,19.73z" stroke-miterlimit="10" stroke-width="2" fill="url(#SVGID_1_)"/>
   <path id="svg_3" d="m16.366,20.754l0.143,-0.618c0.582,-0.045 1.035,-0.117 1.359,-0.216c0.323,-0.097 0.485,-0.207 0.485,-0.325c0,-0.103 -0.004,-0.19 -0.015,-0.264c-0.012,-0.072 -0.026,-0.157 -0.043,-0.252l-0.424,-2.362l-4.137,0c-0.136,0.208 -0.307,0.484 -0.514,0.825c-0.206,0.342 -0.38,0.634 -0.523,0.876c-0.214,0.384 -0.342,0.647 -0.375,0.788c-0.038,0.141 -0.056,0.232 -0.056,0.271c0,0.169 0.133,0.309 0.398,0.418c0.265,0.112 0.671,0.192 1.218,0.242l-0.143,0.618l-5.046,0l0.143,-0.618c0.164,-0.012 0.37,-0.04 0.617,-0.086c0.251,-0.045 0.459,-0.112 0.627,-0.202c0.237,-0.125 0.46,-0.287 0.669,-0.484c0.209,-0.197 0.404,-0.437 0.585,-0.719c1.145,-1.761 2.197,-3.388 3.159,-4.882c0.957,-1.493 2.07,-3.224 3.334,-5.193l1.676,0c0.435,2.528 0.795,4.618 1.08,6.273c0.285,1.652 0.535,3.038 0.75,4.147c0.027,0.169 0.083,0.324 0.165,0.461c0.083,0.14 0.214,0.27 0.393,0.395c0.135,0.09 0.301,0.157 0.496,0.202c0.196,0.046 0.377,0.074 0.546,0.085l-0.145,0.618l-6.422,0l0,0.002zm1.35,-4.834l-0.734,-4.379l-2.743,4.379l3.477,0z" fill="#b19463"/>
  </g>
 </g>
</svg>