<?xml version="1.0" encoding="utf-8"?>
<!-- Generator: Adobe Illustrator 17.0.0, SVG Export Plug-In . SVG Version: 6.00 Build 0)  -->
<!DOCTYPE svg PUBLIC "-//W3C//DTD SVG 1.1//EN" "http://www.w3.org/Graphics/SVG/1.1/DTD/svg11.dtd">
<svg version="1.1" id="Layer_1" xmlns="http://www.w3.org/2000/svg" xmlns:xlink="http://www.w3.org/1999/xlink" x="0px" y="0px"
	 width="30px" height="30px" viewBox="0 0 30 30" enable-background="new 0 0 30 30" xml:space="preserve">
<g>
	<linearGradient id="SVGID_1_" gradientUnits="userSpaceOnUse" x1="15" y1="27.943" x2="15" y2="1.6097">
		<stop  offset="0" style="stop-color:#F3F3F3"/>
		<stop  offset="1" style="stop-color:#F4F4F4"/>
	</linearGradient>
	<path fill="url(#SVGID_1_)" stroke="#B3B3B3" stroke-width="2" stroke-miterlimit="10" d="M28.167,24.641
		c0,1.823-1.478,3.302-3.302,3.302H5.135c-1.823,0-3.302-1.478-3.302-3.302V4.911c0-1.823,1.478-3.302,3.302-3.302h19.73
		c1.823,0,3.302,1.478,3.302,3.302V24.641z"/>
	<path fill="#818181" d="M16.366,20.754l0.143-0.618c0.582-0.045,1.035-0.117,1.359-0.216c0.323-0.097,0.485-0.207,0.485-0.325
		c0-0.103-0.004-0.19-0.015-0.264c-0.012-0.072-0.026-0.157-0.043-0.252l-0.424-2.362h-4.137c-0.136,0.208-0.307,0.484-0.514,0.825
		c-0.206,0.342-0.38,0.634-0.523,0.876c-0.214,0.384-0.342,0.647-0.375,0.788c-0.038,0.141-0.056,0.232-0.056,0.271
		c0,0.169,0.133,0.309,0.398,0.418c0.265,0.112,0.671,0.192,1.218,0.242l-0.143,0.618H8.693l0.143-0.618
		C9,20.125,9.206,20.097,9.453,20.051c0.251-0.045,0.459-0.112,0.627-0.202c0.237-0.125,0.46-0.287,0.669-0.484
		c0.209-0.197,0.404-0.437,0.585-0.719c1.145-1.761,2.197-3.388,3.159-4.882c0.957-1.493,2.07-3.224,3.334-5.193h1.676
		c0.435,2.528,0.795,4.618,1.08,6.273c0.285,1.652,0.535,3.038,0.75,4.147c0.027,0.169,0.083,0.324,0.165,0.461
		c0.083,0.14,0.214,0.27,0.393,0.395c0.135,0.09,0.301,0.157,0.496,0.202c0.196,0.046,0.377,0.074,0.546,0.085l-0.145,0.618H16.366z
		 M17.716,15.92l-0.734-4.379l-2.743,4.379H17.716z"/>
</g>
</svg>
