<svg xmlns="http://www.w3.org/2000/svg" viewBox="0 0 22.33 14"><defs><style>.cls-1{fill:#544782;}</style></defs><title>Asset 8</title><g id="Layer_2" data-name="Layer 2"><g id="Шар_1" data-name="Шар 1"><path class="cls-1" d="M22.33,1.17a1.17,1.17,0,0,1-1.17,1.17h-20A1.17,1.17,0,0,1,0,1.17H0A1.17,1.17,0,0,1,1.17,0h20a1.17,1.17,0,0,1,1.17,1.17Z"/><path class="cls-1" d="M22.33,7a1.17,1.17,0,0,1-1.17,1.17h-20A1.17,1.17,0,0,1,0,7H0A1.17,1.17,0,0,1,1.17,5.83h20A1.17,1.17,0,0,1,22.33,7Z"/><path class="cls-1" d="M22.33,12.83A1.17,1.17,0,0,1,21.17,14h-20A1.17,1.17,0,0,1,0,12.83H0a1.17,1.17,0,0,1,1.17-1.17h20a1.17,1.17,0,0,1,1.17,1.17Z"/></g></g></svg>