<?xml version="1.0" encoding="utf-8"?>
<!-- Generator: Adobe Illustrator 21.0.0, SVG Export Plug-In . SVG Version: 6.00 Build 0)  -->
<svg version="1.1" id="Layer_1" xmlns="http://www.w3.org/2000/svg" xmlns:xlink="http://www.w3.org/1999/xlink" x="0px" y="0px"
	 viewBox="0 0 22.3 14" style="enable-background:new 0 0 22.3 14;" xml:space="preserve">
<style type="text/css">
	.st0{fill:#B19463;}
</style>
<title>Asset 8</title>
<g id="Layer_2">
	<g id="Шар_1">
		<path class="st0" d="M22.3,1.2c0,0.6-0.5,1.2-1.2,1.2l0,0h-20C0.5,2.3,0,1.8,0,1.2l0,0C0,0.5,0.5,0,1.2,0h20
			C21.8,0,22.3,0.5,22.3,1.2L22.3,1.2L22.3,1.2z"/>
		<path class="st0" d="M22.3,7c0,0.6-0.5,1.2-1.2,1.2l0,0h-20C0.5,8.2,0,7.6,0,7l0,0c0-0.6,0.5-1.2,1.2-1.2l0,0h20
			C21.8,5.8,22.3,6.4,22.3,7z"/>
		<path class="st0" d="M22.3,12.8c0,0.6-0.5,1.2-1.2,1.2h-20C0.5,14,0,13.5,0,12.8c0,0,0,0,0,0l0,0c0-0.6,0.5-1.2,1.2-1.2l0,0h20
			C21.8,11.7,22.3,12.2,22.3,12.8L22.3,12.8L22.3,12.8z"/>
	</g>
</g>
</svg>
