<?xml version="1.0" encoding="utf-8"?>
<!-- Generator: Adobe Illustrator 16.0.0, SVG Export Plug-In . SVG Version: 6.00 Build 0)  -->
<!DOCTYPE svg PUBLIC "-//W3C//DTD SVG 1.1//EN" "http://www.w3.org/Graphics/SVG/1.1/DTD/svg11.dtd">
<svg version="1.1" id="Layer_1" xmlns="http://www.w3.org/2000/svg" xmlns:xlink="http://www.w3.org/1999/xlink" x="0px" y="0px"
	 viewBox="0 99.21 425.2 425.2" enable-background="new 0 99.21 425.2 425.2"
	 xml:space="preserve">
<circle fill="#CAD55B" cx="211.798" cy="311.366" r="203.302"/>
<title>Asset 1</title>
<g id="Layer_2">
	<g id="Шар_1">
		<path fill="#544782" d="M213.403,112.046c110.713,0,200.566,89.854,200.566,200.566s-89.854,200.566-200.566,200.566
			S12.836,423.326,12.836,312.613S102.69,112.046,213.403,112.046C211.798,112.046,211.798,112.046,213.403,112.046 M213.403,99.21
			C94.667,99.21,0,193.877,0,312.613C0,431.347,96.272,524.41,213.403,524.41S425.2,429.744,425.2,312.613
			C425.2,193.877,330.534,99.21,213.403,99.21z"/>
		<g>
			<path fill="#544782" d="M372.25,452.207h-16.045v-41.718c-12.836-8.022-73.809-22.464-81.831-24.067h-17.649v-16.046h17.649l0,0
				c0,0,97.876,17.649,97.876,36.903V452.207z"/>
		</g>
		<g>
			<path fill="#544782" d="M75.413,460.228H59.368v-52.949c0-19.254,96.271-36.903,97.876-36.903h9.627v16.046h-9.627
				c-8.022,0-70.599,16.045-81.831,24.067V460.228z"/>
		</g>
		<g>
			<path fill="#544782" d="M282.397,283.731h-16.045v-70.6c0-1.604,0-3.209-1.605-4.813l-8.021,19.254l-41.719-8.022l6.418,27.277
				l-59.367-38.509c-3.209,0-4.814,3.209-4.814,4.813v70.6h-16.045v-70.6c0-12.836,9.627-22.463,22.463-22.463h1.604l30.486,20.859
				l-3.209-12.836l54.555,11.231l6.418-17.65h4.813c12.837,0,22.464,9.627,22.464,22.463v68.995H282.397z"/>
		</g>
		<g>
			<path fill="#544782" d="M206.984,440.974c-35.3,0-46.531-38.508-46.531-40.113c-1.605-6.418-1.605-14.439-1.605-24.067
				c0-6.418-1.604-14.44-1.604-19.255c-8.022-4.813-12.836-14.44-16.045-22.463l-1.604-16.045c-3.209,0-6.418-1.605-8.023-3.209
				c-3.209-4.814-4.813-8.023-6.418-11.232l-4.813-38.509c0-4.813,1.604-8.023,3.209-11.232c3.209-3.209,4.813-4.813,8.022-4.813
				l-1.604-17.65c-1.604-12.836-3.209-40.113,16.045-57.763c38.509-30.486,91.458-30.486,128.362,0
				c19.255,17.649,17.649,41.718,17.649,56.158c0,1.604,0,3.209,0,4.813c0,4.814-1.604,9.627-1.604,14.441
				c6.418,3.209,11.23,9.627,9.627,16.045l-4.814,38.509c-1.604,8.023-6.418,12.835-14.44,12.835l-1.604,16.046
				c-1.604,9.627-8.022,17.649-14.441,24.067c0,4.814-1.604,11.232-1.604,19.255c0,9.628-1.605,19.255-1.605,24.067v1.605
				C253.516,424.929,232.657,440.974,206.984,440.974z M154.035,290.149v17.65l3.209,25.672c1.604,4.813,4.814,11.231,11.232,14.44
				l3.209,1.605v3.209c0,4.813,1.604,14.44,1.604,24.067c0,9.628,1.604,17.649,1.604,22.464c0,0,8.023,27.277,30.486,27.277
				c17.65,0,33.695-11.232,38.509-28.883c0-4.813,1.604-12.836,1.604-20.858c0-9.627,1.605-19.255,1.605-24.067v-3.209l3.209-1.605
				c4.813-3.209,9.627-8.022,11.23-14.44l4.814-41.718l11.231,11.232l3.209-36.904l-14.44,8.022l3.209-14.44
				c1.604-8.023,1.604-14.441,3.209-22.463c0-1.605,0-3.209,0-4.814c1.604-11.231,1.604-30.486-11.232-41.718
				c-32.09-25.672-77.017-25.672-107.503,0c-11.231,8.023-9.627,28.882-8.022,40.113l4.813,41.718l-12.836-8.022l4.814,38.509
				L154.035,290.149z"/>
		</g>
		<g>
			<polygon fill="#544782" points="229.448,375.189 192.543,375.189 160.453,359.144 166.871,344.703 195.752,359.144 
				229.448,359.144 			"/>
		</g>
	</g>
</g>
</svg>
