<?xml version="1.0" encoding="utf-8"?>
<!-- Generator: Adobe Illustrator 21.0.0, SVG Export Plug-In . SVG Version: 6.00 Build 0)  -->
<svg version="1.1" id="Layer_1" xmlns="http://www.w3.org/2000/svg" xmlns:xlink="http://www.w3.org/1999/xlink" x="0px" y="0px"
	 viewBox="0 0 26.5 26.5" style="enable-background:new 0 0 26.5 26.5;" xml:space="preserve">
<style type="text/css">
	.st0{fill:#544782;}
</style>
<title>Asset 1</title>
<g id="Layer_2">
	<g id="Шар_1">
		<path class="st0" d="M13.3,0.8c6.9,0,12.5,5.6,12.5,12.5c0,6.9-5.6,12.5-12.5,12.5c-6.9,0-12.5-5.6-12.5-12.5
			C0.8,6.4,6.4,0.8,13.3,0.8C13.2,0.8,13.2,0.8,13.3,0.8 M13.3,0C5.9,0,0,5.9,0,13.3S6,26.5,13.3,26.5c7.3,0,13.2-5.9,13.2-13.2
			C26.5,5.9,20.6,0,13.3,0z"/>
		<g>
			<path class="st0" d="M23.2,22h-1v-2.6c-0.8-0.5-4.6-1.4-5.1-1.5l-1.1,0l0-1l1.1,0l0,0c0,0,6.1,1.1,6.1,2.3V22z"/>
		</g>
		<g>
			<path class="st0" d="M4.7,22.5h-1v-3.3c0-1.2,6-2.3,6.1-2.3h0.6v1H9.8c-0.5,0-4.4,1-5.1,1.5V22.5z"/>
		</g>
		<g>
			<path class="st0" d="M17.6,11.5h-1V7.1c0-0.1,0-0.2-0.1-0.3L16,8l-2.6-0.5l0.4,1.7l-3.7-2.4C9.9,6.8,9.8,7,9.8,7.1v4.4h-1V7.1
				c0-0.8,0.6-1.4,1.4-1.4h0.1L12.2,7l-0.2-0.8l3.4,0.7l0.4-1.1h0.3c0.8,0,1.4,0.6,1.4,1.4V11.5z"/>
		</g>
		<g>
			<path class="st0" d="M12.9,21.3c-2.2,0-2.9-2.4-2.9-2.5c-0.1-0.4-0.1-0.9-0.1-1.5c0-0.4-0.1-0.9-0.1-1.2c-0.5-0.3-0.8-0.9-1-1.4
				l-0.1-1c-0.2,0-0.4-0.1-0.5-0.2C8,13.2,7.9,13,7.8,12.8l-0.3-2.4c0-0.3,0.1-0.5,0.2-0.7C7.9,9.5,8,9.4,8.2,9.4L8.1,8.3
				C8,7.5,7.9,5.8,9.1,4.7c2.4-1.9,5.7-1.9,8,0c1.2,1.1,1.1,2.6,1.1,3.5c0,0.1,0,0.2,0,0.3c0,0.3-0.1,0.6-0.1,0.9
				c0.4,0.2,0.7,0.6,0.6,1l-0.3,2.4c-0.1,0.5-0.4,0.8-0.9,0.8l-0.1,1c-0.1,0.6-0.5,1.1-0.9,1.5c0,0.3-0.1,0.7-0.1,1.2
				c0,0.6-0.1,1.2-0.1,1.5l0,0.1C15.8,20.3,14.5,21.3,12.9,21.3z M9.6,11.9l0,1.1l0.2,1.6c0.1,0.3,0.3,0.7,0.7,0.9l0.2,0.1l0,0.2
				c0,0.3,0.1,0.9,0.1,1.5c0,0.6,0.1,1.1,0.1,1.4c0,0,0.5,1.7,1.9,1.7c1.1,0,2.1-0.7,2.4-1.8c0-0.3,0.1-0.8,0.1-1.3
				c0-0.6,0.1-1.2,0.1-1.5l0-0.2l0.2-0.1c0.3-0.2,0.6-0.5,0.7-0.9l0.3-2.6l0.7,0.7l0.2-2.3l-0.9,0.5l0.2-0.9
				c0.1-0.5,0.1-0.9,0.2-1.4c0-0.1,0-0.2,0-0.3c0.1-0.7,0.1-1.9-0.7-2.6c-2-1.6-4.8-1.6-6.7,0C8.9,6.2,9,7.5,9.1,8.2l0.3,2.6
				l-0.8-0.5l0.3,2.4L9.6,11.9z"/>
		</g>
		<g>
			<polygon class="st0" points="14.3,17.2 12,17.2 10,16.2 10.4,15.3 12.2,16.2 14.3,16.2 			"/>
		</g>
	</g>
</g>
</svg>
