<?xml version="1.0" encoding="utf-8"?>
<!-- Generator: Adobe Illustrator 16.0.0, SVG Export Plug-In . SVG Version: 6.00 Build 0)  -->
<!DOCTYPE svg PUBLIC "-//W3C//DTD SVG 1.1//EN" "http://www.w3.org/Graphics/SVG/1.1/DTD/svg11.dtd">
<svg version="1.1" id="Layer_1" xmlns="http://www.w3.org/2000/svg" xmlns:xlink="http://www.w3.org/1999/xlink" x="0px" y="0px"
	 width="81.174px" height="81.175px" viewBox="0 0 81.174 81.175" enable-background="new 0 0 81.174 81.175" xml:space="preserve">
<g>
	<g>
		<path fill="#FFFFFF" d="M40.584,2.398c21.094,0,38.191,17.101,38.191,38.194c0,21.085-17.098,38.186-38.191,38.186
			c-21.086,0-38.186-17.101-38.186-38.186C2.398,19.499,19.498,2.398,40.584,2.398 M40.584,0C18.208,0,0,18.208,0,40.593
			c0,22.374,18.208,40.582,40.584,40.582c22.381,0,40.59-18.208,40.59-40.582C81.174,18.208,62.965,0,40.584,0L40.584,0z"/>
	</g>
	<g>
		<path fill="none" stroke="#FFFFFF" stroke-miterlimit="10" d="M69.583,67.488v-8.663c0-1.577-15.585-5.41-17.188-5.41
			l-3.509-0.123"/>
		<path fill="none" stroke="#FFFFFF" stroke-miterlimit="10" d="M31.881,53.352l-1.825,0.063c-1.597,0-17.188,3.833-17.188,5.41
			v10.068"/>
		<path fill="none" stroke="#FFFFFF" stroke-miterlimit="10" d="M28.47,35.218V21.866c0-1.476,1.196-2.681,2.681-2.681l8.541,5.592
			l-0.899-3.88l9.255,1.796l1.45-3.509c1.481,0,2.685,1.205,2.685,2.681v13.352"/>
		<path fill="none" stroke="#FFFFFF" stroke-miterlimit="10" d="M48.493,57.079c0.244-1.728,0.491-6.968,0.735-8.692
			c1.619-1.041,2.783-2.564,2.889-3.837c0.191-1.603,0.377-3.207,0.557-4.813c0.23,0.232,0.53,0.402,0.872,0.432
			c0.774,0.084,1.461-0.477,1.536-1.239l0.772-7.42c0.077-0.766-0.484-1.454-1.25-1.528c-0.284-0.033-0.566,0.031-0.812,0.164
			c0.17-1.416,0.334-2.814,0.49-4.227c0.133-1.937,1.087-7.088-2.636-10.413c-5.388-5.292-17.232-5.292-22.616,0
			c-3.721,3.325-2.767,8.476-2.637,10.413c0.168,1.412,0.331,2.811,0.489,4.227c-0.235-0.133-0.519-0.197-0.814-0.164
			c-0.759,0.074-1.323,0.762-1.242,1.528l0.767,7.42c0.077,0.762,0.767,1.323,1.533,1.239c0.344-0.03,0.642-0.199,0.869-0.432
			c0.187,1.606,0.371,3.21,0.563,4.813c0.112,1.273,1.273,2.796,2.889,3.837c0.245,1.725,0.493,6.965,0.73,8.692
			c0,0,1.843,6.634,7.48,6.634C46.551,63.713,48.493,57.079,48.493,57.079z"/>
		<polyline fill="none" stroke="#FFFFFF" stroke-miterlimit="10" points="43.848,51.173 37.147,51.173 31.243,48.222 		"/>
	</g>
</g>
</svg>
