<?xml version="1.0" encoding="utf-8"?>
<!-- Generator: Adobe Illustrator 21.1.0, SVG Export Plug-In . SVG Version: 6.00 Build 0)  -->
<svg version="1.1" id="Layer_1" xmlns="http://www.w3.org/2000/svg" xmlns:xlink="http://www.w3.org/1999/xlink" x="0px" y="0px"
	 viewBox="0 0 22 22" style="enable-background:new 0 0 22 22;" xml:space="preserve">
<style type="text/css">
	.st0{fill:#FFFFFF;}
</style>
<title>Asset 4</title>
<g id="Layer_2">
	<g id="Шар_1">
		<path class="st0" d="M4.5,10h-1C3.2,10,3,10.2,3,10.5S3.2,11,3.5,11h1C4.8,11,5,10.8,5,10.5S4.8,10,4.5,10 M7.5,19h-1
			C6.2,19,6,19.2,6,19.5S6.2,20,6.5,20h1C7.8,20,8,19.8,8,19.5S7.8,19,7.5,19 M4.5,19h-1C3.2,19,3,19.2,3,19.5S3.2,20,3.5,20h1
			C4.8,20,5,19.8,5,19.5S4.8,19,4.5,19 M15.5,11h1c0.3,0,0.5-0.2,0.5-0.5S16.8,10,16.5,10h-1c-0.3,0-0.5,0.2-0.5,0.5
			S15.2,11,15.5,11 M16.5,19h-1c-0.3,0-0.5,0.2-0.5,0.5s0.2,0.5,0.5,0.5h1c0.3,0,0.5-0.2,0.5-0.5S16.8,19,16.5,19 M17.5,14.5
			c-0.3,0-0.5,0.2-0.5,0.5s0.2,0.5,0.5,0.5S18,15.3,18,15S17.8,14.5,17.5,14.5 M7.5,10h-1C6.2,10,6,10.2,6,10.5S6.2,11,6.5,11h1
			C7.8,11,8,10.8,8,10.5S7.8,10,7.5,10 M13.5,10h-1c-0.3,0-0.5,0.2-0.5,0.5s0.2,0.5,0.5,0.5h1c0.3,0,0.5-0.2,0.5-0.5
			S13.8,10,13.5,10 M20,12V8c0-1.1-0.9-2-2-2h-0.7l-1.2-4.5c-0.3-1.1-1.4-1.7-2.4-1.4L3.5,2.7C2.5,3,1.8,4.1,2.1,5.2L2.3,6H2
			C0.9,6,0,6.9,0,8v12c0,1.1,0.9,2,2,2h16c1.1,0,2-0.9,2-2v-2c1.1,0,2-0.9,2-2v-2C22,12.9,21.1,12,20,12 M18,7c0.6,0,1,0.4,1,1v0.3
			C18.7,8.1,18.4,8,18,8h-0.2l-0.3-1H18z M16.1,5.6L16.8,8H7.1L16.1,5.6z M3.8,3.7L13.9,1c0.5-0.1,1.1,0.2,1.2,0.7l0.3,1l-12,3.2
			l-0.3-1C3,4.4,3.3,3.9,3.8,3.7 M1,8c0-0.6,0.4-1,1-1h0.6l0.3,1H2C1.6,8,1.3,8.1,1,8.3V8z M19,20c0,0.6-0.4,1-1,1H2
			c-0.6,0-1-0.4-1-1V10c0-0.6,0.4-1,1-1h16c0.6,0,1,0.4,1,1v2h-2c-1.1,0-2,0.9-2,2v2c0,1.1,0.9,2,2,2h2V20z M21,16c0,0.6-0.4,1-1,1
			h-3c-0.6,0-1-0.4-1-1v-2c0-0.6,0.4-1,1-1h3c0.6,0,1,0.4,1,1V16z M10.5,19h-1C9.2,19,9,19.2,9,19.5S9.2,20,9.5,20h1
			c0.3,0,0.5-0.2,0.5-0.5S10.8,19,10.5,19 M13.5,19h-1c-0.3,0-0.5,0.2-0.5,0.5s0.2,0.5,0.5,0.5h1c0.3,0,0.5-0.2,0.5-0.5
			S13.8,19,13.5,19 M10.5,10h-1C9.2,10,9,10.2,9,10.5S9.2,11,9.5,11h1c0.3,0,0.5-0.2,0.5-0.5S10.8,10,10.5,10"/>
	</g>
</g>
</svg>
