<svg xmlns="http://www.w3.org/2000/svg" viewBox="0 0 22 22"><defs><style>.cls-1{fill:#cad55b;}</style></defs><title>Asset 4</title><g id="Layer_2" data-name="Layer 2"><g id="Шар_1" data-name="Шар 1"><path class="cls-1" d="M4.5,10h-1a.5.5,0,0,0,0,1h1a.5.5,0,1,0,0-1m3,9h-1a.5.5,0,0,0,0,1h1a.5.5,0,0,0,0-1m-3,0h-1a.5.5,0,0,0,0,1h1a.5.5,0,0,0,0-1m11-8h1a.5.5,0,1,0,0-1h-1a.5.5,0,1,0,0,1m1,8h-1a.5.5,0,0,0,0,1h1a.5.5,0,1,0,0-1m1-4.5a.5.5,0,1,0,.5.5.5.5,0,0,0-.5-.5M7.5,10h-1a.5.5,0,1,0,0,1h1a.5.5,0,0,0,0-1m6,0h-1a.5.5,0,1,0,0,1h1a.5.5,0,1,0,0-1M20,12V8a2,2,0,0,0-2-2h-.72L16.07,1.48A2,2,0,0,0,13.62.07L3.53,2.74A2,2,0,0,0,2.12,5.19L2.33,6H2A2,2,0,0,0,0,8V20a2,2,0,0,0,2,2H18a2,2,0,0,0,2-2V18a2,2,0,0,0,2-2V14a2,2,0,0,0-2-2M18,7a1,1,0,0,1,1,1v.28A2,2,0,0,0,18,8h-.18l-.27-1ZM16.14,5.6,16.78,8H7.12ZM3.79,3.7,13.88,1a1,1,0,0,1,1.22.71l.26,1-12,3.19-.26-1A1,1,0,0,1,3.79,3.7M1,8A1,1,0,0,1,2,7h.6l.27,1H2a2,2,0,0,0-1,.28ZM19,20a1,1,0,0,1-1,1H2a1,1,0,0,1-1-1V10A1,1,0,0,1,2,9H18a1,1,0,0,1,1,1v2H17a2,2,0,0,0-2,2v2a2,2,0,0,0,2,2h2Zm2-4a1,1,0,0,1-1,1H17a1,1,0,0,1-1-1V14a1,1,0,0,1,1-1h3a1,1,0,0,1,1,1ZM10.5,19h-1a.5.5,0,0,0,0,1h1a.5.5,0,0,0,0-1m3,0h-1a.5.5,0,1,0,0,1h1a.5.5,0,1,0,0-1m-3-9h-1a.5.5,0,1,0,0,1h1a.5.5,0,1,0,0-1"/></g></g></svg>