<?xml version="1.0" encoding="utf-8"?>
<!-- Generator: Adobe Illustrator 16.0.4, SVG Export Plug-In . SVG Version: 6.00 Build 0)  -->
<!DOCTYPE svg PUBLIC "-//W3C//DTD SVG 1.1//EN" "http://www.w3.org/Graphics/SVG/1.1/DTD/svg11.dtd">
<svg version="1.1" id="Шар_1" xmlns="http://www.w3.org/2000/svg" xmlns:xlink="http://www.w3.org/1999/xlink" x="0px" y="0px"
	 width="448px" height="527.974px" viewBox="0 0 448 527.974" enable-background="new 0 0 448 527.974" xml:space="preserve">
<circle fill-rule="evenodd" clip-rule="evenodd" fill="#785B43" cx="224.789" cy="307.76" r="205.202"/>
<circle fill-rule="evenodd" clip-rule="evenodd" fill="#B5DBCD" cx="224.789" cy="307.76" r="191.626"/>
<circle fill-rule="evenodd" clip-rule="evenodd" fill="#E7F4F7" cx="224.789" cy="307.76" r="177.006"/>
<g>
	<path fill-rule="evenodd" clip-rule="evenodd" fill="#F4E2B1" d="M321.34,223.918c3.822,0.952,6.8,3.253,9.904,5.28
		c0.065,0.779,0.196,1.355,0.15,1.919c-1.104,13.783-0.755,27.594-0.797,41.398c0,0.087-0.188,0.174-0.298,0.267
		c-0.781,0.21-0.98-0.485-1.247-0.919c-1.588-2.595-3.099-5.24-4.7-7.829c-0.892-1.441-1.484-2.742-0.314-4.41
		c0.361-0.52,0.107-1.728-0.236-2.441c-3.437-7.129-3.489-7.552-3.16-15.516c0.174-4.197-0.218-8.416-0.271-12.625
		C320.349,227.335,320.254,225.564,321.34,223.918z"/>
</g>
<g>
	<path fill-rule="evenodd" clip-rule="evenodd" fill="#E9E6F4" d="M321.193,6.683c1.178,1.454,1.344,2.869,1.079,4.33
		c-1.118,6.141-1.865,12.388-3.515,18.384c-2.463,8.951-5.389,17.79-8.476,26.55c-1.729,4.915-4.076,9.626-6.334,14.338
		c-3.011,6.285-5.98,12.611-9.382,18.686c-4.4,7.854-9.229,15.466-13.836,23.204c-2.601,4.366-5.218,8.727-7.652,13.183
		c-2.672,4.889-4.466,10.077-4.672,15.73c-0.036,0.957-0.424,1.901-0.713,3.117c-1.189-0.231-2.155-0.368-3.094-0.608
		c-2.905-0.744-5.33-2.426-7.357-4.498c-2.481-2.537-2.46-4.274-0.832-6.564c2.796-3.93,4.628-8.321,6.048-12.948
		c1.445-4.715,3.348-9.288,4.984-13.947c0.722-2.052,1.28-4.16,1.902-6.248c2.562-8.628,4.882-17.338,7.773-25.854
		c1.576-4.644,3.914-9.069,6.267-13.399c4.295-7.912,8.896-15.661,13.296-23.518c3.851-6.875,8.693-13.058,13.324-19.39
		c2.493-3.408,5.294-6.571,8.636-9.188C319.388,7.46,320.336,7.131,321.193,6.683z"/>
	<path fill-rule="evenodd" clip-rule="evenodd" fill="#E9E6F4" d="M146.349,30.26c0.82,0.135,1.586,0.086,2.165,0.389
		c1.673,0.871,3.312,1.821,4.89,2.853c9.147,5.983,16.437,13.806,22.604,22.767c3.133,4.552,6.328,9.069,9.711,13.436
		c1.974,2.551,3.631,5.26,5.156,8.068c4.584,8.436,8.818,17.04,12.518,25.904c3.076,7.373,6.178,14.737,9.384,22.054
		c2.101,4.796,4.435,9.482,7.674,13.655c0.528,0.678,0.922,1.464,1.325,2.23c0.461,0.88,0.232,1.751-0.378,2.427
		c-2.501,2.775-5.674,4.487-9.214,5.525c-0.989,0.29-1.871-0.343-2.33-1.513c-0.849-2.163-1.597-4.365-2.477-6.515
		c-2.115-5.173-5.498-9.539-8.885-13.91c-3.827-4.938-7.581-9.935-11.323-14.938c-1.83-2.445-3.453-5.05-5.359-7.43
		c-5.104-6.37-9.532-13.199-14.028-19.99c-4.497-6.795-8.424-13.9-11.911-21.259c-1.366-2.886-2.871-5.712-4.14-8.639
		c-2.029-4.686-3.385-9.582-4.205-14.628c-0.305-1.862-0.748-3.702-1.125-5.553C146.082,33.624,145.977,32.058,146.349,30.26z"/>
</g>
<g>
	<path fill-rule="evenodd" clip-rule="evenodd" fill="#645043" d="M258.431,500.995c-0.035-0.028-1.018-1.407-0.733-2.309
		c0.758-2.412-0.001-4.599-1.072-6.704c-0.792-1.554-1.701-3.047-2.556-4.568c-2.318-4.124-6.092-6.2-10.519-7.057
		c-4.557-0.885-8.638,0.31-12.012,3.644c-3.838,3.794-5.751,8.267-5.083,13.959c0.918,0.045,1.744,0.118,2.568,0.12
		c2.183,0.006,4.387-0.234,6.536,0.016c3.348,0.389,4.251,2.193,4.134,4.567c-0.104,2.057-0.295,4.036-1.215,5.92
		c-1.979,4.047-3.907,8.115-5.858,12.176c-0.578,1.203-1.617,1.574-2.859,1.576c-2.18,0.004-4.358,0.028-6.536,0.015
		c-10.327-0.068-20.653-0.163-30.98-0.213c-6.11-0.028-12.222-0.065-18.33,0.058c-2.096,0.045-3.434-0.605-4.759-2.295
		c-5.034-6.419-9.864-12.966-13.955-20.032c-1.31-2.264-2.547-4.571-3.791-6.874c-2.006-3.708-4.084-7.384-5.951-11.16
		c-1.065-2.155-2.729-3.354-4.919-3.937c-1.541-0.41-3.127-0.657-4.696-0.955c-5.762-1.089-11.257-2.885-16.274-6.001
		c-5.989-3.723-9.07-9.223-9.926-16.099c-0.789-6.328-0.118-12.448,2.256-18.422c1.67-4.205,2.335-8.687,2.917-13.16
		c0.655-5.047,1.354-10.089,1.935-15.146c0.181-1.574,0.155-3.198,0.018-4.781c-0.55-6.409-0.295-12.794,0.472-19.165
		c0.642-5.338,1.313-10.673,1.996-16.006c0.129-1.005,0.327-2.011,0.581-2.993c1.71-6.612,2.354-13.413,3.614-20.105
		c0.046-0.242-0.154-0.53-0.263-0.864c-0.383,0-0.903-0.162-1.173,0.027c-1.305,0.918-2.631,1.836-3.785,2.926
		c-3.169,2.994-6.244,6.088-9.383,9.117c-2.735,2.638-5.636,5.008-9.406,6.1c-0.909,0.264-3.985-3.275-4.204-4.856
		c-0.267-1.941,0.034-3.802,0.814-5.538c1.97-4.384,4.292-8.564,7.697-12.037c3.865-3.939,7.842-7.776,11.589-11.828
		c3.157-3.412,5.879-7.234,9.114-10.563c2.854-2.935,3.76-6.172,3.722-10.179c-0.068-7.15-0.642-14.236-1.597-21.305
		c-0.545-4.033-1.166-8.057-1.66-12.095c-0.958-7.814-2.764-15.458-4.874-23.013c-2.895-10.36-5.636-20.794-9.22-30.922
		c-4.701-13.284-9.713-26.47-15.787-39.235c-3.682-7.738-6.784-15.764-9.33-23.967c-1.601-5.159-2.7-10.423-1.403-15.849
		c0.402-1.684,0.871-3.393,1.61-4.948c1.943-4.085,4.412-7.813,7.595-11.101c3.038-3.136,5.855-6.509,9.54-8.91
		c3.157-2.059,6.344-4.148,9.744-5.741c13.056-6.114,27.037-8.781,41.215-10.629c1.009-0.132,2.027-0.209,3.027-0.389
		c3.581-0.642,7.154-1.312,10.817-1.267c1.468,0.019,2.923-0.13,4.13-1.602c-0.362-0.79-0.685-1.737-1.196-2.568
		c-2.67-4.333-5.453-8.597-8.068-12.962c-4.558-7.613-8.449-15.57-12.169-23.625c-2.34-5.064-3.904-10.316-5.046-15.738
		c-0.298-1.417-0.891-2.773-1.172-4.192c-0.391-1.987-0.837-4.003-0.866-6.014c-0.055-3.881,1.308-4.825,4.785-3.3
		c2.382,1.045,4.67,2.358,6.867,3.762c8.441,5.398,15.32,12.414,21.086,20.578c2.766,3.917,5.56,7.82,8.51,11.598
		c5.228,6.697,9.064,14.198,12.886,21.717c1.181,2.324,2.354,4.652,3.531,6.98c0.905,0.104,1.613,0.266,2.321,0.255
		c6.548-0.093,13.097-0.286,19.646-0.311c7.561-0.03,15.122,0.018,22.684,0.147c6.104,0.104,12.205,0.467,18.311,0.519
		c1.481,0.012,2.779,0.297,4.099,1.201c0.77-2.414,1.551-4.457,2.067-6.564c3.178-12.963,8.601-24.966,15.36-36.416
		c3.622-6.133,7.032-12.395,10.787-18.443c5.222-8.41,10.987-16.45,17.694-23.76c1.363-1.485,2.998-2.749,4.614-3.971
		c0.65-0.49,1.585-0.788,2.408-0.838c2.481-0.147,2.987,0.773,3.354,2.536c0.392,1.887,0.418,3.7-0.073,5.601
		c-2.243,8.717-4.294,17.483-6.612,26.18c-1.382,5.188-2.976,10.333-4.764,15.396c-1.353,3.83-3.03,7.56-4.788,11.226
		c-3.643,7.593-7.427,15.119-11.176,22.661c-0.644,1.298-1.436,2.522-2.1,3.811c-0.52,1.004-0.946,2.053-1.516,3.31
		c0.962,0.435,1.69,0.962,2.481,1.089c12.084,1.942,23.805,5.348,35.558,8.646c5.062,1.42,9.939,3.289,14.697,5.45
		c4.062,1.845,7.108,4.916,9.119,8.948c0.063,0.128,0.056,0.318,0.149,0.405c2.811,2.593,2.161,5.837,1.491,8.944
		c-1.012,4.689-2.243,9.333-3.445,13.979c-2.291,8.863-4.79,17.679-6.899,26.585c-1.841,7.771-3.373,15.619-4.822,23.475
		c-0.657,3.563-0.762,7.228-1.154,10.842c-0.613,5.629-1.257,11.257-1.923,17.206c1.296,1.336,2.735,2.75,4.089,4.242
		c1.36,1.501,2.622,3.092,3.947,4.627c4.255,4.939,4.696,11.106,5.412,17.142c0.532,4.509-5.938,6.698-8.532,5.177
		c-1.062-0.621-1.714-1.584-1.985-2.758c-0.523-2.267-0.941-4.559-1.481-6.82c-0.505-2.114-1.061-4.218-1.695-6.296
		c-0.385-1.256-1.127-2.286-2.56-2.63c-1.15,1.263-0.857,2.78-1.012,4.189c-1.183,10.87-0.868,21.782-0.868,32.685
		c0,2.324,0.252,4.685-0.07,6.964c-0.298,2.105,0.356,3.639,1.56,5.2c5.583,7.254,10.875,14.727,17.194,21.405
		c5.491,5.804,10.677,11.897,16.119,17.75c2.465,2.647,4.806,5.406,7.502,7.867c2.283,2.082,3.092,5.21,4.107,8.091
		c0.697,1.98,0.546,3.976-0.062,6.091c-1.166,0.123-2.293,0.204-3.409,0.366c-2.54,0.366-4.972-0.035-7.178-1.283
		c-4.168-2.36-8.266-4.844-12.396-7.273c-1.609-0.947-2.987-2.332-4.827-2.667c-1.329,0.257-1.764,1.19-1.869,2.224
		c-0.1,0.998-0.116,2.056,0.11,3.021c0.765,3.253,1.239,6.539,1.706,9.847c0.461,3.285,1.349,6.552,2.418,9.7
		c1.415,4.179,1.805,8.518,2.407,12.813c1.25,8.918,2.36,17.859,3.344,26.811c0.33,3.016,0.329,6.111,0.06,9.136
		c-0.309,3.46-0.906,6.921-1.69,10.308c-2.889,12.489-6.839,24.63-12.267,36.269c-1.103,2.367-1.941,4.855-2.958,7.266
		c-3.729,8.854-8.197,17.341-12.892,25.709c-3.763,6.713-7.527,13.435-11.57,19.979c-2.898,4.695-6.258,9.106-9.41,13.644
		c-0.689,0.99-1.529,1.706-2.808,1.854c-1.298,0.149-2.571,0.506-3.868,0.636c-13.346,1.321-26.717,1.463-40.1,0.741
		c-3.628-0.194-7.249-0.513-10.873-0.787c-0.432-0.032-0.864-0.104-1.286-0.211c-1.36-0.348-2.122-1.04-2.077-2.422
		c0.104-3.27-0.785-6.288-1.72-9.374c-0.572-1.886-0.357-4.01-0.499-6.05c2.159-2.29,4.566-3.109,7.542-2.743
		C255.631,501.348,258.49,501.249,258.431,500.995z M321.193,6.683c-0.857,0.448-1.806,0.777-2.553,1.361
		c-3.342,2.617-6.143,5.78-8.636,9.188c-4.631,6.332-9.474,12.514-13.324,19.39c-4.4,7.857-9.001,15.605-13.296,23.518
		c-2.353,4.33-4.69,8.755-6.267,13.399c-2.892,8.516-5.211,17.226-7.773,25.854c-0.622,2.087-1.181,4.196-1.902,6.248
		c-1.637,4.659-3.539,9.231-4.984,13.947c-1.42,4.626-3.252,9.018-6.048,12.948c-1.628,2.29-1.649,4.027,0.832,6.564
		c2.027,2.072,4.452,3.753,7.357,4.498c0.938,0.24,1.904,0.377,3.094,0.608c0.289-1.216,0.677-2.16,0.713-3.117
		c0.206-5.653,2-10.841,4.672-15.73c2.435-4.456,5.052-8.817,7.652-13.183c4.606-7.738,9.436-15.35,13.836-23.204
		c3.401-6.075,6.371-12.401,9.382-18.686c2.258-4.712,4.604-9.423,6.334-14.338c3.087-8.76,6.013-17.599,8.476-26.55
		c1.649-5.996,2.396-12.243,3.515-18.384C322.537,9.552,322.371,8.137,321.193,6.683z M146.349,30.26
		c-0.372,1.797-0.267,3.364,0.052,4.933c0.377,1.851,0.82,3.69,1.125,5.553c0.82,5.046,2.176,9.942,4.205,14.628
		c1.269,2.927,2.773,5.753,4.14,8.639c3.487,7.358,7.414,14.464,11.911,21.259c4.496,6.791,8.925,13.621,14.028,19.99
		c1.906,2.38,3.529,4.985,5.359,7.43c3.742,5.003,7.496,10,11.323,14.938c3.387,4.372,6.77,8.737,8.885,13.91
		c0.88,2.149,1.628,4.352,2.477,6.515c0.459,1.17,1.341,1.803,2.33,1.513c3.54-1.039,6.713-2.75,9.214-5.525
		c0.61-0.676,0.839-1.547,0.378-2.427c-0.403-0.766-0.797-1.552-1.325-2.23c-3.239-4.173-5.573-8.859-7.674-13.655
		c-3.206-7.317-6.308-14.682-9.384-22.054c-3.699-8.864-7.934-17.468-12.518-25.904c-1.525-2.808-3.183-5.517-5.156-8.068
		c-3.383-4.367-6.578-8.884-9.711-13.436c-6.168-8.961-13.457-16.784-22.604-22.767c-1.578-1.032-3.217-1.982-4.89-2.853
		C147.935,30.346,147.169,30.395,146.349,30.26z M214.505,518.913c4.781,0.606,9.388,0.483,13.991,0.272
		c0.94-0.041,1.518-0.711,1.991-1.493c2.259-3.719,4.167-7.612,5.576-11.729c0.513-1.501,0.718-3.099-0.166-4.664
		c-3.713-1.599-7.416-0.198-11.083,0.177c-2.059,0.21-4.367,0.178-5.883,1.731c-0.461,2.811-0.661,5.431-1.364,7.91
		C216.83,513.711,215.607,516.166,214.505,518.913z M258.078,505.254c-1.293-0.394-1.993-0.571-2.666-0.818
		c-1.714-0.629-3.549-0.971-4.872,0.47c-1.181,1.283-0.601,3.02-0.21,4.562c0.604,2.381,1.226,4.755,1.883,7.119
		c0.146,0.526,0.475,1.005,0.707,1.478c1.974,0.305,3.773,0.93,5.843,0.146c-0.466-2.187-1.172-4.271-1.288-6.388
		C257.36,509.727,257.838,507.596,258.078,505.254z"/>
	<path fill-rule="evenodd" clip-rule="evenodd" fill="#645043" d="M247.671,292.535c-1.196-0.023-2.043-0.883-2.127-2.158
		c-0.058-0.898,0.659-1.688,1.51-1.661c1.259,0.042,2.091,0.889,2.104,2.135C249.163,291.834,248.531,292.553,247.671,292.535z"/>
</g>
<path fill-rule="evenodd" clip-rule="evenodd" fill="#FFFFFF" d="M210.187,247.069c-3.949-0.972-7.176-2.644-9.556-5.396
	c-4.653-5.375-7.084-11.592-5.946-18.864c0.382-2.437,0.585-4.911,1.139-7.306c0.801-3.463,2.545-6.398,5.129-8.953
	c1.569-1.552,3.659-1.584,5.212-2.83c0.799,0.947,0.19,1.53-0.244,2.033c-1.568,1.813-2.365,4.001-3.064,6.221
	c-0.862,2.741-0.165,4.397,2.352,5.808c0.628,0.352,1.36,0.52,1.99,0.871c0.76,0.421,1.51,0.892,2.179,1.442
	c1.369,1.123,1.791,2.624,1.173,3.847c-0.693,1.371-2.455,2.409-3.941,2.221c-0.857-0.108-1.684-0.461-2.539-0.553
	c-1.286-0.139-2.256,0.624-2.513,1.909c-0.349,1.755-0.146,3.463,0.498,5.139c1.682,4.363,3.499,8.641,6.953,11.979
	c0.413,0.398,0.722,0.906,1.055,1.379C210.135,246.118,210.102,246.296,210.187,247.069z"/>
<path fill-rule="evenodd" clip-rule="evenodd" fill="#FFFFFF" d="M280.522,240.147c0.262-1.104,0.494-1.896,0.63-2.706
	c0.292-1.716,0.684-3.435,0.763-5.164c0.156-3.456-2.014-5.152-5.29-4.248c-0.974,0.27-1.877,0.8-2.857,1.013
	c-0.607,0.133-1.299-0.11-2.439-0.239c0.636-0.811,0.889-1.326,1.3-1.62c0.943-0.672,2.055-1.128,2.931-1.87
	c1.089-0.919,2.206-1.911,2.965-3.094c2.368-3.701,1.501-7.345-2.149-9.76c-0.603-0.399-1.232-0.754-1.834-1.154
	c-0.094-0.06-0.101-0.252-0.209-0.554c1.892-0.821,3.646-0.296,5.335,0.518c3.204,1.547,4.934,3.36,6.089,7.001
	c2.457,7.74,0.99,14.878-3.752,21.387C281.819,239.912,281.283,239.909,280.522,240.147z"/>
<path fill-rule="evenodd" clip-rule="evenodd" fill="#A99B96" d="M120.636,156.396c-0.229-5.456,3.996-11.85,10.657-13.838
	c0.54-0.162,1.185-0.277,1.707-0.136c7.721,2.068,12.561,7.423,11.002,15.504c-0.596,3.092-1.668,5.722-4.019,7.936
	c-3.538,3.334-7.583,4.12-11.877,1.834C123.593,165.295,120.561,161.859,120.636,156.396z"/>
<path fill-rule="evenodd" clip-rule="evenodd" fill="#A99B96" d="M173.921,159.988c-2.91-0.192-5.14-1.654-6.752-4.068
	c-0.941-1.41-1.175-3.004-0.318-4.534c0.773-1.38,1.668-2.701,2.608-3.975c0.853-1.155,1.953-1.513,3.436-1.012
	c2.028,0.688,4.205,0.759,6.175,1.852c2.493,1.379,3.246,3.636,3.521,6.104c0.096,0.852-0.525,1.979-1.154,2.68
	C179.475,159.218,176.799,159.821,173.921,159.988z"/>
<path fill-rule="evenodd" clip-rule="evenodd" fill="#FFFFFF" d="M211.28,168.083c-0.235-0.154-0.735-0.308-0.845-0.606
	c-0.113-0.301,0.146-0.752,0.274-1.125c0.041-0.122,0.163-0.258,0.279-0.306c0.626-0.251,1.246-0.553,1.898-0.656
	c0.159-0.025,0.625,0.643,0.605,0.97c-0.062,0.957-0.724,1.474-1.646,1.655C211.71,168.042,211.567,168.049,211.28,168.083z"/>
<path fill-rule="evenodd" clip-rule="evenodd" fill="#FFFFFF" d="M265.292,161.067c0.539,0.584,1.036,0.9,1.184,1.334
	c0.222,0.659-0.579,1.399-1.27,1.141c-0.411-0.154-0.902-0.713-0.92-1.109C264.271,162.059,264.827,161.659,265.292,161.067z"/>
<path opacity="0.2" fill="#645043" d="M184.066,206.146c0,0,28.365-19.244,44.029-13.203c15.664,6.042,24.243,0.921,27.786,0
	s31.763-5.141,36.998,2.29c5.236,7.43-2.728-10.885-2.728-10.885s-0.793-7.174-36.646-3.405c-35.854,3.77-29.969,0-29.969,0
	s-26.507,0.26-38.411,17.346C173.224,215.373,184.066,206.146,184.066,206.146z"/>
<path opacity="0.2" fill="#645043" d="M269.345,99.392c0,0-23.438,65.306,19,3.953c0,0-22.13,30.407-18.911,42.833
	c0,0-20.662-6.333-15.695-14.53C253.738,131.648,257.185,139.987,269.345,99.392z"/>
<path opacity="0.2" fill="#645043" d="M195.513,127.567c0,0,21.357,24.62,15.831-11.159c0,0,7.457,21.628,13.67,24.95
	c0,0-14.475,16.575-17.337,8.281C207.677,149.639,211.352,143.539,195.513,127.567z"/>
<path opacity="0.2" fill-rule="evenodd" clip-rule="evenodd" fill="#645043" d="M195.513,239.332c0,0,6.871,21.262,29.648,15.692
	c22.776-5.57,15.098-22.566,15.098-22.566s-3.368,19.237-16.721,17.446C210.187,248.113,208.532,252.88,195.513,239.332z"/>
<path opacity="0.2" fill-rule="evenodd" clip-rule="evenodd" fill="#645043" d="M255.892,231.893c0,0-2.827,12.963,10.622,17.177
	c13.448,4.213,21.859-8.114,20.267-11.565c-1.594-3.451-5.869,15.881-20.267,9.564c-14.399-6.317-7.599-16.083-7.599-16.083
	L255.892,231.893z"/>
<path opacity="0.2" fill-rule="evenodd" clip-rule="evenodd" fill="#645043" d="M131.353,312.366c0,0,29.908-23.921,30.258-32.275
	c0.346-8.354-2.088-18.946,0-22.701c2.089-3.755,17.937-44.14,17.937-44.14s-31.506,58.157-31.479,58.093s8.457,0.741,1.948,10.14
	C143.509,290.882,131.353,312.366,131.353,312.366z"/>
<path fill-rule="evenodd" clip-rule="evenodd" fill="#E9E6F4" d="M261.901,497.836c-0.696-6.336-3.427-11.072-7.301-15.137
	c-3.837-4.024-8.77-5.604-14.223-5.245c-3.647,0.241-7.003,1.358-9.972,3.832c-4.552,3.796-6.826,8.551-7.224,14.351
	c-0.067,0.987-0.177,1.974-0.287,3.17c-1.726,0.146-3.289,0.275-4.91,0.414c-0.615-0.967-1.131-1.83-1.699-2.655
	c-2.318-3.366-5.478-4.659-9.456-3.656c-3.244,0.819-6.392,1.927-9.302,3.632c-1.88,1.102-3.78,2.171-5.682,3.235
	c-1.59,0.894-3.188,1.194-5.006,0.495c-1.042-0.4-2.259-0.457-3.396-0.465c-0.75-0.002-1.438,0.551-1.329,1.395
	c0.061,0.469,0.513,1.154,0.92,1.266c1.949,0.533,3.962,1.308,5.914,1.213c1.786-0.087,3.592-1.039,5.267-1.861
	c1.823-0.894,3.481-2.111,5.25-3.122c2.535-1.45,5.212-2.596,8.094-3.153c2.989-0.58,4.604,0.246,6.053,2.986
	c1.399,2.647,1.93,5.438,1.537,8.44c-0.574,4.431-2.255,8.38-4.974,12.237c-4.534,0.283-9.152-0.216-13.888-0.228
	c-0.813-1.279-1.487-2.557-2.389-3.648c-0.375-0.456-1.245-0.727-1.871-0.694c-0.831,0.039-1.09,0.82-1.09,1.612
	c-0.001,0.711,0,1.423,0,2.289c-0.846,0.127-1.543,0.32-2.238,0.325c-4.221,0.019-8.442-0.065-12.662,0.006
	c-2.641,0.045-4.781-0.563-6.387-2.919c-1.961-2.878-4.342-5.471-6.285-8.357c-6.343-9.424-11.751-19.396-16.87-29.528
	c-2.357-4.67-4.915-9.241-7.189-13.95c-2.276-4.706-4.421-9.48-6.425-14.309c-2.674-6.442-5.258-12.926-7.687-19.465
	c-1.667-4.489-3.333-9.013-4.096-13.772c-0.507-3.155-0.781-6.348-1.202-9.518c-0.749-5.623-1.356-11.252-0.89-16.933
	c0.261-3.19,0.524-6.38,0.867-9.56c0.218-2.029,0.598-2.229,3.481-2.163c0.278,0.707,0.62,1.485,0.891,2.288
	c1.237,3.671,2.837,4.614,6.505,3.772c0.564-0.13,1.104-0.353,1.847-0.595c0.306-0.507,0.708-1.101,1.034-1.734
	c0.261-0.506,0.432-1.06,0.6-1.486c1.382-0.666,2.878-0.434,3.521,0.797c1.771,3.402,4.726,3.4,7.885,3.023
	c1.938-0.233,3.235-1.194,3.676-3.16c0.153-0.678,0.301-1.357,0.458-2.065c2.489-0.281,4.769-0.539,7.236-0.816
	c0.507,0.664,1.026,1.342,1.537,2.022c1.605,2.143,2.459,2.494,4.78,1.767c2.12-0.663,4.076-1.493,4.79-3.981
	c0.206-0.715,1.003-1.379,1.688-1.814c0.964-0.609,2.074-0.98,2.979-1.39c0.475,0.166,0.823,0.186,1.01,0.368
	c2.649,2.588,5.569,1.979,8.501,0.69c0.623-0.275,1.424-0.818,1.572-1.389c0.688-2.614,2.926-2.95,5.02-3.782
	c2.152,1.014,4.171,2.547,6.878,1.138c2.446-1.274,3.608-3.207,3.911-5.743c1.486-0.327,2.744-0.606,4.312-0.951
	c0.552,0.246,1.322,0.634,2.121,0.945c2.509,0.978,5.289,0.254,6.241-2.195c1.213-3.113,4.097-3.363,6.457-4.526
	c0.535-0.264,1.403,0.086,2.104,0.227c4.197,0.838,5.301,0.263,7.019-3.704c0.171-0.396,0.353-0.787,0.509-1.137
	c5.832-3.063,11.678-5.956,17.092-9.65c4.191-2.86,8.379-5.811,12.872-8.129c9.916-5.118,18.34-12.233,26.744-19.362
	c13.215-11.209,25.453-23.443,37.098-36.269c1.644-1.811,2.877-4.003,5.184-5.54c0.564,0.673,1.185,1.246,1.605,1.942
	c3.854,6.367,8.695,11.992,13.216,17.87c7.557,9.832,16.354,18.535,24.603,27.737c2.036,2.271,4.227,4.408,6.294,6.654
	c1.184,1.287,2.272,2.661,2.52,4.46c-0.297,0.765-0.854,0.639-1.433,0.501c-0.507-0.12-1.023-0.206-1.44-0.288
	c-0.547,0.91-0.15,1.3,0.372,1.619c0.863,0.527,1.829,0.93,2.579,1.581c0.603,0.521,0.952,1.336,1.643,2.359
	c-1.063,0.244-1.753,0.611-2.346,0.494c-1.408-0.28-2.901-0.556-4.129-1.247c-4.805-2.708-9.56-5.505-14.238-8.424
	c-1.824-1.138-3.478-2.056-5.632-0.961c-1.249,0.636-2.033,1.604-2.525,2.868c-0.765,1.967-0.784,3.992-0.371,6.02
	c0.984,4.832,1.82,9.708,3.082,14.469c1.351,5.085,2.152,10.248,2.849,15.435c1.236,9.22,2.417,18.446,3.536,27.682
	c0.705,5.833,0.217,11.659-0.964,17.368c-1.204,5.832-2.489,11.691-4.373,17.33c-2.756,8.264-5.881,16.418-9.198,24.476
	c-5.047,12.252-11.144,23.992-17.982,35.35c-2.924,4.854-5.512,9.915-8.545,14.697c-2.25,3.551-4.926,6.837-7.513,10.161
	c-0.593,0.76-1.537,1.359-2.444,1.729c-1.198,0.486-2.506,0.865-3.789,0.953c-5.66,0.385-11.329,0.658-16.995,0.935
	c-0.542,0.026-1.097-0.206-1.583-0.305c-0.847-1.978,1.89-3.622,0.064-5.639c-3.142,0.513-3.182,4.195-5.509,5.64
	c-4.511,0.614-8.421,0.471-15.372-0.618c-1.915-2.93-3.329-6.144-2.576-9.989c0.196-0.995,0.354-2.002,0.513-3.005
	c0.975-6.142,7.978-12.383,16.27-9.236c3.914,1.486,8.045,2.625,11.18,5.706c0.734,0.723,1.744,1.105,2.82,0.765
	c0.367-0.115,0.822-0.403,0.944-0.726c0.129-0.338,0.057-0.999-0.188-1.188c-1.817-1.428-3.561-3.048-5.601-4.073
	c-2.708-1.36-5.601-2.447-8.521-3.273c-5.181-1.466-10.063-0.778-14.324,2.81C263.506,496.999,262.976,497.211,261.901,497.836z"/>
<g>
	<path fill-rule="evenodd" clip-rule="evenodd" fill="#E9E6F4" d="M152.45,268.028c2.286-5.51,4.274-10.661,6.55-15.684
		c2.574-5.682,5.221-11.348,8.172-16.841c3.71-6.903,7.733-13.639,11.689-20.409c0.938-1.605,2.466-2.918,3.167-4.598
		c2.079-4.977,4.896-9.535,7.534-14.199c0.213-0.375,0.305-0.859,0.598-1.14c6.42-6.146,13.647-10.689,22.701-11.881
		c7.69-1.013,15.362-0.803,23.054-0.22c1.014,0.077,2.038,0.104,3.054,0.07c6.684-0.234,13.372-0.39,20.048-0.774
		c4.489-0.258,8.964-0.845,13.442-1.295c4.258-0.426,8.377,0.394,12.49,1.312c1.528,0.342,2.573,1.166,3.235,2.622
		c1.206,2.646,2.696,5.171,3.756,7.869c3.666,9.325,7.564,18.538,12.04,27.514c3.499,7.017,6.609,14.228,10.067,21.266
		c1.199,2.446,1.195,4.764,0.3,7.142c-0.869,2.307-1.76,4.646-2.99,6.769c-2.69,4.643-5.484,9.201-9.01,13.335
		c-5.758,6.76-11.606,13.41-18.166,19.412c-5.795,5.306-11.836,10.283-18.214,14.895c-4.268,3.087-8.901,5.425-13.489,7.909
		c-6.387,3.458-12.68,7.093-19.091,10.504c-3.586,1.909-7.311,3.559-11.012,5.245c-1.468,0.667-3.009,1.037-4.592,0.113
		c-0.472-0.271-1.125-0.265-1.699-0.318c-2.604-0.238-3.279,0.208-4.137,2.772c-0.229,0.678-0.35,1.393-0.535,2.156
		c-1.912,0.653-3.806,1.299-6.028,2.058c-0.213-0.076-0.736-0.316-1.287-0.446c-2.572-0.608-4.699-0.337-6.549,2.032
		c-1.877,2.4-4.659,3.3-7.761,2.675c-3.244-0.655-4.397-0.211-6.173,2.538c-0.312,0.479-0.489,1.045-0.759,1.634
		c-1.115,0.328-2.198,0.755-3.321,0.942c-0.961,0.159-2,0.21-2.946,0.021c-4.129-0.823-5.679-0.167-7.832,3.496
		c-0.218,0.372-0.488,0.712-0.924,1.337c-2.434-0.12-5.017-0.162-7.583-0.403c-2.603-0.247-4.483,0.775-5.664,2.877
		c-2.692,0.097-5.116,0.688-7.523-0.518c-1.515-0.761-3.142-0.091-4.678,0.36c-1.226,0.358-1.844,1.326-2.393,2.386
		c-0.188,0.361-0.552,0.634-0.81,0.919c-2.185-0.497-4.197-1.07-5.988-2.439c-0.835-0.637-2.148-0.732-3.27-0.886
		c-0.82-0.111-1.681,0.085-2.88,0.168c0.094-0.967,0.126-1.631,0.227-2.282c0.132-0.86,0.408-1.705,0.459-2.565
		c0.232-3.865-2.328-5.754-5.879-4.098c-2.075,0.966-4.022,2.351-5.771,3.847c-2.646,2.268-5.017,4.854-7.602,7.196
		c-2.15,1.946-4.429,3.758-6.687,5.581c-0.413,0.334-1.01,0.442-1.577,0.674c-1.111-2.596,2.005-3.422,2.071-5.737
		c-0.942-0.382-1.954-0.793-2.973-1.206c-0.06-0.225-0.26-0.542-0.177-0.738c2.367-5.571,6.12-10.121,10.393-14.338
		c3.614-3.564,7.145-7.226,10.533-11.004c3.88-4.326,7.723-8.705,11.29-13.288c4.816-6.186,9.567-12.443,13.942-18.944
		c3.072-4.562,5.568-9.529,8.116-14.422c0.923-1.772,1.438-3.821,1.796-5.807C155.583,271.108,155.105,269.154,152.45,268.028z
		 M218.585,251.916c5.621-0.022,10.473-0.896,14.675-4.347c2.231-1.833,3.454-4.224,4.894-6.563c1.837-2.979,2.533-6.21,2.105-9.591
		c-0.383-3.003-1.133-5.966-1.838-8.918c-0.23-0.965-0.773-1.872-1.27-2.752c-2.137-3.809-4.69-7.315-7.557-10.617
		c-3.851-4.437-8.7-7.205-14.335-8.47c-5.806-1.303-11.278-0.73-15.515,4.154c-0.379,0.437-0.85,0.792-1.253,1.209
		c-2.68,2.768-4.597,5.958-5.39,9.767c-1.009,4.852-1.476,9.686-0.661,14.665c1.364,8.336,5.574,14.554,13.127,18.303
		C209.762,250.834,214.337,251.721,218.585,251.916z M275.923,207.704c-1.673,0.388-3.398,0.619-5.003,1.195
		c-4.958,1.778-8.804,4.971-11.458,9.542c-1.77,3.046-2.723,6.31-3.317,9.82c-1.139,6.718,1.53,11.995,5.832,16.567
		c2.925,3.11,6.729,4.527,11.127,3.079c0.686-0.225,1.394-0.422,2.107-0.526c2.724-0.395,4.892-1.771,6.679-3.781
		c1.448-1.626,2.894-3.263,4.201-5.001c0.681-0.908,1.199-1.999,1.542-3.086c0.697-2.205,1.113-4.5,1.848-6.689
		c1.175-3.494,0.624-6.924-0.238-10.312C287.603,212.067,282.499,208.085,275.923,207.704z M223.871,271.779
		c1.438-0.059,2.438-0.229,3.404-0.116c4.768,0.561,8.786,2.924,12.553,5.659c2.571,1.868,4.859,4.129,7.273,6.216
		c1.987,1.718,2.976,1.681,4.779-0.284c0.784-0.854,1.602-1.719,2.189-2.708c1.746-2.932,4.326-5.076,6.749-7.363
		c2.156-2.037,4.813-3.225,7.616-4.047c0.938-0.274,2.068-0.367,2.542,1.131c-1.075,1.528-2.51,2.614-4.392,3.197
		c-0.804,0.249-1.565,0.725-2.25,1.227c-0.261,0.191-0.465,0.905-0.318,1.104c0.298,0.404,0.818,0.729,1.311,0.875
		c0.37,0.111,0.888-0.009,1.256-0.194c2.749-1.38,5.265-3.062,7.026-5.676c1.713-2.541,1.195-4.638-1.683-5.344
		c-4.077-0.998-8.217-1.964-12.385-2.338c-5.622-0.505-11.279-0.591-16.952-0.051c-7.01,0.667-13.787,1.931-20.003,5.43
		c-1.442,0.811-2.129,2.014-1.784,3.522c0.605,2.636,2.226,4.519,4.785,5.174c2.514,0.644,5.142,0.869,7.732,1.146
		c0.739,0.079,1.351-0.431,1.08-1.61c-1.48-0.64-3.085-1.113-4.804-1.422c-1.541-0.277-3.052-0.878-4.48-1.539
		C224.631,273.543,224.424,272.705,223.871,271.779z M247.671,292.535c0.86,0.018,1.492-0.701,1.486-1.685
		c-0.013-1.246-0.845-2.093-2.104-2.135c-0.851-0.027-1.567,0.763-1.51,1.661C245.628,291.652,246.475,292.512,247.671,292.535z"/>
	<path fill-rule="evenodd" clip-rule="evenodd" fill="#E9E6F4" d="M214.505,518.913c1.103-2.747,2.325-5.202,3.062-7.795
		c0.703-2.479,0.903-5.1,1.364-7.91c1.516-1.554,3.824-1.521,5.883-1.731c3.667-0.375,7.37-1.775,11.083-0.177
		c0.884,1.565,0.679,3.163,0.166,4.664c-1.409,4.116-3.317,8.01-5.576,11.729c-0.474,0.782-1.051,1.452-1.991,1.493
		C223.893,519.396,219.286,519.52,214.505,518.913z"/>
	<path fill-rule="evenodd" clip-rule="evenodd" fill="#E9E6F4" d="M258.078,505.254c-0.24,2.342-0.718,4.473-0.604,6.569
		c0.116,2.117,0.822,4.201,1.288,6.388c-2.069,0.783-3.869,0.158-5.843-0.146c-0.232-0.473-0.561-0.951-0.707-1.478
		c-0.657-2.364-1.279-4.738-1.883-7.119c-0.391-1.543-0.971-3.279,0.21-4.562c1.323-1.44,3.158-1.099,4.872-0.47
		C256.085,504.683,256.785,504.86,258.078,505.254z"/>
</g>
<path fill-rule="evenodd" clip-rule="evenodd" fill="#BBD8A4" d="M297.485,182.502c-2.406-0.788-4.074-1.198-5.632-1.864
	c-7.875-3.366-16.012-3.628-24.393-2.617c-6.193,0.748-12.453,1.146-18.691,1.278c-9.444,0.2-18.899-0.099-28.344,0.061
	c-8.896,0.151-17.222,2.515-24.654,7.531c-1.666,1.125-3.097,2.626-4.557,4.034c-1.36,1.314-2.716,2.576-4.6,3.032
	c-0.208-0.386-0.492-0.672-0.436-0.843c3.463-10.356,7.658-20.375,13.983-29.358c2.745-3.898,5.348-7.944,9.252-11.097
	c2.775,1.33,5.348,0.488,7.95-0.582c3.013-1.238,5.555-3.129,7.883-5.336c1.629-1.546,2.393-3.289,0.811-5.382
	c-0.234-0.312-0.215-0.818-0.354-1.4c4.349-2.471,9.016-4.098,13.925-4.665c4.255-0.492,8.626-1.509,13.06,0.313
	c0.285,3.827,2.703,6.195,5.624,8.264c2.272,1.609,4.66,2.944,7.279,3.89c1.687,0.61,3.358,0.805,5.412,0.379
	c0.479-1.607,0.963-3.241,1.529-5.146c0.765,0.334,1.636,0.496,2.205,0.999c2.634,2.319,4.802,5.041,6.707,7.992
	c4.74,7.341,8.833,15.03,12.487,22.961C294.963,177.18,296.026,179.399,297.485,182.502z M217.441,166.541
	c-0.135-2.241-2.171-4.234-4.202-4.114c-2.29,0.134-4.806,2.805-4.62,4.905c0.182,2.051,2.104,3.92,3.959,3.854
	C214.958,171.102,217.563,168.613,217.441,166.541z M270.476,163.133c0.034-1.747-0.852-3.041-2.117-4.092
	c-1.857-1.542-4.423-0.913-5.421,1.291c-0.647,1.426-0.5,2.852,0.227,4.18c0.881,1.606,2.909,2.505,4.404,2.072
	C269.045,166.157,270.4,164.548,270.476,163.133z"/>
<path fill-rule="evenodd" clip-rule="evenodd" fill="#A7B59A" d="M317.051,252.064c0.722,1.349,1.365,2.453,1.907,3.604
	c0.447,0.953,0.562,1.949-0.068,2.911c-1.01,1.547-0.592,3.079,0.151,4.553c0.848,1.684,1.762,3.338,2.684,4.986
	c0.633,1.137,1.326,2.239,1.953,3.288c-0.485,2.32-1.644,4.11-3.086,5.78c-13.229,15.321-27.421,29.665-43.164,42.422
	c-3.612,2.927-7.336,5.721-11.106,8.44c-2.468,1.778-5.133,3.279-7.669,4.965c-4.345,2.891-8.592,5.937-13.005,8.713
	c-4.549,2.86-9.233,5.511-13.9,8.179c-1.23,0.705-2.617,1.139-4.089,1.763c-1.481-3.62-1.79-7.255-2.732-10.723
	c-0.904-3.336-2.021-6.616-3.127-10.188c0.319-0.22,0.639-0.551,1.025-0.688c7.007-2.496,13.25-6.549,19.901-9.773
	c4.957-2.401,9.797-5.058,14.61-7.739c7.12-3.966,13.584-8.881,19.807-14.121c5.336-4.495,10.613-9.04,15.504-14.04
	c3.872-3.957,7.164-8.398,10.923-12.431c4.908-5.266,8.702-11.223,11.785-17.682c0.249-0.522,0.563-1.014,0.866-1.51
	C316.29,252.657,316.435,252.584,317.051,252.064z M312.428,266.974c-1.249-0.013-2.211,0.429-2.93,1.524
	c-1.587,2.418-1.409,5.485,0.483,8.127c1.158,1.623,2.698,2.074,4.572,1.747c1.659-0.287,2.494-1.427,2.843-2.929
	c0.261-1.115,0.447-2.28,0.428-3.42C317.76,268.372,314.844,267.022,312.428,266.974z"/>
<path fill-rule="evenodd" clip-rule="evenodd" fill="#E5CF8D" d="M118.633,421.718c0.427,0.331,0.751,0.449,0.822,0.657
	c6.011,17.592,13.126,34.735,21.039,51.553c0.038,0.079-0.098,0.243-0.287,0.676c-2.334-0.117-4.682-0.805-7.019-1.403
	c-3.658-0.94-7.176-2.162-10.487-4.129c-3.662-2.179-6.141-5.261-8.215-8.814c-0.145-0.25-0.271-0.521-0.344-0.799
	c-1.419-5.355-2.579-10.745-1.11-16.283c0.782-2.948,1.847-5.823,2.581-8.781c0.84-3.382,1.434-6.824,2.181-10.229
	C117.973,423.352,118.332,422.581,118.633,421.718z"/>
<ellipse fill-rule="evenodd" clip-rule="evenodd" fill="#E5CF8D" cx="313.205" cy="272.429" rx="1.914" ry="3.48"/>
<g>
	<g>
		<g>
			<path fill-rule="evenodd" clip-rule="evenodd" fill="#E5CF8D" d="M152.325,260.776c-0.136,0.049-0.354,0.062-0.398,0.155
				c-1.886,4.064-3.8,8.113-5.576,12.226c-0.287,0.663,0.058,1.597,0.124,2.59c1.352-0.257,2.419-0.457,3.634-0.686
				c0.32,1.958-0.397,3.396-1.143,4.768c-3.406,6.257-6.735,12.563-10.987,18.319c-1.727,2.339-3.327,4.772-5.039,7.122
				c-0.464,0.636-1.127,1.128-1.73,1.718c-1.058-1.084-0.534-2.13-0.609-3.078c-0.081-1.016-0.069-2.037-0.13-3.053
				c-0.06-1.016-0.161-2.029-0.241-3.043c-1.095-13.787-2.859-27.49-6.104-40.938c-2.113-8.753-4.758-17.38-7.228-26.045
				c-4.231-14.847-10.015-29.137-15.678-43.471c-0.854-2.162-1.89-4.253-2.858-6.371c-4.058-8.871-7.541-17.969-10.279-27.327
				c-1.098-3.753-1.784-7.662-1.352-11.625c0.39-3.587,1.735-6.516,4.791-8.897c4.347-3.388,9.234-5.546,14.338-7.164
				c5.536-1.755,11.215-3.118,16.902-4.316c6.821-1.438,13.703-2.613,20.587-3.718c3.723-0.597,7.521-0.706,11.262-1.216
				c9.96-1.36,19.99-1.421,30.254-1.829c0.564,0.671,1.229,1.405,1.834,2.184c3.926,5.056,7.802,10.148,11.766,15.172
				c3.184,4.033,5.394,8.614,7.626,13.183c0.374,0.763,0.473,1.657,0.743,2.655c-1.109,1.131-2.281,2.195-3.303,3.388
				c-9.089,10.606-15.955,22.5-20.58,35.684c-0.529,1.508-1.073,3.016-1.692,4.489c-0.563,1.333-1.236,2.62-1.875,3.953
				c0,0.247-0.109,0.598,0.017,0.811c1.293,2.183,0.628,3.967-0.637,6.022c-4.697,7.633-10.666,14.157-17.214,20.169
				c-4.943,4.538-9.681,9.208-13.607,14.696c-3.56,4.977-5.783,10.388-6.391,16.465c-0.087,0.863-0.146,1.735-0.128,2.599
				c0.044,1.935,0.845,3.141,2.858,3.825c2.69,0.912,5.305,1.334,8.064,0.587L152.325,260.776z M131.504,172.646
				c4.042,0.097,6.668-0.948,8.981-2.896c3.738-3.149,5.921-7.073,6.195-12.018c0.371-6.727-1.905-12.226-7.433-16.23
				c-2.348-1.7-4.968-2.39-7.827-1.73c-4.216,0.973-7.931,2.916-10.665,6.329c-4.155,5.186-5.339,10.942-2.376,17.08
				C121.199,169.022,126.213,171.854,131.504,172.646z M172.588,142.521c-4.938-0.091-10.019,4.416-10.432,9.265
				c-0.036,0.43-0.043,0.88,0.041,1.301c0.788,4.022,2.611,7.299,6.412,9.283c5.049,2.634,9.522,1.257,13.769-1.818
				c2.356-1.705,3.195-4.032,2.506-6.881c-0.17-0.704-0.325-1.412-0.518-2.109C182.96,146.499,179.896,143.036,172.588,142.521z
				 M157.087,152.56c-0.781-0.417-1.387-0.83-2.053-1.078c-2.056-0.765-3.485,0.132-3.598,2.265c-0.037,0.71,0.043,1.45,0.21,2.142
				c0.332,1.371,1.66,2.118,3.026,1.623c0.786-0.283,1.608-0.729,2.165-1.332C157.702,155.241,157.479,154.028,157.087,152.56z"/>
			<path fill-rule="evenodd" clip-rule="evenodd" fill="#E5CF8D" d="M318.729,209.407c-1.094-0.399-1.673-0.511-2.14-0.799
				c-5.78-3.561-10.63-8.077-14.184-13.908c-0.302-0.497-0.579-1.01-0.832-1.532c-0.799-1.646-1.152-3.23,0.123-4.893
				c1.266-1.647,0.895-3.431-0.46-4.753c-3.429-3.351-5.295-7.595-7.104-11.875c-3.065-7.25-6.933-14.075-10.993-20.789
				c-3.333-5.509-7.6-10.225-13.015-14.234c1.857-8.232,6.094-15.276,10.637-22.215c2.396-0.552,4.717-0.439,7.008-0.109
				c7.189,1.037,14.426,1.888,21.538,3.329c6.38,1.293,12.788,2.635,18.889,5.07c3.555,1.419,5.854,3.749,5.827,7.749
				c-0.017,2.161-0.094,4.378-0.572,6.471c-1.035,4.524-2.216,9.026-3.58,13.461c-1.583,5.148-2.947,10.33-3.904,15.634
				c-1.47,8.152-3.189,16.262-4.566,24.43c-0.849,5.014-1.238,10.104-1.876,15.155C319.383,206.727,319.062,207.834,318.729,209.407
				z"/>
			<path fill-rule="evenodd" clip-rule="evenodd" fill="#E5CF8D" d="M252.893,131.478c-11.226-1.713-21.818-0.424-31.512,5.457
				c-2.329-2.187-3.532-4.083-8.11-13.836c-1.516-3.229-3.078-6.516-3.422-10.217c0.54-0.22,0.922-0.5,1.313-0.517
				c14.777-0.611,29.558-1.236,44.352-0.764c1.846,0.059,3.677,0.604,5.513,0.925C259.512,120.208,256.807,127.208,252.893,131.478z
				"/>
		</g>
	</g>
	<path fill-rule="evenodd" clip-rule="evenodd" fill="#E5CF8D" d="M152.345,260.778c-0.61-0.785-1.43-1.427-1.373-2.602
		c0.349-7.031,3.456-12.697,8.544-17.392c0.051-0.046,0.224,0.044,0.628,0.135c-0.242,1.548-0.945,2.927-1.599,4.34
		c-2.066,4.469-4.113,8.947-6.095,13.453c-0.261,0.593-0.1,1.37-0.13,2.061C152.325,260.776,152.345,260.778,152.345,260.778z"/>
</g>
<path fill-rule="evenodd" clip-rule="evenodd" fill="#F4E2B1" d="M284.32,110.685c1.011-3.333,3.355-7.466,6.501-11.596
	c0.971,0,1.998-0.139,2.974,0.021c10.05,1.648,19.98,3.841,29.787,6.585c6.861,1.921,13.613,4.127,20.156,7.003
	c5.104,2.243,7.929,6.273,9.425,11.298c0.503,1.692,0.196,3.788-0.246,5.573c-3.011,12.129-6.153,24.227-9.259,36.333
	c-2.636,10.283-5.091,20.6-6.106,31.203c-0.472,4.917-1.018,9.829-1.599,14.734c-0.254,2.152-0.679,4.283-1.055,6.605
	c-2.747,0.144-4.385-1.764-6.377-2.742c-2.067-1.017-4.019-2.274-5.903-3.359c-0.48-1.909-0.003-3.471,0.197-5.034
	c0.568-4.469,1.097-8.945,1.783-13.396c0.821-5.31,1.77-10.599,2.711-15.889c0.586-3.292,1.347-6.555,1.887-9.854
	c1.487-9.082,4.467-17.767,7.013-26.561c0.941-3.25,1.447-6.547,1.714-9.861c0.454-5.678-2.415-9.789-7.811-11.702
	c-9.347-3.316-19.013-5.319-28.79-6.802c-5.169-0.783-10.377-1.313-15.564-1.982C285.356,111.21,284.981,110.958,284.32,110.685z"/>
<path fill-rule="evenodd" clip-rule="evenodd" fill="#F4E2B1" d="M266.464,96.794c-0.073,3.922-1.14,7.477-3.622,11.82
	c-1.811,0.072-3.826,0.245-5.838,0.217c-6.688-0.093-13.375-0.416-20.061-0.354c-7.999,0.072-15.993,0.459-23.99,0.683
	c-1.298,0.036-2.602-0.029-3.899-0.114c-1.109-0.072-1.938-0.698-2.366-1.688c-1.488-3.444-3.308-6.763-4.271-10.588
	c0.697-0.223,1.216-0.492,1.758-0.544c2.606-0.251,5.218-0.598,7.83-0.631c9.896-0.125,19.797-0.294,29.69-0.151
	c7.851,0.113,15.693,0.653,23.537,1.022C265.654,96.486,266.062,96.683,266.464,96.794z"/>
<path fill-rule="evenodd" clip-rule="evenodd" fill="#F4E2B1" d="M173.981,100.318c2.875,3.362,5.564,6.54,7.501,10.633
	c-0.987,0.403-1.719,0.836-2.504,0.992c-1.134,0.226-2.306,0.283-3.464,0.355c-5.214,0.331-10.431,0.6-15.64,0.979
	c-2.166,0.157-4.312,0.538-6.471,0.808c-12.371,1.549-24.752,3.1-36.88,6.075c-5.056,1.241-9.992,2.977-14.965,4.543
	c-1.49,0.469-2.918,1.14-5.028,1.362c0.875-1.206,1.365-2.049,2.011-2.747c4.211-4.549,9.47-7.604,14.906-10.416
	c7.821-4.043,16.337-5.896,24.824-7.756c9.083-1.989,18.281-3.281,27.577-3.851C168.444,101.137,171.024,100.683,173.981,100.318z"
	/>
<path fill-rule="evenodd" clip-rule="evenodd" fill="#F4E2B1" d="M126.8,352.49c0,0-2.263,28.022,0,29.415
	c2.264,1.392,2.96,2.261,4.353-1.394c1.392-3.655,0.869-26.629,0.869-26.629S132.717,350.924,126.8,352.49z"/>
<path fill-rule="evenodd" clip-rule="evenodd" fill="#F4E2B1" d="M144.727,352.143c0,0-3.307-1.22-3.829,5.395
	c-0.521,6.614-3.133,21.757-0.695,23.671c2.437,1.914,5.221,2.437,6.439-0.175C147.859,378.423,149.427,350.228,144.727,352.143z"/>
<path fill-rule="evenodd" clip-rule="evenodd" fill="#F4E2B1" d="M157.434,349.879c0,0-0.001,23.497,1.74,27.152
	c1.74,3.654,1.392,3.48,2.609,3.133c1.219-0.348,2.959-0.87,3.482-1.567c0.522-0.696,0.347-18.622,0.173-21.755
	C165.266,353.709,165.961,347.094,157.434,349.879z"/>
<path fill-rule="evenodd" clip-rule="evenodd" fill="#F4E2B1" d="M173.097,345.181c0,0-2.437,1.913-2.437,3.48
	c0,1.565,2.61,21.407,3.829,23.67c1.219,2.264,2.089,3.307,3.829,2.959s3.656-2.263,3.48-4.003
	c-0.174-1.741-4.873-24.366-4.873-24.366S175.012,344.31,173.097,345.181z"/>
<path fill-rule="evenodd" clip-rule="evenodd" fill="#F4E2B1" d="M187.021,340.48c0,0-2.437,1.043-1.913,5.048
	c0.521,4.003,4.524,22.801,4.524,22.801s2.089,2.088,3.83,1.739c1.738-0.348,4.35-2.611,4.176-3.48
	c-0.174-0.87-7.31-25.585-7.31-25.585S188.413,338.914,187.021,340.48z"/>
<path fill-rule="evenodd" clip-rule="evenodd" fill="#F4E2B1" d="M199.9,335.434c0,0-2.611,1.741-1.567,6.266
	c1.045,4.525,5.744,20.886,5.744,20.886s2.437,2.959,4.178,1.914c1.74-1.044,2.089-1.739,2.61-2.959
	c0.522-1.218-6.439-25.411-6.439-25.411S201.64,332.997,199.9,335.434z"/>
<path fill-rule="evenodd" clip-rule="evenodd" fill="#F4E2B1" d="M214.869,328.472c0,0-1.74,1.219-1.566,3.829
	s6.439,22.974,6.787,23.67c0.348,0.697,2.263,2.959,3.828,2.088c1.567-0.869,2.438-4.523,2.438-4.523l-7.309-23.15
	C219.047,330.385,216.609,327.079,214.869,328.472z"/>
<path fill-rule="evenodd" clip-rule="evenodd" fill="#E5CF8D" d="M317.21,223.204c0.472,4.664,0.32,14.281-0.275,17.749
	c-1.664-1.775-2.207-3.887-3.198-5.727c-1.095-2.04-2.292-4.027-3.34-6.092c-0.983-1.934-1.861-3.923-2.724-5.915
	c-0.843-1.943-2.109-3.727-2.558-6.258c2.681,0.484,4.228,2.362,6.255,3.276C313.339,221.125,315.228,222.188,317.21,223.204z"/>
<path fill-rule="evenodd" clip-rule="evenodd" fill="#E5CF8D" d="M321.34,225.485c-1.086,1.646-0.991,3.417-0.969,5.124
	c0.053,4.21,0.444,8.428,0.271,12.625c-0.329,7.964-0.276,8.386,3.16,15.516c0.344,0.714,0.598,1.922,0.236,2.441
	c-1.17,1.668-0.577,2.969,0.314,4.41c1.602,2.589,3.112,5.234,4.7,7.83c0.267,0.433,0.466,1.127,1.247,0.919
	c0.11-0.093,0.298-0.181,0.298-0.268c0.042-13.804-0.307-27.616,0.797-41.398c0.046-0.564-0.085-1.141-0.15-1.92
	C328.14,228.738,325.162,226.437,321.34,225.485z"/>
<g>
	<path fill-rule="evenodd" clip-rule="evenodd" fill="#A7B59A" d="M346.712,238.24c-3.458,0.312-5.312-0.935-6.245-3.63
		c-0.743-2.149-2.249-3.733-3.996-5.067c-3.93-3.002-7.909-5.911-12.462-7.981c-4.759-2.164-9.373-4.637-14.096-6.88
		c-3.749-1.778-6.945-4.335-9.688-7.326c-1.623-1.772-2.601-4.169-3.713-6.365c-0.713-1.407-1.144-2.959-1.738-4.543
		c0.71-1.388,1.526-2.699,3.249-3.505c0.437,0.646,0.968,1.177,1.194,1.817c0.895,2.536,2.508,4.57,4.277,6.525
		c5.108,5.651,10.756,10.538,17.712,13.912c4.828,2.343,9.52,5.04,14.001,7.993c4.798,3.159,8.455,7.517,11.014,12.71
		C346.517,236.502,346.514,237.252,346.712,238.24z"/>
	<path fill-rule="evenodd" clip-rule="evenodd" fill="#A7B59A" d="M177.313,211.205c-1.586,2.745-3.172,5.491-4.763,8.233
		c-0.219,0.376-0.486,0.724-0.701,1.101c-1.938,3.403-3.87,6.809-5.803,10.216c-3.361,2.134-5.582,5.42-8.239,8.256
		c-3.385,3.614-6.414,7.514-7.919,12.351c-0.388,1.241-0.601,2.539-0.987,3.78c-0.248,0.793-0.669,1.533-0.991,2.248
		c-3.553-0.783-3.736-0.941-3.502-3.823c0.309-3.793,1.323-7.369,3.267-10.695c3.762-6.437,8.349-12.179,13.984-17.068
		c5.048-4.381,9.774-9.081,14.098-14.183c0.27-0.317,0.654-0.537,0.985-0.802C176.932,210.949,177.124,211.076,177.313,211.205z"/>
</g>
<g>
	<path fill-rule="evenodd" clip-rule="evenodd" fill="#ADBF9C" d="M342.896,241.894c1.279,0,2.295-0.084,3.289,0.022
		c1.084,0.118,1.828,0.787,2.27,1.81c1.173,2.719,0.589,4.43-3.053,5.226c-0.51,0.113-1.395-0.433-1.765-0.93
		C342.572,246.596,342.527,245.652,342.896,241.894z"/>
	<path fill-rule="evenodd" clip-rule="evenodd" fill="#ADBF9C" d="M290.549,184.347c2.184,1.298,3.867,2.298,5.615,3.339
		c-0.391,2.173-1.809,3.046-3.178,4.021C290.931,188.889,290.614,188.005,290.549,184.347z"/>
</g>
</svg>
